<?xml version="1.0" encoding="UTF-8"?>
<svg version="1.1" xmlns="http://www.w3.org/2000/svg" width="500" height="250">
<path d="M0 0 C3.23381129 1.53353395 6.04704559 3.52600907 8.9375 5.625 C9.68451172 6.14707031 10.43152344 6.66914062 11.20117188 7.20703125 C14.28205814 9.36019594 17.35422072 11.51496404 20.35986328 13.77246094 C24.81032791 17.06951096 24.81032791 17.06951096 30.1015625 18.171875 C33.89517107 16.638071 37.04494588 14.60767662 40.375 12.25 C41.70410241 11.3393697 43.03352639 10.42920855 44.36328125 9.51953125 C45.57569048 8.67993243 46.78794781 7.84011417 48 7 C52.56589244 3.87892145 56.3360611 1.30195902 62 1 C64.74951172 2.34472656 64.74951172 2.34472656 67.5546875 4.390625 C68.59979492 5.13248047 69.64490234 5.87433594 70.72167969 6.63867188 C71.53179504 7.22588013 71.53179504 7.22588013 72.35827637 7.82495117 C75.00645096 9.72035816 77.72839142 11.50198596 80.4453125 13.296875 C81.53287842 14.02197266 82.62044434 14.74707031 83.7409668 15.49414062 C86.0598768 17.0401088 88.37909127 18.58561903 90.69848633 20.13085938 C95.86750871 23.57502883 101.03555582 27.02049615 106.19140625 30.484375 C106.96274902 31.00161133 107.7340918 31.51884766 108.52880859 32.05175781 C109.87557575 32.955289 111.22116188 33.8605861 112.56494141 34.76855469 C116.41042163 37.34549479 120.31028765 39.82003624 124.24664307 42.25613403 C133.88749091 48.22773917 143.318948 54.48931079 152.73358154 60.81008911 C166.69252322 70.1795415 180.6798436 79.48796553 194.89233398 88.46923828 C195.79153564 89.03755371 196.6907373 89.60586914 197.6171875 90.19140625 C198.37628418 90.66779541 199.13538086 91.14418457 199.91748047 91.63500977 C202.03018564 93.01978522 204.06873945 94.36910398 206 96 C206.51391252 98.93664297 206.4124499 100.34876331 204.8125 102.875 C203 104 203 104 200.66040039 103.73925781 C197.8467274 102.95740943 196.02120036 101.94433586 193.62109375 100.296875 C192.79303223 99.73556885 191.9649707 99.1742627 191.11181641 98.59594727 C190.22929199 97.98678467 189.34676758 97.37762207 188.4375 96.75 C186.53846878 95.4611952 184.63871212 94.17345877 182.73828125 92.88671875 C181.77744629 92.23364746 180.81661133 91.58057617 179.82666016 90.90771484 C175.62672081 88.07317295 171.37981088 85.31372142 167.125 82.5625 C165.47782343 81.49485516 163.83068869 80.42714578 162.18359375 79.359375 C161.34683105 78.81732422 160.51006836 78.27527344 159.64794922 77.71679688 C144.96670432 68.1982173 130.33940363 58.60586682 115.80859375 48.859375 C110.21391871 45.11530128 104.58589614 41.43745142 98.8984375 37.8359375 C90.5259244 32.53259362 82.19776955 27.16415235 73.9375 21.6875 C73.31842773 21.27910889 72.69935547 20.87071777 72.06152344 20.44995117 C69.33917228 18.63691298 66.81534518 16.83405833 64.37890625 14.64453125 C62.14728193 12.76630032 62.14728193 12.76630032 59.55859375 13.01171875 C56.38678963 14.23685836 53.8565381 15.87429339 51.0625 17.8125 C50.06347656 18.49957031 49.06445312 19.18664062 48.03515625 19.89453125 C47.03355469 20.58933594 46.03195312 21.28414062 45 22 C43.0054 23.34165664 41.00334692 24.67140182 39 26 C41.62309553 27.71127061 44.24883934 29.41843769 46.875 31.125 C47.60203125 31.599375 48.3290625 32.07375 49.078125 32.5625 C53.00318663 35.11034702 56.95556592 37.59040292 60.9765625 39.984375 C65.89582392 42.9157873 70.70747609 45.99159372 75.5 49.125 C76.35875732 49.68485596 77.21751465 50.24471191 78.10229492 50.8215332 C88.0989119 57.35104113 98.03966617 63.96638196 107.9296875 70.65625 C114.02971038 74.77138846 120.16645279 78.75239739 126.5 82.5 C129.00445999 83.99266743 131.50423038 85.49284714 134 87 C134.69319336 87.41813965 135.38638672 87.8362793 136.10058594 88.26708984 C138.20638963 89.55236948 140.29211272 90.86547567 142.375 92.1875 C143.34856445 92.7753125 143.34856445 92.7753125 144.34179688 93.375 C147.47880771 95.40303511 148.86343435 96.55887128 149.984375 100.1796875 C150 103 150 103 148.875 104.9375 C147 106 147 106 144.70581055 105.76220703 C141.62864656 104.89539245 139.49582756 103.63126174 136.83203125 101.8671875 C135.85556641 101.22523438 134.87910156 100.58328125 133.87304688 99.921875 C132.86306641 99.24640625 131.85308594 98.5709375 130.8125 97.875 C129.82185547 97.22273438 128.83121094 96.57046875 127.81054688 95.8984375 C122.22756014 92.2081748 116.71396192 88.43252135 111.26049805 84.5534668 C106.59643077 81.34821136 101.67585985 78.54992586 96.78125 75.71484375 C88.76564376 71.00704762 81.09619189 65.78324643 73.38330078 60.60107422 C55.95320615 48.89173591 38.38900379 37.45124166 20.55493164 26.36523438 C14.36572917 22.50925706 8.25589929 18.58359813 2.26953125 14.41796875 C1.52058594 13.95003906 0.77164063 13.48210938 0 13 C-0.73863281 12.4946875 -1.47726563 11.989375 -2.23828125 11.46875 C-6.97932337 10.66404695 -10.18553438 13.71540095 -14 16.3125 C-14.84868652 16.86921387 -15.69737305 17.42592773 -16.57177734 17.99951172 C-22.35615631 21.81520684 -28.02532588 25.79130129 -33.6875 29.78515625 C-38.21492024 32.81233464 -42.90265421 35.53433819 -47.65087891 38.19970703 C-52.74287334 41.10324303 -57.39835888 44.43941837 -62.11230469 47.91870117 C-66.88272463 51.35696884 -71.84401602 54.48293815 -76.8125 57.625 C-77.88910889 58.31013672 -78.96571777 58.99527344 -80.07495117 59.70117188 C-83.38108058 61.80430147 -86.69019151 63.90266621 -90 66 C-93.93834701 68.49866789 -97.87584417 70.99866853 -101.8125 73.5 C-102.72966797 74.08257568 -103.64683594 74.66515137 -104.59179688 75.26538086 C-110.11390997 78.77959115 -115.58635845 82.35168792 -121.015625 86.0078125 C-126.27899316 89.52131742 -131.60011416 92.94518991 -136.92578125 96.36328125 C-139.42799048 97.97188588 -141.90514992 99.60646315 -144.35546875 101.29296875 C-145.31066406 101.93878906 -146.26585937 102.58460938 -147.25 103.25 C-148.05953125 103.81203125 -148.8690625 104.3740625 -149.703125 104.953125 C-152.57829431 106.26357632 -154.03712125 105.96038139 -157 105 C-158 104 -158 104 -158.4453125 100.7109375 C-158 97 -158 97 -155.4296875 94.6640625 C-154.25963192 93.95913472 -153.07329427 93.28077745 -151.875 92.625 C-150.59207515 91.86390925 -149.30953425 91.10217099 -148.02734375 90.33984375 C-147.36331543 89.95683105 -146.69928711 89.57381836 -146.01513672 89.17919922 C-142.76228488 87.27572522 -139.60355813 85.23091497 -136.4375 83.1875 C-135.58164307 82.64633545 -135.58164307 82.64633545 -134.70849609 82.09423828 C-132.09472629 80.42882058 -129.66901339 78.7242572 -127.28515625 76.73828125 C-125 75 -125 75 -122 75 C-122 74.34 -122 73.68 -122 73 C-120.27473958 72.0234375 -118.54947917 71.046875 -116.82421875 70.0703125 C-115.18017711 69.10571419 -113.58599412 68.05732941 -112 67 C-111.01 67 -110.02 67 -109 67 C-108.09592724 64.28778173 -107.86278679 62.64446801 -107.82641602 59.8515625 C-107.81292618 59.02060059 -107.79943634 58.18963867 -107.78553772 57.33349609 C-107.77509933 56.43969238 -107.76466095 55.54588867 -107.75390625 54.625 C-107.72097943 52.73437017 -107.6877676 50.84374528 -107.65429688 48.953125 C-107.60680504 45.97073642 -107.56234732 42.98836955 -107.52319336 40.00585938 C-107.4835493 37.12869799 -107.43199939 34.25194017 -107.37890625 31.375 C-107.3704921 30.48119629 -107.36207794 29.58739258 -107.35340881 28.66650391 C-107.33676682 27.83554199 -107.32012482 27.00458008 -107.30297852 26.1484375 C-107.29267105 25.41802246 -107.28236359 24.68760742 -107.27174377 23.93505859 C-107 22 -107 22 -105 19 C-102.48170819 18.68289029 -100.21310489 18.55586247 -97.69140625 18.56640625 C-96.96888168 18.5611644 -96.24635712 18.55592255 -95.50193787 18.55052185 C-93.9729033 18.54409513 -92.44381933 18.54544712 -90.91479492 18.55395508 C-88.57446154 18.56245655 -86.23657577 18.53373245 -83.89648438 18.50195312 C-82.41145907 18.50034081 -80.92642943 18.50091923 -79.44140625 18.50390625 C-78.7413295 18.49267227 -78.04125275 18.48143829 -77.31996155 18.46986389 C-74.15876334 18.5152078 -72.43429878 18.60420752 -70.05322266 20.77416992 C-68.94069226 23.12533812 -68.64837044 24.52829952 -68.70703125 27.109375 C-68.71669922 27.86347656 -68.72636719 28.61757813 -68.73632812 29.39453125 C-68.76146484 30.17183594 -68.78660156 30.94914062 -68.8125 31.75 C-68.83280273 32.93916016 -68.83280273 32.93916016 -68.85351562 34.15234375 C-68.88874777 36.10185564 -68.94255179 38.05101626 -69 40 C-64.45037435 36.96894369 -59.90224856 33.93570044 -55.359375 30.89453125 C-53.82291667 29.8671875 -52.28645833 28.83984375 -50.75 27.8125 C-49.97398437 27.29236328 -49.19796875 26.77222656 -48.3984375 26.23632812 C-37.56704981 19 -37.56704981 19 -35 19 C-35 18.34 -35 17.68 -35 17 C-33.49047852 15.85839844 -33.49047852 15.85839844 -31.37890625 14.609375 C-30.22914307 13.91968628 -30.22914307 13.91968628 -29.05615234 13.21606445 C-28.23324707 12.73226318 -27.4103418 12.24846191 -26.5625 11.75 C-20.88201228 8.37365251 -15.31590396 5.0269909 -10.1171875 0.92578125 C-6.70170982 -0.56770253 -3.59830887 -0.70219658 0 0 Z M-97 28 C-97.79139059 31.95695297 -98.11797482 34.9949101 -98.09765625 38.95703125 C-98.09443359 40.06884766 -98.09121094 41.18066406 -98.08789062 42.32617188 C-98.07951172 43.47666016 -98.07113281 44.62714844 -98.0625 45.8125 C-98.05798828 46.98232422 -98.05347656 48.15214844 -98.04882812 49.35742188 C-98.0370693 52.23833358 -98.02063426 55.11914044 -98 58 C-93.84201816 56.3918576 -90.06006599 54.42816348 -86.25 52.125 C-85.66089844 51.78597656 -85.07179688 51.44695312 -84.46484375 51.09765625 C-81.20010884 49.22392163 -81.20010884 49.22392163 -79.31958008 46.11376953 C-78.7963287 42.65287542 -79.17109102 39.22136852 -79.4375 35.75 C-79.623125 33.1925 -79.80875 30.635 -80 28 C-85.61 28 -91.22 28 -97 28 Z " fill="#129DE2" transform="translate(227,29)"/>
<path d="M0 0 C0.77214844 0.00515625 1.54429687 0.0103125 2.33984375 0.015625 C5.62850625 0.06122171 8.36273337 0.20424446 11.5 1.25 C13.24757586 3.61608351 14.85907813 5.96315368 16.4375 8.4375 C16.86740234 9.09814453 17.29730469 9.75878906 17.74023438 10.43945312 C18.59013429 11.74590019 19.43704086 13.05430002 20.28076172 14.36474609 C21.99280494 17.01200236 23.74468405 19.63128039 25.5 22.25 C26.13615234 21.10724609 26.13615234 21.10724609 26.78515625 19.94140625 C36.57061901 2.7146905 36.57061901 2.7146905 41.5 0.25 C44.32428021 0.125442 47.11310525 0.06483228 49.9375 0.0625 C50.71416016 0.05025391 51.49082031 0.03800781 52.29101562 0.02539062 C56.21232309 0.01525805 58.16618745 0.0274583 61.5 2.25 C61.88095093 4.94470215 61.88095093 4.94470215 61.88818359 8.41210938 C61.89764008 9.70685181 61.90709656 11.00159424 61.9168396 12.33557129 C61.91147008 13.75496729 61.90531718 15.17436051 61.8984375 16.59375 C61.90045754 18.04341783 61.90336839 19.49308468 61.90713501 20.94274902 C61.91156171 23.98260157 61.90511652 27.02218986 61.89111328 30.06201172 C61.87402082 33.96306134 61.88386021 37.86349184 61.90183067 41.76451874 C61.91265941 44.75849085 61.90922645 47.75231562 61.9014473 50.74629211 C61.89944275 52.18484062 61.90191349 53.62340242 61.90888596 55.06193542 C61.91648459 57.07058464 61.90285399 59.07928061 61.88818359 61.08789062 C61.88579681 62.23213501 61.88341003 63.37637939 61.88095093 64.55529785 C61.75523712 65.44454956 61.62952332 66.33380127 61.5 67.25 C57.32856144 70.03095904 53.90037332 69.58070347 49 69.5625 C48.13246094 69.57861328 47.26492188 69.59472656 46.37109375 69.61132812 C45.53707031 69.61197266 44.70304687 69.61261719 43.84375 69.61328125 C43.08255859 69.61626221 42.32136719 69.61924316 41.53710938 69.62231445 C38.90751154 69.14171322 38.05150085 68.41062195 36.5 66.25 C36.06762695 64.1652832 36.06762695 64.1652832 35.98828125 61.80078125 C35.95283203 60.95322266 35.91738281 60.10566406 35.88085938 59.23242188 C35.84702148 57.91081055 35.84702148 57.91081055 35.8125 56.5625 C35.77833984 55.66982422 35.74417969 54.77714844 35.70898438 53.85742188 C35.62654352 51.65507329 35.55738449 49.45312062 35.5 47.25 C35.066875 48.054375 34.63375 48.85875 34.1875 49.6875 C32.5 52.25 32.5 52.25 29.5 53.25 C24.19547577 53.59222737 20.77521597 53.77076609 16.5 50.25 C15.79470445 48.93669105 15.12149773 47.60497704 14.5 46.25 C14.52094727 46.80461914 14.54189453 47.35923828 14.56347656 47.93066406 C14.64683548 50.45359023 14.69871868 52.97622649 14.75 55.5 C14.80027344 56.80904297 14.80027344 56.80904297 14.8515625 58.14453125 C14.90908746 61.91241599 14.91678871 64.49105416 13.08203125 67.83203125 C9.10588472 70.0156034 5.3978175 69.79122831 0.9375 69.6875 C0.07447266 69.69458984 -0.78855469 69.70167969 -1.67773438 69.70898438 C-7.94663376 69.64566216 -7.94663376 69.64566216 -10.10206604 68.10450745 C-12.10568822 65.44649043 -11.88103171 63.48035107 -11.88818359 60.17382812 C-11.89764008 58.92243042 -11.90709656 57.67103271 -11.9168396 56.38171387 C-11.9114699 55.01488936 -11.90531695 53.64806774 -11.8984375 52.28125 C-11.90045843 50.88024748 -11.90337002 49.47924599 -11.90713501 48.07824707 C-11.91155753 45.14272033 -11.90512996 42.20746754 -11.89111328 39.27197266 C-11.87402101 35.50892584 -11.88386264 31.74652089 -11.90183067 27.98349762 C-11.91267069 25.09071007 -11.90922126 22.19807473 -11.9014473 19.30528259 C-11.89944587 17.91780013 -11.90190258 16.53030386 -11.90888596 15.14283752 C-11.91650305 13.20395166 -11.90283494 11.26501735 -11.88818359 9.32617188 C-11.88579681 8.22269409 -11.88341003 7.11921631 -11.88095093 5.9822998 C-11.5 3.25 -11.5 3.25 -10.21987915 1.39074707 C-7.16254438 -0.63709639 -3.54048448 -0.09457054 0 0 Z M36.5 43.25 C37.5 45.25 37.5 45.25 37.5 45.25 Z " fill="#04A1EE" transform="translate(334.5,150.75)"/>
<path d="M0 0 C0.75539062 -0.01160156 1.51078125 -0.02320313 2.2890625 -0.03515625 C6.87126411 -0.01112372 10.08605568 0.20544044 13.625 3.375 C15.76652752 6.46465038 17.5757234 9.70213453 19.375 13 C20.34798319 14.74273229 21.32189166 16.48494842 22.296875 18.2265625 C22.7206543 18.99822754 23.14443359 19.76989258 23.58105469 20.56494141 C24.49650527 22.33292406 24.49650527 22.33292406 25.625 23.375 C25.61976318 22.81514404 25.61452637 22.25528809 25.60913086 21.6784668 C25.58833309 19.13982263 25.57533096 16.60119641 25.5625 14.0625 C25.55412109 13.18142578 25.54574219 12.30035156 25.53710938 11.39257812 C25.53388672 10.54501953 25.53066406 9.69746094 25.52734375 8.82421875 C25.52210693 8.04393311 25.51687012 7.26364746 25.51147461 6.4597168 C25.625 4.375 25.625 4.375 26.625 1.375 C30.14656358 -0.38578179 34.18391951 0.190354 38.0625 0.1875 C38.93455078 0.17525391 39.80660156 0.16300781 40.70507812 0.15039062 C41.96288086 0.14749023 41.96288086 0.14749023 43.24609375 0.14453125 C44.0136499 0.14042236 44.78120605 0.13631348 45.57202148 0.13208008 C47.625 0.375 47.625 0.375 50.625 2.375 C51.1308136 4.32852173 51.1308136 4.32852173 51.30200195 6.73681641 C51.39839462 8.08637421 51.39839462 8.08637421 51.49673462 9.4631958 C51.71885106 14.50555083 51.78773585 19.53900858 51.79296875 24.5859375 C51.79796135 26.28177475 51.79796135 26.28177475 51.80305481 28.01187134 C51.80808657 30.3833984 51.8104643 32.75493245 51.81030273 35.12646484 C51.81250619 38.76020738 51.8307477 42.39365411 51.84960938 46.02734375 C51.85254066 48.33854063 51.85452723 50.64973895 51.85546875 52.9609375 C51.86265427 54.04635834 51.86983978 55.13177917 51.87724304 56.25009155 C51.87416641 57.25859161 51.87108978 58.26709167 51.86791992 59.30615234 C51.86934494 60.19088226 51.87076996 61.07561218 51.87223816 61.9871521 C51.60399914 64.57782818 51.01757943 66.18453016 49.625 68.375 C46.38161813 69.99669093 42.87306679 69.68455934 39.3125 69.75 C38.17264648 69.80607422 38.17264648 69.80607422 37.00976562 69.86328125 C33.02239274 69.92563808 31.18284379 69.79378474 27.9140625 67.33984375 C25.21260027 63.84085087 22.71030881 60.27466326 20.3125 56.5625 C19.6309082 55.52319336 19.6309082 55.52319336 18.93554688 54.46289062 C17.82668524 52.7704176 16.72508562 51.07319042 15.625 49.375 C15.57601562 50.41140625 15.52703125 51.4478125 15.4765625 52.515625 C15.40150403 53.88544208 15.32595753 55.25523248 15.25 56.625 C15.20359375 57.64787109 15.20359375 57.64787109 15.15625 58.69140625 C14.94403419 62.33444435 14.72521466 65.32288949 12.625 68.375 C9.09941767 70.13779117 5.07104409 69.60213881 1.1875 69.625 C0.31544922 69.645625 -0.55660156 69.66625 -1.45507812 69.6875 C-2.29361328 69.69265625 -3.13214844 69.6978125 -3.99609375 69.703125 C-4.7636499 69.7124707 -5.53120605 69.72181641 -6.32202148 69.73144531 C-9.02277262 69.26253145 -9.73147041 68.56191747 -11.375 66.375 C-11.75595093 63.6427002 -11.75595093 63.6427002 -11.76318359 60.29882812 C-11.77264008 59.04743042 -11.78209656 57.79603271 -11.7918396 56.50671387 C-11.7864699 55.13988936 -11.78031695 53.77306774 -11.7734375 52.40625 C-11.77545843 51.00524748 -11.77837002 49.60424599 -11.78213501 48.20324707 C-11.78655753 45.26772033 -11.78012996 42.33246754 -11.76611328 39.39697266 C-11.74902101 35.63392584 -11.75886264 31.87152089 -11.77683067 28.10849762 C-11.78767069 25.21571007 -11.78422126 22.32307473 -11.7764473 19.43028259 C-11.77444587 18.04280013 -11.77690258 16.65530386 -11.78388596 15.26783752 C-11.79150305 13.32895166 -11.77783494 11.39001735 -11.76318359 9.45117188 C-11.76079681 8.34769409 -11.75841003 7.24421631 -11.75595093 6.1072998 C-11.375 3.375 -11.375 3.375 -10.09048462 1.5201416 C-7.05972202 -0.50299069 -3.51783066 -0.05348053 0 0 Z " fill="#05A1EE" transform="translate(140.375,150.625)"/>
<path d="M0 0 C1.2674707 -0.00676758 1.2674707 -0.00676758 2.56054688 -0.01367188 C3.48480469 -0.01882812 4.4090625 -0.02398437 5.36132812 -0.02929688 C6.32425781 -0.01382813 7.2871875 0.00164062 8.27929688 0.01757812 C9.24222656 0.00210938 10.20515625 -0.01335937 11.19726562 -0.02929688 C12.58365234 -0.0215625 12.58365234 -0.0215625 13.99804688 -0.01367188 C15.26551758 -0.0069043 15.26551758 -0.0069043 16.55859375 0 C18.77929688 0.51757812 18.77929688 0.51757812 20.54614258 2.40332031 C21.94760485 4.80614417 22.26383954 6.50735831 22.46679688 9.26757812 C22.56541016 10.46640625 22.56541016 10.46640625 22.66601562 11.68945312 C22.70339844 12.29273438 22.74078125 12.89601562 22.77929688 13.51757812 C23.16601562 12.74671875 23.55273438 11.97585937 23.95117188 11.18164062 C24.47195312 10.17875 24.99273437 9.17585937 25.52929688 8.14257812 C26.03976563 7.14484375 26.55023438 6.14710938 27.07617188 5.11914062 C28.92756236 2.2910992 29.70476469 1.70024615 32.77929688 0.51757812 C36.62319007 0.09826465 40.47736143 0.19321675 44.34179688 0.20507812 C45.39560547 0.18896484 46.44941406 0.17285156 47.53515625 0.15625 C49.05012695 0.1552832 49.05012695 0.1552832 50.59570312 0.15429688 C51.51810791 0.15131592 52.4405127 0.14833496 53.39086914 0.14526367 C55.77929688 0.51757812 55.77929688 0.51757812 57.62280273 1.90356445 C58.77929688 3.51757812 58.77929688 3.51757812 58.46679688 5.70507812 C58.12648438 6.60226563 58.12648438 6.60226563 57.77929688 7.51757812 C57.11929688 7.51757812 56.45929688 7.51757812 55.77929688 7.51757812 C55.55371094 8.16855469 55.328125 8.81953125 55.09570312 9.49023438 C52.99095998 14.33051906 50.11050465 18.71693591 47.32421875 23.19140625 C43.68336561 28.95727674 43.68336561 28.95727674 42.77929688 35.51757812 C44.5188903 39.21280309 46.7114452 42.55657037 48.96679688 45.95507812 C50.14867416 47.78653683 51.32968245 49.61855664 52.50976562 51.45117188 C53.3532959 52.75090942 53.3532959 52.75090942 54.21386719 54.0769043 C59.81736279 62.81335869 59.81736279 62.81335869 59.65429688 65.83007812 C58.77929688 67.51757812 58.77929688 67.51757812 56.77929688 69.51757812 C53.05120676 70.02680245 49.28819044 69.9343743 45.52929688 69.95507812 C44.49160156 69.98794922 43.45390625 70.02082031 42.38476562 70.0546875 C33.79663819 70.11501279 33.79663819 70.11501279 30.22460938 67.32226562 C27.91253268 64.67039491 26.35127929 62.39695109 24.90429688 59.20507812 C24.28941406 57.88056641 24.28941406 57.88056641 23.66210938 56.52929688 C23.37078125 55.86542969 23.07945312 55.2015625 22.77929688 54.51757812 C22.66972656 55.4328125 22.56015625 56.34804687 22.44726562 57.29101562 C22.20943359 59.07378906 22.20943359 59.07378906 21.96679688 60.89257812 C21.81597656 62.0759375 21.66515625 63.25929687 21.50976562 64.47851562 C20.77929688 67.51757812 20.77929688 67.51757812 17.77929688 69.51757812 C14.64855938 69.96758146 11.50153035 69.88785858 8.34179688 69.89257812 C7.05305664 69.92931641 7.05305664 69.92931641 5.73828125 69.96679688 C4.90748047 69.97066406 4.07667969 69.97453125 3.22070312 69.97851562 C2.46474854 69.9867334 1.70879395 69.99495117 0.92993164 70.00341797 C-2.14707762 69.30830519 -3.25079822 67.95176185 -5.22070312 65.51757812 C-5.72190857 62.74768066 -5.72190857 62.74768066 -5.72241211 59.52734375 C-5.73179306 58.31929077 -5.74117401 57.11123779 -5.75083923 55.86657715 C-5.73960526 54.56546997 -5.72837128 53.26436279 -5.71679688 51.92382812 C-5.71695191 50.57149172 -5.71844165 49.21915487 -5.72120667 47.86682129 C-5.72258979 45.03552557 -5.7100483 42.20473697 -5.68725586 39.37353516 C-5.65887058 35.74846081 -5.66160926 32.12422879 -5.67434597 28.4990921 C-5.68130855 25.70746698 -5.67350744 22.91603578 -5.66108894 20.12443542 C-5.65439078 18.13916116 -5.65871344 16.15385961 -5.66319275 14.1685791 C-5.65050858 12.96052612 -5.6378244 11.75247314 -5.62475586 10.5078125 C-5.61935287 9.44510132 -5.61394989 8.38239014 -5.60838318 7.28747559 C-5.07465271 3.47407671 -3.90370956 0.90983556 0 0 Z " fill="#049FEC" transform="translate(205.220703125,150.482421875)"/>
<path d="M0 0 C8.16028096 4.78452956 13.63502563 11.78584364 16.375 20.875 C18.19835973 30.31468526 17.63509409 39.47740764 13 48 C6.31514575 57.35879595 -1.67360628 63.0223757 -13 65 C-22.318953 65.75152847 -30.35550553 63.15345631 -37.9609375 57.73828125 C-43.80984491 52.75214371 -48.52715714 45.59882643 -50 38 C-50.68843748 26.62754238 -50.22109344 17.08646314 -42.87109375 7.921875 C-31.64581735 -3.608054 -14.78724935 -7.11414058 0 0 Z " fill="#05A0ED" transform="translate(305,153)"/>
<path d="M0 0 C1.63388672 -0.04930664 1.63388672 -0.04930664 3.30078125 -0.09960938 C4.35394531 -0.10669922 5.40710938 -0.11378906 6.4921875 -0.12109375 C7.45237793 -0.13454834 8.41256836 -0.14800293 9.40185547 -0.16186523 C13.27630475 0.69090265 14.67470904 2.36067305 17.125 5.4375 C18.59130859 8.73291016 18.59130859 8.73291016 19.7734375 12.4765625 C20.1009626 13.48856468 20.1009626 13.48856468 20.43510437 14.52101135 C21.13690404 16.69744393 21.81820029 18.87972979 22.5 21.0625 C23.22038656 23.30924894 23.9464392 25.55410966 24.673172 27.79881287 C25.15263259 29.28003423 25.63049728 30.76177317 26.10673523 32.24403381 C28.45390495 39.52907886 31.07941497 46.69706719 33.78515625 53.85546875 C37.61450411 64.09311302 37.61450411 64.09311302 36.125 68.4375 C32.49090202 70.25454899 28.25162452 69.70790718 24.25 69.75 C22.88294922 69.79350586 22.88294922 69.79350586 21.48828125 69.83789062 C14.79905191 69.90155093 14.79905191 69.90155093 11.5546875 67.66796875 C10.125 65.4375 10.125 65.4375 9.125 61.4375 C3.185 61.4375 -2.755 61.4375 -8.875 61.4375 C-9.865 63.7475 -10.855 66.0575 -11.875 68.4375 C-16.05087078 69.82945693 -20.00098185 69.66150286 -24.375 69.6875 C-25.24253906 69.708125 -26.11007812 69.72875 -27.00390625 69.75 C-27.83792969 69.75515625 -28.67195313 69.7603125 -29.53125 69.765625 C-30.29244141 69.7749707 -31.05363281 69.78431641 -31.83789062 69.79394531 C-33.875 69.4375 -33.875 69.4375 -35.70898438 68.29199219 C-36.875 66.4375 -36.875 66.4375 -36.79223633 63.92089844 C-35.51836079 59.08308738 -33.88720358 54.41040687 -32.19921875 49.703125 C-31.83278763 48.66992126 -31.46635651 47.63671753 -31.08882141 46.57220459 C-30.31360077 44.38942204 -29.53597343 42.20749295 -28.75610352 40.02636719 C-27.57225221 36.71477987 -26.3958273 33.40063039 -25.22070312 30.0859375 C-24.46397945 27.95817759 -23.70683152 25.8305685 -22.94921875 23.703125 C-22.6011467 22.72361877 -22.25307465 21.74411255 -21.89445496 20.73492432 C-20.90234982 17.9635974 -19.89362283 15.19918128 -18.875 12.4375 C-18.53256256 11.49579956 -18.19012512 10.55409912 -17.83731079 9.5838623 C-17.49759247 8.68445923 -17.15787415 7.78505615 -16.80786133 6.85839844 C-16.50817947 6.05513123 -16.20849762 5.25186401 -15.8997345 4.42425537 C-12.85834158 -1.4723976 -5.66640406 0.02996336 0 0 Z M0.125 28.4375 C-1.36 33.8825 -1.36 33.8825 -2.875 39.4375 C-0.895 39.4375 1.085 39.4375 3.125 39.4375 C2.465 35.8075 1.805 32.1775 1.125 28.4375 C0.795 28.4375 0.465 28.4375 0.125 28.4375 Z " fill="#059EEA" transform="translate(436.875,150.5625)"/>
<path d="M0 0 C0.87591797 0.00515625 1.75183594 0.0103125 2.65429688 0.015625 C4.01458008 0.0465625 4.01458008 0.0465625 5.40234375 0.078125 C6.76842773 0.08585938 6.76842773 0.08585938 8.16210938 0.09375 C14.87413758 0.17288961 14.87413758 0.17288961 18.33984375 1.328125 C19.25019879 4.05919011 19.46200088 5.62705739 19.45336914 8.43237305 C19.45329361 9.25299728 19.45321808 10.07362152 19.45314026 10.91911316 C19.44797897 11.80045425 19.44281769 12.68179535 19.4375 13.58984375 C19.43608505 14.49563675 19.4346701 15.40142975 19.43321228 16.33467102 C19.42761376 19.22835591 19.41506156 22.12196349 19.40234375 25.015625 C19.39732856 26.97721242 19.39276568 28.93880106 19.38867188 30.90039062 C19.37764482 35.70966521 19.36038122 40.518882 19.33984375 45.328125 C20.4522644 45.34214355 20.4522644 45.34214355 21.5871582 45.35644531 C24.94290089 45.41008251 28.29723937 45.49374293 31.65234375 45.578125 C32.81958984 45.59230469 33.98683594 45.60648438 35.18945312 45.62109375 C36.30771484 45.65332031 37.42597656 45.68554688 38.578125 45.71875 C39.60977783 45.73969727 40.64143066 45.76064453 41.7043457 45.78222656 C44.33984375 46.328125 44.33984375 46.328125 46.1887207 48.11376953 C47.42708609 50.49594855 47.66996923 51.71658363 47.51953125 54.3671875 C47.47828125 55.11226562 47.43703125 55.85734375 47.39453125 56.625 C47.30558594 57.77742188 47.30558594 57.77742188 47.21484375 58.953125 C47.17875 59.72914063 47.14265625 60.50515625 47.10546875 61.3046875 C46.95703125 63.5546875 46.95703125 63.5546875 46.33984375 67.328125 C43.12826791 69.46917556 42.24871966 69.58565341 38.54882812 69.61865234 C37.57772095 69.63141205 36.60661377 69.64417175 35.6060791 69.65731812 C34.55915894 69.65954376 33.51223877 69.66176941 32.43359375 69.6640625 C31.35734741 69.6707193 30.28110107 69.6773761 29.17224121 69.68423462 C26.89593212 69.69436319 24.61959332 69.69905158 22.34326172 69.69873047 C18.85334671 69.70310806 15.36469153 69.73943907 11.875 69.77734375 C9.66536892 69.78321084 7.45573182 69.78718095 5.24609375 69.7890625 C3.6757135 69.81061905 3.6757135 69.81061905 2.0736084 69.83261108 C1.10250122 69.82645782 0.13139404 69.82030457 -0.86914062 69.81396484 C-2.15129456 69.8182399 -2.15129456 69.8182399 -3.45935059 69.82260132 C-5.66015625 69.328125 -5.66015625 69.328125 -7.43434143 67.67887878 C-8.98902189 64.69745703 -9.0474545 62.59010068 -9.06420898 59.23022461 C-9.07689316 57.99892319 -9.08957733 56.76762177 -9.10264587 55.49900818 C-9.10059473 54.15949332 -9.09760695 52.81997962 -9.09375 51.48046875 C-9.09831208 50.10331464 -9.10361773 48.72616281 -9.1096344 47.34901428 C-9.11855964 44.46655002 -9.11614815 41.58436293 -9.10620117 38.7019043 C-9.09469351 35.00712974 -9.1149518 31.31330836 -9.14411831 27.61865902 C-9.16245528 24.77647323 -9.16219331 21.93451715 -9.15648079 19.09228706 C-9.15632736 17.72991152 -9.16238948 16.36752062 -9.17477226 15.00520134 C-9.18963542 13.1023977 -9.17639941 11.19943704 -9.16186523 9.29663086 C-9.16169907 8.21393417 -9.1615329 7.13123749 -9.16136169 6.01573181 C-8.66015625 3.328125 -8.66015625 3.328125 -6.76895142 1.47737122 C-4.3066771 0.13548677 -2.79120395 -0.03269511 0 0 Z " fill="#029BE7" transform="translate(40.66015625,150.671875)"/>
<path d="M0 0 C0.95455078 -0.02449219 1.90910156 -0.04898438 2.89257812 -0.07421875 C3.81361328 -0.07808594 4.73464844 -0.08195313 5.68359375 -0.0859375 C6.5233374 -0.09415527 7.36308105 -0.10237305 8.22827148 -0.11083984 C11.44827649 0.55936306 12.51563077 1.82790319 14.5625 4.375 C15.05697632 7.15162659 15.05697632 7.15162659 15.04833984 10.38110352 C15.0544931 11.59238419 15.06064636 12.80366486 15.06698608 14.051651 C15.05261505 15.35589523 15.03824402 16.66013947 15.0234375 18.00390625 C15.021052 19.35863571 15.02014798 20.71336851 15.0206604 22.06809998 C15.01753604 24.90360301 15.00099842 27.73859909 14.97412109 30.57397461 C14.94010881 34.20799396 14.93249363 37.84145752 14.93401146 41.47561741 C14.93346762 44.27147219 14.92249886 47.06720555 14.90800858 49.86301994 C14.89855371 51.85443012 14.89508615 53.8458658 14.89169312 55.83729553 C14.87893341 57.04542404 14.86617371 58.25355255 14.85302734 59.49829102 C14.84540375 60.56322281 14.83778015 61.6281546 14.82992554 62.72535706 C14.5625 65.375 14.5625 65.375 12.5625 68.375 C8.26482163 69.80755946 4.12767888 69.63970086 -0.375 69.6875 C-1.7352832 69.73100586 -1.7352832 69.73100586 -3.12304688 69.77539062 C-4.43692383 69.78795898 -4.43692383 69.78795898 -5.77734375 69.80078125 C-6.57519287 69.81536377 -7.37304199 69.82994629 -8.19506836 69.8449707 C-11.35963098 69.18173902 -12.43217904 67.88339579 -14.4375 65.375 C-14.90074158 62.51571655 -14.90074158 62.51571655 -14.84741211 59.16943359 C-14.83677231 57.91488373 -14.82613251 56.66033386 -14.81517029 55.36776733 C-14.78260104 54.00296961 -14.74913754 52.63819298 -14.71484375 51.2734375 C-14.69254649 49.87149091 -14.67161572 48.46952197 -14.6519928 47.0675354 C-14.60646787 44.1334861 -14.54684697 41.20016557 -14.47680664 38.26660156 C-14.38773161 34.50272306 -14.33001406 30.73915841 -14.28229427 26.97455406 C-14.24283679 24.08160771 -14.18878133 21.18908091 -14.13006783 18.29646683 C-14.10329263 16.90823221 -14.0806396 15.51991186 -14.06214714 14.13154221 C-14.03377871 12.19468583 -13.98408466 10.25817693 -13.93334961 8.32177734 C-13.91018173 7.21909515 -13.88701385 6.11641296 -13.86314392 4.98031616 C-13.72268143 4.12056183 -13.58221893 3.2608075 -13.4375 2.375 C-9.07931534 -0.53045644 -5.12712547 0.00689593 0 0 Z " fill="#03A1EF" transform="translate(106.4375,150.625)"/>
<path d="M0 0 C4.57830923 1.46116252 7.71626781 4.6937401 9.9375 8.9375 C10.01396398 12.96824414 8.99418723 15.17530895 6.35546875 18.078125 C5.29140832 19.12768151 4.21411371 20.16396456 3.125 21.1875 C2.59068359 21.71601563 2.05636719 22.24453125 1.50585938 22.7890625 C-1.18925233 25.40129869 -3.66355546 27.36751133 -7.0625 28.9375 C-7.206875 29.55625 -7.35125 30.175 -7.5 30.8125 C-8.40124664 34.21720953 -10.08944528 35.11726241 -13.0625 36.9375 C-16.42122826 38.23620826 -19.44623815 39.04131613 -23.0625 38.9375 C-25.91919173 37.48379888 -27.48445474 35.70364883 -29.0625 32.9375 C-29.875 30.0625 -29.875 30.0625 -29.0625 26.9375 C-27.01836194 23.96094809 -24.62590104 21.4708024 -22.0625 18.9375 C-21.47597656 18.31746094 -20.88945312 17.69742188 -20.28515625 17.05859375 C-17.16944816 14.01353664 -15.86127775 12.96457721 -11.375 12.8125 C-7.84709224 14.01065735 -6.16743252 14.86780674 -4.0625 17.9375 C-4.3125 20.1875 -4.3125 20.1875 -5.0625 21.9375 C-0.39652219 19.86373208 3.09861562 17.19582657 5.9375 12.9375 C5.7300099 10.17096538 5.23471306 8.40678377 3.75 6.0625 C1.89458776 4.69813663 1.89458776 4.69813663 -0.875 4.875 C-4.6094905 6.11983017 -6.2209173 7.75289611 -8.765625 10.66015625 C-10.0625 11.9375 -10.0625 11.9375 -12.0625 11.9375 C-11.35002281 7.2702581 -8.70166764 5.27574517 -5.1796875 2.38671875 C-3.0625 0.9375 -3.0625 0.9375 0 0 Z " fill="#06A1EE" transform="translate(297.0625,162.0625)"/>
<path d="M0 0 C0.99 0.33 1.98 0.66 3 1 C2.34 1.33 1.68 1.66 1 2 C1 2.66 1 3.32 1 4 C-0.5378418 5.18579102 -0.5378418 5.18579102 -2.69921875 6.50390625 C-3.4895752 6.99262207 -4.27993164 7.48133789 -5.09423828 7.98486328 C-6.37790283 8.76579346 -6.37790283 8.76579346 -7.6875 9.5625 C-13.43952576 13.11881998 -19.11586495 16.7019344 -24.625 20.625 C-30.1159904 24.4981093 -35.79584098 27.91303956 -41.65087891 31.19970703 C-46.74287334 34.10324303 -51.39835888 37.43941837 -56.11230469 40.91870117 C-60.88272463 44.35696884 -65.84401602 47.48293815 -70.8125 50.625 C-71.88910889 51.31013672 -72.96571777 51.99527344 -74.07495117 52.70117188 C-77.38108058 54.80430147 -80.69019151 56.90266621 -84 59 C-87.93834701 61.49866789 -91.87584417 63.99866853 -95.8125 66.5 C-96.72966797 67.08257568 -97.64683594 67.66515137 -98.59179688 68.26538086 C-104.11390997 71.77959115 -109.58635845 75.35168792 -115.015625 79.0078125 C-120.27860847 82.52106063 -125.59974058 85.94443801 -130.921875 89.3671875 C-133.42531785 90.97754167 -135.91597754 92.60358065 -138.390625 94.2578125 C-139.35484375 94.89460938 -140.3190625 95.53140625 -141.3125 96.1875 C-142.54419922 97.01314453 -142.54419922 97.01314453 -143.80078125 97.85546875 C-146 99 -146 99 -150 99 C-150 98.01 -150 97.02 -150 96 C-148.48019531 95.39671875 -148.48019531 95.39671875 -146.9296875 94.78125 C-143.03607244 93.10892963 -139.6006388 90.90635706 -136.125 88.5 C-134.7923667 87.59532213 -133.45900681 86.69171382 -132.125 85.7890625 C-131.44179687 85.32532227 -130.75859375 84.86158203 -130.0546875 84.38378906 C-126.77155279 82.17266649 -123.45080624 80.02121191 -120.125 77.875 C-119.09584473 77.2099646 -119.09584473 77.2099646 -118.04589844 76.53149414 C-113.66861213 73.70795874 -109.28119731 70.9004814 -104.890625 68.09765625 C-91.62428115 59.65770554 -91.62428115 59.65770554 -78.5 51 C-72.12921125 46.70717802 -65.66452939 42.56794487 -59.1875 38.4375 C-48.08011288 31.35375881 -37.04558144 24.16671366 -26.02734375 16.9453125 C-19.40191659 12.60382867 -12.75328333 8.29888713 -6.09765625 4.00390625 C-4.05604675 2.6831677 -2.02318631 1.34879087 0 0 Z " fill="#B9E2E6" transform="translate(221,36)"/>
<path d="M0 0 C3 1 3 1 4 3 C4.10145496 4.92428671 4.13840014 6.85210558 4.14526367 8.77905273 C4.15164352 9.99048447 4.15802338 11.2019162 4.16459656 12.45005798 C4.16570938 13.76462479 4.1668222 15.07919159 4.16796875 16.43359375 C4.17118109 17.79118383 4.17454515 19.14877357 4.17805481 20.50636292 C4.18404667 23.35361534 4.18589465 26.20083741 4.18530273 29.0480957 C4.18520109 32.69780835 4.19885485 36.34732653 4.21607494 39.99699306 C4.22718942 42.80138545 4.22922212 45.60573074 4.22869301 48.4101429 C4.23044843 50.41044173 4.24129256 52.41072586 4.25224304 54.41099548 C4.24916641 55.62557938 4.24608978 56.84016327 4.24291992 58.09155273 C4.24434494 59.16251694 4.24576996 60.23348114 4.24723816 61.3368988 C4 64 4 64 2 67 C-2.29767837 68.43255946 -6.43482112 68.26470086 -10.9375 68.3125 C-12.2977832 68.35600586 -12.2977832 68.35600586 -13.68554688 68.40039062 C-14.99942383 68.41295898 -14.99942383 68.41295898 -16.33984375 68.42578125 C-17.13769287 68.44036377 -17.93554199 68.45494629 -18.75756836 68.4699707 C-21.92063946 67.80705161 -22.99597544 66.50674037 -25 64 C-25.4430542 61.16522217 -25.4430542 61.16522217 -25.36230469 57.85449219 C-25.33182037 55.99301544 -25.33182037 55.99301544 -25.30072021 54.09393311 C-25.25820718 52.74489995 -25.21524834 51.39588077 -25.171875 50.046875 C-25.14196335 48.66257382 -25.11385119 47.27823269 -25.08746338 45.89385986 C-25.01330971 42.2568075 -24.91476 38.62081202 -24.81109619 34.98449707 C-24.70956748 31.27124402 -24.63115113 27.5575106 -24.55078125 23.84375 C-24.38978814 16.56183359 -24.20301588 9.28087888 -24 2 C-23.67 2 -23.34 2 -23 2 C-22.67 22.46 -22.34 42.92 -22 64 C-15.07 64 -8.14 64 -1 64 C-0.67 42.88 -0.34 21.76 0 0 Z " fill="#90D4EB" transform="translate(117,152)"/>
<path d="M0 0 C5.85827525 1.15863666 10.20140737 4.63737503 13.78125 9.33984375 C19.80199993 18.91696803 21.69834674 28.64504593 19.41796875 39.86328125 C16.59998941 48.96059355 10.62967211 56.15272862 2.4375 61 C-6.77659014 65.52706165 -15.75360922 66.24755993 -25.48046875 63.03515625 C-33.33946345 59.80626695 -38.41333421 55.05293854 -43 48 C-43.66 47.01 -44.32 46.02 -45 45 C-44.625 42.3125 -44.625 42.3125 -44 40 C-43.67 40 -43.34 40 -43 40 C-42.79375 40.825 -42.5875 41.65 -42.375 42.5 C-39.71560426 49.26937098 -35.51681137 54.61627102 -29 58 C-20.56413526 61.38313325 -12.53840606 62.54098478 -3.875 59.375 C5.41540761 55.20379658 11.33605881 49.71613343 15.109375 40.203125 C17.47371734 31.69978851 17.04183738 22.15294402 13.265625 14.1484375 C9.8162378 8.29299627 5.72761743 4.54566793 0 1 C0 0.67 0 0.34 0 0 Z " fill="#A6C0C4" transform="translate(302,153)"/>
<path d="M0 0 C0.66 0 1.32 0 2 0 C0.74148967 5.14432314 -0.96060985 8.94494008 -3.875 13.4375 C-9.66947798 21.38023941 -9.66947798 21.38023941 -11.7512207 30.44384766 C-10.9611651 33.13214217 -9.94343091 35.05465693 -8.41796875 37.3984375 C-7.89783203 38.20796875 -7.37769531 39.0175 -6.84179688 39.8515625 C-6.29587891 40.68429688 -5.74996094 41.51703125 -5.1875 42.375 C5.04466193 58.17375425 5.04466193 58.17375425 4.875 61.3125 C4 63 4 63 2 65 C-1.72809012 65.50922433 -5.49110643 65.41679618 -9.25 65.4375 C-10.28769531 65.47037109 -11.32539063 65.50324219 -12.39453125 65.53710938 C-20.98136166 65.59742555 -20.98136166 65.59742555 -24.5859375 62.69921875 C-28.00878757 58.87205144 -31 55.35097302 -31 50 C-30.34 50 -29.68 50 -29 50 C-28.85691406 50.78246094 -28.71382812 51.56492188 -28.56640625 52.37109375 C-27.24304591 56.41326444 -26.30099258 58.22837129 -23 61 C-14.89203525 62.8335829 -6.25942896 62.31075987 2 62 C-0.10931563 56.83719889 -2.54700014 52.02668504 -5.3125 47.1875 C-5.70477783 46.48898926 -6.09705566 45.79047852 -6.5012207 45.07080078 C-9.19344927 40.30504431 -12.062892 35.70066623 -15.19921875 31.2109375 C-16.37610123 27.96159369 -15.23505009 26.17632582 -14 23 C-11.84530763 18.93578968 -9.40455602 15.0456817 -7 11.125 C-6.35804688 10.05507812 -5.71609375 8.98515625 -5.0546875 7.8828125 C-4.43851563 6.8721875 -3.82234375 5.8615625 -3.1875 4.8203125 C-2.62417969 3.89492676 -2.06085938 2.96954102 -1.48046875 2.01611328 C-0.99191406 1.3507959 -0.50335938 0.68547852 0 0 Z " fill="#9FC2CE" transform="translate(260,155)"/>
<path d="M0 0 C0.99 0.33 1.98 0.66 3 1 C3.89827515 8.42022025 4.16022325 15.74070422 4.16796875 23.2109375 C4.17129715 24.34149567 4.17462555 25.47205383 4.17805481 26.63687134 C4.18308657 29.0083984 4.1854643 31.37993245 4.18530273 33.75146484 C4.18750619 37.38520738 4.2057477 41.01865411 4.22460938 44.65234375 C4.22754066 46.96354063 4.22952723 49.27473895 4.23046875 51.5859375 C4.23765427 52.67135834 4.24483978 53.75677917 4.25224304 54.87509155 C4.24916641 55.88359161 4.24608978 56.89209167 4.24291992 57.93115234 C4.24434494 58.81588226 4.24576996 59.70061218 4.24723816 60.6121521 C4 63 4 63 2 67 C-1.3 67 -4.6 67 -8 67 C-8.33 66.34 -8.66 65.68 -9 65 C-6.36 64.67 -3.72 64.34 -1 64 C-0.67 42.88 -0.34 21.76 0 0 Z " fill="#A1DBF1" transform="translate(188,152)"/>
<path d="M0 0 C0.99 0.33 1.98 0.66 3 1 C3.06942772 9.44037418 3.12277414 17.8806296 3.15543652 26.32121849 C3.17111071 30.24028972 3.19238048 34.15916599 3.22631836 38.078125 C3.25885001 41.85824125 3.2768398 45.63816967 3.28463173 49.41841507 C3.29018645 50.86257511 3.30103321 52.30672456 3.31719017 53.7508049 C3.33887964 55.76915257 3.34022467 57.78768817 3.34057617 59.80615234 C3.34723801 60.95642914 3.35389984 62.10670593 3.36076355 63.2918396 C3.18218559 64.632379 3.18218559 64.632379 3 66 C-0.15314785 68.10209857 -0.86103081 68.2434761 -4.44921875 68.1953125 C-5.72055664 68.18564453 -5.72055664 68.18564453 -7.01757812 68.17578125 C-7.89865234 68.15902344 -8.77972656 68.14226562 -9.6875 68.125 C-11.02651367 68.11146484 -11.02651367 68.11146484 -12.39257812 68.09765625 C-14.59532314 68.07409748 -16.79752588 68.04120329 -19 68 C-19.33 67.01 -19.66 66.02 -20 65 C-13.73 64.67 -7.46 64.34 -1 64 C-0.67 42.88 -0.34 21.76 0 0 Z " fill="#87B2C5" transform="translate(393,152)"/>
<path d="M0 0 C0.99 0.33 1.98 0.66 3 1 C4.04907768 5.17246803 4.02084789 8.90358914 3.75 13.1875 C3.68296875 14.41855469 3.6159375 15.64960938 3.546875 16.91796875 C3.36640625 17.93503906 3.1859375 18.95210937 3 20 C-0.24284779 22.16189853 -1.10096221 22.24626755 -4.83862305 22.22705078 C-6.30980843 22.22682419 -6.30980843 22.22682419 -7.81071472 22.22659302 C-8.86704605 22.21627045 -9.92337738 22.20594788 -11.01171875 22.1953125 C-12.09508011 22.1924826 -13.17844147 22.18965271 -14.29463196 22.18673706 C-17.75903308 22.17553091 -21.22317685 22.15042534 -24.6875 22.125 C-27.03450148 22.11497077 -29.381507 22.10584482 -31.72851562 22.09765625 C-37.48576507 22.07559016 -43.24286415 22.04210827 -49 22 C-49.33 21.01 -49.66 20.02 -50 19 C-33.5 18.67 -17 18.34 0 18 C0 12.06 0 6.12 0 0 Z " fill="#A3C9D1" transform="translate(84,198)"/>
<path d="M0 0 C0.99 0.33 1.98 0.66 3 1 C3 21.13 3 41.26 3 62 C2.01 62 1.02 62 0 62 C0 41.54 0 21.08 0 0 Z " fill="#A3ABAB" transform="translate(118,154)"/>
<path d="M0 0 C4.57830923 1.46116252 7.71626781 4.6937401 9.9375 8.9375 C10.0083172 12.95229054 8.98331127 15.18746154 6.390625 18.11328125 C5.33590586 19.17195559 4.26772133 20.21735985 3.1875 21.25 C2.6615625 21.78689453 2.135625 22.32378906 1.59375 22.87695312 C-1.44543794 25.85972049 -3.71446965 27.81817155 -8.0625 27.9375 C-10.89963564 26.55192213 -12.83251704 25.16748296 -15.0625 22.9375 C-15.0625 21.9475 -15.0625 20.9575 -15.0625 19.9375 C-11.1875 21.8125 -11.1875 21.8125 -10.0625 22.9375 C-7.36237653 23.61100769 -7.36237653 23.61100769 -4.0625 22.9375 C-0.02651103 20.14450578 3.21706909 17.01814637 5.9375 12.9375 C5.7300099 10.17096538 5.23471306 8.40678377 3.75 6.0625 C1.89458776 4.69813663 1.89458776 4.69813663 -0.875 4.875 C-4.6094905 6.11983017 -6.2209173 7.75289611 -8.765625 10.66015625 C-10.0625 11.9375 -10.0625 11.9375 -12.0625 11.9375 C-11.35002281 7.2702581 -8.70166764 5.27574517 -5.1796875 2.38671875 C-3.0625 0.9375 -3.0625 0.9375 0 0 Z " fill="#D9F7FF" transform="translate(297.0625,162.0625)"/>
<path d="M0 0 C6.6 0 13.2 0 20 0 C20.495 1.485 20.495 1.485 21 3 C14.73 3.33 8.46 3.66 2 4 C1.01 6.31 0.02 8.62 -1 11 C-3.82411765 11.94137255 -5.52918032 12.11725382 -8.44921875 12.09765625 C-9.29677734 12.09443359 -10.14433594 12.09121094 -11.01757812 12.08789062 C-11.89865234 12.07951172 -12.77972656 12.07113281 -13.6875 12.0625 C-14.58017578 12.05798828 -15.47285156 12.05347656 -16.39257812 12.04882812 C-18.59511987 12.03704983 -20.79752599 12.02060164 -23 12 C-23.66 10.68 -24.32 9.36 -25 8 C-17.74 7.67 -10.48 7.34 -3 7 C-2.01 4.69 -1.02 2.38 0 0 Z " fill="#92BBCD" transform="translate(426,208)"/>
<path d="M0 0 C3.51753901 1.19463589 5.12360982 2.14810935 7.3125 5.125 C7.3125 6.115 7.3125 7.105 7.3125 8.125 C4.84449953 6.97326645 3.26466435 6.07716435 1.3125 4.125 C-1.01265499 3.37157483 -1.01265499 3.37157483 -3.6875 4.125 C-5.39469165 5.76636163 -6.8108198 7.51592139 -8.26171875 9.38671875 C-9.6875 11.125 -9.6875 11.125 -12.0625 12.75 C-13.93279238 14.04533567 -13.93279238 14.04533567 -14.1875 16.5625 C-13.52728403 19.94610687 -12.49460801 21.15243761 -9.6875 23.125 C-5.78348433 23.33602787 -3.80496232 21.51247746 -1 19.0625 C-0.41863281 18.51464844 0.16273438 17.96679688 0.76171875 17.40234375 C2.3125 16.125 2.3125 16.125 4.3125 16.125 C4.00857391 18.96164347 3.31916252 20.11769272 1.375 22.25 C-2.80673855 24.81024809 -6.73444888 26.26719286 -11.6875 26.125 C-14.54419173 24.67129888 -16.10945474 22.89114883 -17.6875 20.125 C-18.5 17.25 -18.5 17.25 -17.6875 14.125 C-15.64336194 11.14844809 -13.25090104 8.6583024 -10.6875 6.125 C-10.10097656 5.50496094 -9.51445312 4.88492188 -8.91015625 4.24609375 C-5.79444816 1.20103664 -4.48627775 0.15207721 0 0 Z " fill="#E6FBFF" transform="translate(285.6875,174.875)"/>
<path d="M0 0 C0 0.99 0 1.98 0 3 C-1.95327967 4.48585458 -3.84258587 5.74176131 -5.9375 7 C-7.22439082 7.79878282 -8.51082924 8.59829483 -9.796875 9.3984375 C-10.48072266 9.81963867 -11.16457031 10.24083984 -11.86914062 10.67480469 C-15.50940802 12.93871067 -19.09443614 15.28721299 -22.6875 17.625 C-24.12218056 18.55111482 -25.55707197 19.4769031 -26.9921875 20.40234375 C-29.46818443 22.00159615 -31.93222913 23.61600883 -34.3828125 25.25390625 C-35.34960938 25.89199219 -36.31640625 26.53007812 -37.3125 27.1875 C-38.54419922 28.01314453 -38.54419922 28.01314453 -39.80078125 28.85546875 C-42 30 -42 30 -46 30 C-46 29.01 -46 28.02 -46 27 C-44.98679687 26.5978125 -43.97359375 26.195625 -42.9296875 25.78125 C-39.03612581 24.10895256 -35.60044936 21.90662771 -32.125 19.5 C-30.81846113 18.61217241 -29.51113675 17.72549994 -28.203125 16.83984375 C-27.52314453 16.37819824 -26.84316406 15.91655273 -26.14257812 15.44091797 C-22.41674784 12.93523767 -18.64644923 10.49875633 -14.875 8.0625 C-14.1648877 7.60230469 -13.45477539 7.14210938 -12.72314453 6.66796875 C-2.40308195 0 -2.40308195 0 0 0 Z " fill="#ABC7D8" transform="translate(117,105)"/>
<path d="M0 0 C6.66492679 3.11759178 12.6087461 6.93073582 18.6875 11.0625 C20.79988478 12.48700735 22.91321081 13.91011967 25.02734375 15.33203125 C25.57987823 15.70403656 26.13241272 16.07604187 26.70169067 16.45932007 C31.06808868 19.39223046 35.46728445 22.27238235 39.87890625 25.13671875 C40.53553757 25.56368546 41.19216888 25.99065216 41.86869812 26.43055725 C44.46820694 28.12043348 47.06782986 29.81003722 49.6734314 31.49050903 C51.48822158 32.66127774 53.29907368 33.8379315 55.109375 35.015625 C56.15061523 35.68883789 57.19185547 36.36205078 58.26464844 37.05566406 C60.8008602 38.85844793 62.8831953 40.72864702 65 43 C61.10869882 42.44702562 58.76391389 41.40291825 55.625 39.0625 C51.32913244 35.94463487 46.98238348 32.93768355 42.5625 30 C41.91563232 29.56961426 41.26876465 29.13922852 40.60229492 28.69580078 C35.11486997 25.05594944 29.56640931 21.51766144 24 18 C17.32428665 13.7651432 10.6618599 9.50978375 4.125 5.0625 C3.32320313 4.51722656 2.52140625 3.97195312 1.6953125 3.41015625 C1.13585937 2.94480469 0.57640625 2.47945312 0 2 C0 1.34 0 0.68 0 0 Z " fill="#9EC2D4" transform="translate(299,47)"/>
<path d="M0 0 C0.66 0.33 1.32 0.66 2 1 C0.51200367 5.51529921 -3.06454725 7.21506939 -6.9375 9.5 C-8.37420084 10.37156735 -9.81037484 11.24400359 -11.24609375 12.1171875 C-12.01034668 12.57834961 -12.77459961 13.03951172 -13.56201172 13.51464844 C-17.90916656 16.16316537 -22.20136909 18.8987021 -26.5 21.625 C-28.13530009 22.65903855 -29.77070672 23.69290865 -31.40625 24.7265625 C-32.60420162 25.48431974 -33.80213268 26.2421095 -35 27 C-35.66 26.01 -36.32 25.02 -37 24 C-36.50298584 23.68885254 -36.00597168 23.37770508 -35.49389648 23.05712891 C-24.55096056 16.19812939 -13.70578927 9.22352986 -3 2 C-2.01 1.34 -1.02 0.68 0 0 Z " fill="#B1DFE8" transform="translate(153,80)"/>
<path d="M0 0 C0.33 0 0.66 0 1 0 C1.33 21.45 1.66 42.9 2 65 C1.01 65 0.02 65 -1 65 C-1.02314367 56.82036512 -1.04092544 48.64074387 -1.05181217 40.46108437 C-1.05703656 36.66317211 -1.06412617 32.8652822 -1.07543945 29.06738281 C-1.08628408 25.40399327 -1.09228019 21.74062527 -1.09487724 18.07722092 C-1.09672864 16.67774491 -1.10034382 15.27827012 -1.10573006 13.87880325 C-1.11296126 11.92263178 -1.11340823 9.96643874 -1.11352539 8.01025391 C-1.115746 6.8955069 -1.11796661 5.78075989 -1.12025452 4.63223267 C-1 2 -1 2 0 0 Z " fill="#0E5C8B" transform="translate(324,152)"/>
<path d="M0 0 C0.66 0.33 1.32 0.66 2 1 C2 15.19 2 29.38 2 44 C1.01 44 0.02 44 -1 44 C-1.02464513 37.8944529 -1.04283371 31.78893449 -1.05493164 25.68334961 C-1.05997288 23.60456844 -1.06680574 21.52579084 -1.07543945 19.44702148 C-1.08751422 16.46597414 -1.09323024 13.48497351 -1.09765625 10.50390625 C-1.10539818 9.10078941 -1.10539818 9.10078941 -1.11329651 7.66932678 C-1.11337204 6.80850998 -1.11344757 5.94769318 -1.11352539 5.06079102 C-1.115746 4.29912125 -1.11796661 3.53745148 -1.12025452 2.75270081 C-1 1 -1 1 0 0 Z " fill="#A4AEB0" transform="translate(58,154)"/>
<path d="M0 0 C0.99 0.99 1.98 1.98 3 3 C2.01 3.495 2.01 3.495 1 4 C1.144375 4.83402344 1.28875 5.66804687 1.4375 6.52734375 C4.30892655 23.93536723 4.30892655 23.93536723 1.5859375 28.23046875 C-2.36785051 30.93600647 -6.08186574 30.42927842 -10.75 30.25 C-11.63816406 30.23195312 -12.52632813 30.21390625 -13.44140625 30.1953125 C-15.62870848 30.14827374 -17.81379816 30.08257009 -20 30 C-20.33 29.01 -20.66 28.02 -21 27 C-10.605 26.505 -10.605 26.505 0 26 C0 17.42 0 8.84 0 0 Z " fill="#B9DBE1" transform="translate(346,190)"/>
<path d="M0 0 C3 3 3 3 3.37231445 5.11303711 C3.3693335 5.9097583 3.36635254 6.70647949 3.36328125 7.52734375 C3.36263672 8.40197266 3.36199219 9.27660156 3.36132812 10.17773438 C3.34521484 11.08845703 3.32910156 11.99917969 3.3125 12.9375 C3.31733398 14.2977832 3.31733398 14.2977832 3.32226562 15.68554688 C3.25997438 23.38134758 3.25997438 23.38134758 1 27 C-2.54012525 28.77006262 -6.60068119 28.22716358 -10.5 28.25 C-11.38042969 28.270625 -12.26085937 28.29125 -13.16796875 28.3125 C-14.00972656 28.31765625 -14.85148438 28.3228125 -15.71875 28.328125 C-16.49154297 28.3374707 -17.26433594 28.34681641 -18.06054688 28.35644531 C-19.02057617 28.18000488 -19.02057617 28.18000488 -20 28 C-20.66 27.01 -21.32 26.02 -22 25 C-14.74 24.67 -7.48 24.34 0 24 C0 16.08 0 8.16 0 0 Z " fill="#A5CCD2" transform="translate(152,192)"/>
<path d="M0 0 C4.80359656 1.67040588 8.90408593 4.25115977 13.1875 6.9375 C13.91130859 7.38029297 14.63511719 7.82308594 15.38085938 8.27929688 C16.07373047 8.71177734 16.76660156 9.14425781 17.48046875 9.58984375 C18.10848389 9.98034912 18.73649902 10.37085449 19.38354492 10.77319336 C21 12 21 12 23 15 C22.6758631 18.32240324 22.39223697 19.60776303 20 22 C15.6526576 21.71198798 12.80748429 19.81043051 9.26171875 17.40234375 C8.19501953 16.68369141 7.12832031 15.96503906 6.02929688 15.22460938 C4.91524465 14.46241485 3.80131386 13.70004281 2.6875 12.9375 C1.55453935 12.17048062 0.42108055 11.40419649 -0.71289062 10.63867188 C-3.48024694 8.76629037 -6.24229301 6.88655182 -9 5 C-8.67 4.34 -8.34 3.68 -8 3 C-2.140625 6.66210938 -2.140625 6.66210938 3.71875 10.32421875 C4.42386719 10.76040527 5.12898438 11.1965918 5.85546875 11.64599609 C7.31223344 12.56576123 8.75215914 13.51263629 10.17578125 14.48291016 C10.87058594 14.94874512 11.56539063 15.41458008 12.28125 15.89453125 C12.90064453 16.3222583 13.52003906 16.74998535 14.15820312 17.19067383 C16.49127443 18.21587682 17.64676167 17.84086016 20 17 C20 15.68 20 14.36 20 13 C19.33613281 12.77441406 18.67226563 12.54882812 17.98828125 12.31640625 C14.0853744 10.5970865 10.7120414 8.32204619 7.1875 5.9375 C6.49462891 5.47794922 5.80175781 5.01839844 5.08789062 4.54492188 C3.37141668 3.39327778 1.68286015 2.20022856 0 1 C0 0.67 0 0.34 0 0 Z " fill="#95B3C0" transform="translate(354,113)"/>
<path d="M0 0 C0.66 0 1.32 0 2 0 C3.0042434 5.80654227 3.13044613 11.42365793 3.09765625 17.30859375 C3.09553383 18.75867577 3.09553383 18.75867577 3.09336853 20.23805237 C3.08780221 23.30456732 3.07525599 26.37100738 3.0625 29.4375 C3.05748065 31.52538957 3.0529185 33.61328028 3.04882812 35.70117188 C3.03784382 40.8008098 3.02060255 45.90039223 3 51 C2.67 51 2.34 51 2 51 C1.67 45.39 1.34 39.78 1 34 C0.67 34 0.34 34 0 34 C0 22.78 0 11.56 0 0 Z " fill="#919999" transform="translate(189,156)"/>
<path d="M0 0 C4.21505861 2.81003908 4.92493124 6.17469138 6 11 C5.8125 14 5.8125 14 5 16 C2.59940183 17.20029908 1.10639351 17.11459743 -1.5703125 17.09765625 C-2.46621094 17.09443359 -3.36210937 17.09121094 -4.28515625 17.08789062 C-5.22230469 17.07951172 -6.15945313 17.07113281 -7.125 17.0625 C-8.06988281 17.05798828 -9.01476562 17.05347656 -9.98828125 17.04882812 C-12.32558387 17.03702357 -14.66276061 17.02055759 -17 17 C-17.66 15.68 -18.32 14.36 -19 13 C-12.07 13 -5.14 13 2 13 C1.3786131 8.6502917 0.73894837 4.32812614 0 0 Z " fill="#9FC5CC" transform="translate(468,203)"/>
<path d="M0 0 C0.66 0 1.32 0 2 0 C0.74148967 5.14432314 -0.96060985 8.94494008 -3.875 13.4375 C-10.4053897 22.94136995 -10.4053897 22.94136995 -12 34 C-14.51249179 31.81522453 -15.69621803 30.35206442 -16 27 C-14.75244141 24.17504883 -14.75244141 24.17504883 -12.8515625 20.95703125 C-12.51957855 20.38796555 -12.1875946 19.81889984 -11.84555054 19.23258972 C-10.78348451 17.41886917 -9.70441824 15.61593586 -8.625 13.8125 C-7.90515017 12.58723403 -7.18638696 11.36132898 -6.46875 10.13476562 C-1.24303194 1.24303194 -1.24303194 1.24303194 0 0 Z " fill="#ABC9D5" transform="translate(260,155)"/>
<path d="M0 0 C3.92702358 1.42605418 7.24619519 3.29449662 10.75 5.5625 C11.71421875 6.18253906 12.6784375 6.80257812 13.671875 7.44140625 C16 9 16 9 17 10 C17.2982732 12.83359542 17.35602594 14.43785378 15.8125 16.875 C14 18 14 18 11.875 17.875 C7.82918307 16.64366441 4.6723073 14.47932914 1.1875 12.125 C0.49462891 11.67769531 -0.19824219 11.23039062 -0.91210938 10.76953125 C-2.66726416 9.59712244 -4.34168359 8.3057938 -6 7 C-6 6.01 -6 5.02 -6 4 C-4.44539063 5.0828125 -4.44539063 5.0828125 -2.859375 6.1875 C-1.48991588 7.1254857 -0.12010576 8.06295909 1.25 9 C1.93191406 9.47695312 2.61382812 9.95390625 3.31640625 10.4453125 C3.98027344 10.89648438 4.64414062 11.34765625 5.328125 11.8125 C5.9355957 12.23144531 6.54306641 12.65039062 7.16894531 13.08203125 C9.25458754 14.29877793 9.25458754 14.29877793 13 14 C13.33 12.35 13.66 10.7 14 9 C13.41347656 8.8865625 12.82695312 8.773125 12.22265625 8.65625 C9.82695013 7.94890619 8.40681588 7.01553616 6.4375 5.5 C4.17099358 3.76352292 2.77527707 2.92509236 0 2 C0 1.34 0 0.68 0 0 Z " fill="#B1CBDD" transform="translate(416,115)"/>
<path d="M0 0 C0.80832275 0.00410889 1.61664551 0.00821777 2.44946289 0.01245117 C3.77300781 0.01535156 3.77300781 0.01535156 5.12329102 0.01831055 C6.0469043 0.03055664 6.97051758 0.04280273 7.92211914 0.05541992 C9.30173828 0.05638672 9.30173828 0.05638672 10.70922852 0.05737305 C17.5629534 0.10236468 17.5629534 0.10236468 20.98461914 1.24291992 C20.65461914 2.23291992 20.32461914 3.22291992 19.98461914 4.24291992 C19.87139089 5.66935132 19.80866438 7.10014482 19.77929688 8.53076172 C19.75935165 9.39142746 19.73940643 10.2520932 19.71885681 11.13883972 C19.69378807 12.5264727 19.69378807 12.5264727 19.66821289 13.94213867 C19.64743179 14.89232376 19.6266507 15.84250885 19.60523987 16.82148743 C19.53983862 19.85772448 19.4809031 22.89404824 19.42211914 25.93041992 C19.37892497 27.98837161 19.33531038 30.04631452 19.29125977 32.10424805 C19.18416683 37.15038308 19.08287268 42.19660535 18.98461914 47.24291992 C18.65461914 47.24291992 18.32461914 47.24291992 17.98461914 47.24291992 C17.98461914 32.39291992 17.98461914 17.54291992 17.98461914 2.24291992 C10.72461914 2.24291992 3.46461914 2.24291992 -4.01538086 2.24291992 C-2.01538086 0.24291992 -2.01538086 0.24291992 0 0 Z " fill="#52C4F5" transform="translate(38.015380859375,150.757080078125)"/>
<path d="M0 0 C6.26251315 3.39802434 12.35708574 6.99899734 18.375 10.8125 C19.19846924 11.33295898 20.02193848 11.85341797 20.87036133 12.38964844 C27.0999462 16.35787992 33.12870136 20.51406396 39 25 C38.01 25.33 37.02 25.66 36 26 C34.125 24.77734375 34.125 24.77734375 32 22.9375 C27.83749428 19.5360997 23.59097283 17.03268798 18.84375 14.5390625 C12.23473738 10.96220677 5.65873958 6.96914408 0 2 C0 1.34 0 0.68 0 0 Z " fill="#A2BDD0" transform="translate(305,90)"/>
<path d="M0 0 C5.85827525 1.15863666 10.20140737 4.63737503 13.78125 9.33984375 C19.60832303 18.60888884 20.3246864 26.17711986 20 37 C19.67 37 19.34 37 19 37 C18.505 34.525 18.505 34.525 18 32 C17.67 32 17.34 32 17 32 C16.91363281 31.09378906 16.82726562 30.18757813 16.73828125 29.25390625 C15.27344081 16.5541428 11.93300018 9.91570213 2 2 C1.34 1.34 0.68 0.68 0 0 Z " fill="#A7C2D3" transform="translate(302,153)"/>
<path d="M0 0 C0.99 0.33 1.98 0.66 3 1 C-3.42643408 8.31283878 -12.29473933 12.89374497 -21 17 C-21.66 16.34 -22.32 15.68 -23 15 C-18.6200443 12.06292033 -14.23358432 9.13613053 -9.83789062 6.22265625 C-8.32922798 5.21901883 -6.82765821 4.20472721 -5.328125 3.1875 C-3.60213388 2.04549084 -1.80751094 1.00803495 0 0 Z " fill="#C4EBEF" transform="translate(285,38)"/>
<path d="M0 0 C0.33 0 0.66 0 1 0 C0.50528333 4.94716669 -0.33906605 8.7622163 -3 13 C-5.97213428 15.42173904 -9.27181159 15.36222204 -13.03125 15.25 C-16.00328398 14.87259886 -17.75970547 13.96874368 -20 12 C-20.8125 9.3125 -20.8125 9.3125 -21 7 C-20.54625 7.66 -20.0925 8.32 -19.625 9 C-16.20456223 11.60604782 -13.80022251 11.97805663 -9.546875 11.87109375 C-4.32590405 10.08539356 -2.44523251 4.60630957 0 0 Z " fill="#B8EEF4" transform="translate(371,189)"/>
<path d="M0 0 C3.29159316 -0.05790353 6.58305603 -0.09356261 9.875 -0.125 C10.81214844 -0.14175781 11.74929687 -0.15851563 12.71484375 -0.17578125 C13.61074219 -0.18222656 14.50664062 -0.18867188 15.4296875 -0.1953125 C16.25710449 -0.20578613 17.08452148 -0.21625977 17.93701172 -0.22705078 C20 0 20 0 22 2 C22.1721221 4.8706466 22.23223075 7.63252342 22.1875 10.5 C22.18685547 11.28503906 22.18621094 12.07007813 22.18554688 12.87890625 C22.14046848 18.71906304 22.14046848 18.71906304 21 21 C20.34 21 19.68 21 19 21 C19 14.73 19 8.46 19 2 C12.73 1.67 6.46 1.34 0 1 C0 0.67 0 0.34 0 0 Z " fill="#96DBF5" transform="translate(204,151)"/>
<path d="M0 0 C-7.79852085 6.40134527 -16.41787796 11.71869413 -25 17 C-25.33 16.34 -25.66 15.68 -26 15 C-22.08608965 10.75738233 -17.88877702 7.73171078 -13 4.6875 C-12.30132812 4.23310547 -11.60265625 3.77871094 -10.8828125 3.31054688 C-4.5446926 -0.66572646 -4.5446926 -0.66572646 0 0 Z " fill="#A7C5D8" transform="translate(180,66)"/>
<path d="M0 0 C1.32 0.33 2.64 0.66 4 1 C4.08139142 3.39652528 4.14067009 5.79025436 4.1875 8.1875 C4.22520508 9.19780273 4.22520508 9.19780273 4.26367188 10.22851562 C4.3289449 14.68883882 3.73686642 17.44965691 1 21 C0.67 21 0.34 21 0 21 C0 14.07 0 7.14 0 0 Z " fill="#9DC0CC" transform="translate(154,51)"/>
<path d="M0 0 C0.33 0.66 0.66 1.32 1 2 C1.66 2 2.32 2 3 2 C4.03789581 3.64333504 5.03567924 5.31243867 6 7 C6.66 7.66 7.32 8.32 8 9 C12.70886814 9 15.20790546 6.3317964 18.44921875 3.27734375 C20 2 20 2 22 2 C21.69607391 4.83664347 21.00666252 5.99269272 19.0625 8.125 C14.88076145 10.68524809 10.95305112 12.14219286 6 12 C3.15826393 10.55390946 1.52134694 8.78913606 0 6 C-0.375 2.625 -0.375 2.625 0 0 Z " fill="#CEF3FF" transform="translate(268,189)"/>
<path d="M0 0 C8.25939399 4.2896591 15.98577446 9.15876702 23.6875 14.375 C24.78255859 15.11105469 25.87761719 15.84710938 27.00585938 16.60546875 C29.67347111 18.39940852 32.33808405 20.19762437 35 22 C34.01 22.33 33.02 22.66 32 23 C29.69091797 21.83178711 29.69091797 21.83178711 26.9921875 20.02734375 C26.00476563 19.37443359 25.01734375 18.72152344 24 18.04882812 C22.96875 17.35208984 21.9375 16.65535156 20.875 15.9375 C19.86695313 15.26783203 18.85890625 14.59816406 17.8203125 13.90820312 C15.82612953 12.58176147 13.83612949 11.24900735 11.85058594 9.90966797 C9.99575599 8.66707805 8.12962699 7.44113705 6.25097656 6.23486328 C5.01686035 5.43991455 5.01686035 5.43991455 3.7578125 4.62890625 C3.02965332 4.16685791 2.30149414 3.70480957 1.55126953 3.22875977 C1.03935059 2.82326904 0.52743164 2.41777832 0 2 C0 1.34 0 0.68 0 0 Z " fill="#94BACA" transform="translate(254,57)"/>
<path d="M0 0 C5.70839158 1.05818541 10.3092648 4.74485818 15.125 7.8125 C16.13949219 8.44220703 17.15398437 9.07191406 18.19921875 9.72070312 C19.16730469 10.33494141 20.13539063 10.94917969 21.1328125 11.58203125 C22.01855957 12.14124268 22.90430664 12.7004541 23.81689453 13.27661133 C26.07111833 15.05614228 26.96908919 16.35327214 28 19 C21.4057452 15.62747052 15.11323645 11.89187186 8.9375 7.8125 C8.28257568 7.38469238 7.62765137 6.95688477 6.95288086 6.51611328 C3.96983776 4.52012087 2.01415582 3.02123373 0 0 Z " fill="#A3C6D6" transform="translate(225,39)"/>
<path d="M0 0 C-3.12524032 3.40099682 -6.58556311 5.85340599 -10.5 8.25 C-11.06847656 8.61351562 -11.63695313 8.97703125 -12.22265625 9.3515625 C-15.52777783 11.39138231 -16.99912353 12 -21 12 C-21 11.01 -21 10.02 -21 9 C-19.5459375 8.443125 -19.5459375 8.443125 -18.0625 7.875 C-14.04277769 6.18720584 -10.70089824 3.79615375 -7.2109375 1.20703125 C-4.61375426 -0.21086561 -2.91539692 -0.23016291 0 0 Z " fill="#9AB7CB" transform="translate(92,123)"/>
<path d="M0 0 C0.33 0 0.66 0 1 0 C1.309375 1.2375 1.309375 1.2375 1.625 2.5 C4.3247196 9.37201354 8.49877584 14.40357812 15 18 C16.3921875 18.5259375 16.3921875 18.5259375 17.8125 19.0625 C18.534375 19.371875 19.25625 19.68125 20 20 C20.33 20.99 20.66 21.98 21 23 C13.61058162 21.87015923 8.01437688 17.72651291 3.5625 11.8125 C2.69091739 10.55354734 1.83478269 9.28364945 1 8 C0.34 7.01 -0.32 6.02 -1 5 C-0.625 2.3125 -0.625 2.3125 0 0 Z " fill="#8FB7D9" transform="translate(258,193)"/>
<path d="M0 0 C6.17599578 2.93218148 11.82211634 6.32433195 17.5 10.125 C18.73363281 10.93130859 18.73363281 10.93130859 19.9921875 11.75390625 C20.76820313 12.27082031 21.54421875 12.78773437 22.34375 13.3203125 C23.04693359 13.78711426 23.75011719 14.25391602 24.47460938 14.73486328 C24.97798828 15.1523584 25.48136719 15.56985352 26 16 C26 16.66 26 17.32 26 18 C16.7813476 14.6071387 7.56993519 8.22343913 0 2 C0 1.34 0 0.68 0 0 Z " fill="#ADC4D0" transform="translate(299,47)"/>
<path d="M0 0 C4.29398094 0.87831428 6.31255443 4.06966563 8.75 7.5625 C8.75 7.8925 8.75 8.2225 8.75 8.5625 C4.81225823 8.92880156 3.18460229 8.86483203 -0.125 6.5625 C-0.82625 5.9025 -1.5275 5.2425 -2.25 4.5625 C-2.58 5.2225 -2.91 5.8825 -3.25 6.5625 C-4.24 6.5625 -5.23 6.5625 -6.25 6.5625 C-3.60849057 0.90212264 -3.60849057 0.90212264 0 0 Z " fill="#09A5F1" transform="translate(284.25,177.4375)"/>
<path d="M0 0 C6.6 0 13.2 0 20 0 C19.67 0.99 19.34 1.98 19 3 C12.73 3 6.46 3 0 3 C0 2.01 0 1.02 0 0 Z " fill="#A4C6C8" transform="translate(204,217)"/>
<path d="M0 0 C2.38475506 0.3778173 3.66740865 0.63011622 5.30859375 2.45532227 C5.68113281 3.06947998 6.05367187 3.6836377 6.4375 4.31640625 C6.85773438 4.99896484 7.27796875 5.68152344 7.7109375 6.38476562 C8.13632813 7.10341797 8.56171875 7.82207031 9 8.5625 C9.42539063 9.25408203 9.85078125 9.94566406 10.2890625 10.65820312 C13.12155532 15.3196522 15.75379849 20.02703945 18 25 C17.67 25.66 17.34 26.32 17 27 C9.67578125 15.28125 9.67578125 15.28125 8.35009766 13.15234375 C7.4267554 11.68033917 6.49364727 10.21442747 5.55224609 8.75390625 C5.09543457 8.04105469 4.63862305 7.32820312 4.16796875 6.59375 C3.75184326 5.95115234 3.33571777 5.30855469 2.90698242 4.64648438 C2 3 2 3 2 1 C1.34 0.67 0.68 0.34 0 0 Z " fill="#C9E5F0" transform="translate(149,152)"/>
<path d="M0 0 C7.26 0 14.52 0 22 0 C22.33 0.66 22.66 1.32 23 2 C15.76677863 4.06663468 9.44526242 4.8613156 2 3 C2 2.34 2 1.68 2 1 C1.34 0.67 0.68 0.34 0 0 Z " fill="#A7CACD" transform="translate(277,214)"/>
<path d="M0 0 C0.66 0 1.32 0 2 0 C1.67 8.91 1.34 17.82 1 27 C0.34 27 -0.32 27 -1 27 C-1.02886537 22.68751391 -1.04675255 18.37505238 -1.0625 14.0625 C-1.07087891 12.83080078 -1.07925781 11.59910156 -1.08789062 10.33007812 C-1.09111328 9.16025391 -1.09433594 7.99042969 -1.09765625 6.78515625 C-1.10289307 5.70113525 -1.10812988 4.61711426 -1.11352539 3.50024414 C-1 1 -1 1 0 0 Z " fill="#C2D3D8" transform="translate(128,62)"/>
<path d="M0 0 C6.93 0 13.86 0 21 0 C21 0.66 21 1.32 21 2 C16.71702469 3.05619003 12.57014354 3.11702092 8.1875 3.0625 C7.49462891 3.05798828 6.80175781 3.05347656 6.08789062 3.04882812 C4.39188932 3.03713156 2.69593297 3.01919924 1 3 C0.67 3.99 0.34 4.98 0 6 C0 4.02 0 2.04 0 0 Z " fill="#98B1C3" transform="translate(127,55)"/>
<path d="M0 0 C-0.99 0.495 -0.99 0.495 -2 1 C-2 1.66 -2 2.32 -2 3 C-4.24067726 4.66644821 -6.46320802 6.18997102 -8.8125 7.6875 C-9.77639648 8.33041992 -9.77639648 8.33041992 -10.75976562 8.98632812 C-12.45423239 10.07675699 -14.22451901 11.04715165 -16 12 C-16.99 11.67 -17.98 11.34 -19 11 C-14.72487085 6.13519787 -6.60075656 -2.20025219 0 0 Z " fill="#ABC4E5" transform="translate(224,37)"/>
<path d="M0 0 C5.56715533 2.6690144 10.70378175 5.60309383 15.8125 9.0625 C16.46669922 9.49626953 17.12089844 9.93003906 17.79492188 10.37695312 C20.81404295 12.403064 23.47819454 14.36211823 26 17 C21.94874712 16.43031381 19.31064646 15.16991336 15.91796875 12.91015625 C14.98662109 12.29076172 14.05527344 11.67136719 13.09570312 11.03320312 C11.65614258 10.05770508 11.65614258 10.05770508 10.1875 9.0625 C9.20845703 8.41603516 8.22941406 7.76957031 7.22070312 7.10351562 C1.86228622 3.50758846 1.86228622 3.50758846 0 2 C0 1.34 0 0.68 0 0 Z " fill="#9AC3D0" transform="translate(345,116)"/>
<path d="M0 0 C0.66 0.33 1.32 0.66 2 1 C1.04270084 2.12588014 0.08412105 3.2506715 -0.875 4.375 C-1.40867187 5.00148437 -1.94234375 5.62796875 -2.4921875 6.2734375 C-3.61432007 7.55836651 -4.79371975 8.79371975 -6 10 C-9.61284925 9.8429196 -11.51787248 9.38062699 -14.375 7.125 C-16 5 -16 5 -16 2 C-12.125 3.875 -12.125 3.875 -11 5 C-8.16926564 5.50169415 -8.16926564 5.50169415 -5 5 C-2.12359384 2.62499209 -2.12359384 2.62499209 0 0 Z " fill="#C6F1FF" transform="translate(298,180)"/>
<path d="M0 0 C2.38711251 0.95164413 3.72191903 1.50626439 5.00488281 3.78417969 C5.23530273 4.48961914 5.46572266 5.19505859 5.703125 5.921875 C5.9609375 6.70046875 6.21875 7.4790625 6.484375 8.28125 C6.73703125 9.0959375 6.9896875 9.910625 7.25 10.75 C7.518125 11.54921875 7.78625 12.3484375 8.0625 13.171875 C9.48161599 17.57403073 10.33222965 21.31858227 10 26 C8.10786766 23.16180149 7.15124457 20.87702043 6.0546875 17.67578125 C5.70019531 16.64775391 5.34570312 15.61972656 4.98046875 14.56054688 C4.61566406 13.48869141 4.25085938 12.41683594 3.875 11.3125 C3.50246094 10.22904297 3.12992187 9.14558594 2.74609375 8.02929688 C1.8268827 5.35415702 0.91168312 2.67771279 0 0 Z " fill="#CDE6ED" transform="translate(449,152)"/>
<path d="M0 0 C3.37253141 1.25782917 6.28917947 2.68878379 9.28515625 4.6796875 C10.06310547 5.19660156 10.84105469 5.71351562 11.64257812 6.24609375 C12.44115234 6.78363281 13.23972656 7.32117188 14.0625 7.875 C14.86494141 8.40480469 15.66738281 8.93460938 16.49414062 9.48046875 C20.34193676 12.05418135 23.89745441 14.51909519 27 18 C23.5840779 17.35917907 21.22898437 16.03603664 18.33984375 14.12890625 C17.0259668 13.26749023 17.0259668 13.26749023 15.68554688 12.38867188 C14.77869141 11.78603516 13.87183594 11.18339844 12.9375 10.5625 C12.02677734 9.96373047 11.11605469 9.36496094 10.17773438 8.74804688 C6.7773282 6.51034406 3.38696907 4.25797938 0 2 C0 1.34 0 0.68 0 0 Z " fill="#95BEC7" transform="translate(381,101)"/>
<path d="M0 0 C6.93 0 13.86 0 21 0 C20.67 0.99 20.34 1.98 20 3 C13.66666667 3 7.33333333 3 1 3 C0.67 2.01 0.34 1.02 0 0 Z " fill="#9ADBF9" transform="translate(401,216)"/>
<path d="M0 0 C2 2 2 2 2 11 C9.92 11 17.84 11 26 11 C25.67 11.99 25.34 12.98 25 14 C24.67 13.34 24.34 12.68 24 12 C23.40985107 12.03029297 22.81970215 12.06058594 22.21166992 12.09179688 C19.53698612 12.22864973 16.86224445 12.36433784 14.1875 12.5 C13.25873047 12.54769531 12.32996094 12.59539062 11.37304688 12.64453125 C10.48037109 12.68964844 9.58769531 12.73476562 8.66796875 12.78125 C7.43469849 12.8440918 7.43469849 12.8440918 6.17651367 12.90820312 C4.45227071 12.98092498 2.72577585 13 1 13 C-0.32229189 10.35541621 -0.09677194 8.32238699 -0.0625 5.375 C-0.05347656 4.37210938 -0.04445312 3.36921875 -0.03515625 2.3359375 C-0.02355469 1.56507813 -0.01195312 0.79421875 0 0 Z " fill="#2BA2DD" transform="translate(200,205)"/>
<path d="M0 0 C4.55244679 0.8277176 8.04322782 3.64655465 11.74169922 6.29394531 C12.55574219 6.84953125 13.36978516 7.40511719 14.20849609 7.97753906 C20.13467594 12.07989876 20.13467594 12.07989876 21.30419922 14.41894531 C17.45088733 13.0132907 14.18283357 11.20693554 10.74169922 8.98144531 C9.81228516 8.38460937 8.88287109 7.78777344 7.92529297 7.17285156 C5.30419922 5.41894531 5.30419922 5.41894531 3.15185547 3.71191406 C0.48917346 1.84859959 -1.51740789 2.15407924 -4.69580078 2.41894531 C-6.96146421 2.85836055 -6.96146421 2.85836055 -8.69580078 3.41894531 C-6.45149221 0.05248246 -3.87250105 -0.07526217 0 0 Z " fill="#86B2D9" transform="translate(224.69580078125,28.5810546875)"/>
<path d="M0 0 C0.66 1.32 1.32 2.64 2 4 C1.01 4.495 1.01 4.495 0 5 C0.04125 6.2375 0.0825 7.475 0.125 8.75 C0.13658291 12.01637962 -0.1431298 14.2146947 -2 17 C-2.99 17 -3.98 17 -5 17 C-3.83348574 11.07136283 -2.24480642 5.61201606 0 0 Z " fill="#C1DEED" transform="translate(436,173)"/>
<path d="M0 0 C0.33 0 0.66 0 1 0 C1.33 7.59 1.66 15.18 2 23 C1.01 23 0.02 23 -1 23 C-1.02894547 19.54168414 -1.04678 16.08339928 -1.0625 12.625 C-1.07087891 11.64015625 -1.07925781 10.6553125 -1.08789062 9.640625 C-1.09111328 8.69960937 -1.09433594 7.75859375 -1.09765625 6.7890625 C-1.10289307 5.91975098 -1.10812988 5.05043945 -1.11352539 4.15478516 C-1 2 -1 2 0 0 Z " fill="#105F92" transform="translate(372,194)"/>
<path d="M0 0 C3.92702358 1.42605418 7.24619519 3.29449662 10.75 5.5625 C11.71421875 6.18253906 12.6784375 6.80257812 13.671875 7.44140625 C16 9 16 9 17 10 C17.25 12.4375 17.25 12.4375 17 15 C16.01 15.66 15.02 16.32 14 17 C14 14.36 14 11.72 14 9 C13.41347656 8.8865625 12.82695312 8.773125 12.22265625 8.65625 C9.82695013 7.94890619 8.40681588 7.01553616 6.4375 5.5 C4.17099358 3.76352292 2.77527707 2.92509236 0 2 C0 1.34 0 0.68 0 0 Z " fill="#7FA7BB" transform="translate(416,115)"/>
<path d="M0 0 C0.66 0.33 1.32 0.66 2 1 C0.57628203 4.56310166 -0.96571002 5.9275463 -4.3125 7.75 C-5.07175781 8.17796875 -5.83101562 8.6059375 -6.61328125 9.046875 C-9.24874744 10.09933613 -11.18840289 10.17914601 -14 10 C-9.57557408 6.28919117 -4.82596069 3.15422267 0 0 Z " fill="#D8EFFF" transform="translate(190,56)"/>
<path d="M0 0 C7.9300621 2.91630907 15.40685383 7.63538539 21 14 C17.75081565 13.39750224 15.86303937 12.32465257 13.3125 10.25 C9.12535941 6.98544971 4.69629849 4.45685986 0 2 C0 1.34 0 0.68 0 0 Z " fill="#A9C7D7" transform="translate(323,102)"/>
<path d="M0 0 C3.375 4.5 3.375 4.5 3.07421875 8.109375 C3.01943359 8.86347656 2.96464844 9.61757812 2.90820312 10.39453125 C2.83537109 11.17183594 2.76253906 11.94914063 2.6875 12.75 C2.62626953 13.54277344 2.56503906 14.33554688 2.50195312 15.15234375 C2.34920979 17.10275869 2.17654756 19.05159555 2 21 C1.34 21 0.68 21 0 21 C0 14.07 0 7.14 0 0 Z " fill="#EBFBFF" transform="translate(224,195)"/>
<path d="M0 0 C0.45375 0.639375 0.9075 1.27875 1.375 1.9375 C5.25013836 4.98225157 9.1922647 4.81649865 14 5 C14 5.99 14 6.98 14 8 C4.93812155 8.46077348 4.93812155 8.46077348 1 5 C0.1875 2.3125 0.1875 2.3125 0 0 Z " fill="#95B7C1" transform="translate(350,196)"/>
<path d="M0 0 C4.20479885 2.80319923 4.94400709 6.1773552 6 11 C5.6875 14.0625 5.6875 14.0625 5 16 C4.34 16 3.68 16 3 16 C1.91681831 10.6787385 0.847126 5.36513131 0 0 Z " fill="#9CB3C4" transform="translate(468,203)"/>
<path d="M0 0 C0 0.99 0 1.98 0 3 C-3.30181761 5.83012938 -4.96683095 7.07653104 -9.375 6.75 C-10.24125 6.5025 -11.1075 6.255 -12 6 C-4.28571429 0 -4.28571429 0 0 0 Z " fill="#BDD9DF" transform="translate(309,208)"/>
<path d="M0 0 C0.33 0 0.66 0 1 0 C1.02705729 1.77074917 1.04642195 3.54161711 1.0625 5.3125 C1.07410156 6.29863281 1.08570313 7.28476563 1.09765625 8.30078125 C1 11 1 11 0 14 C-2.0625 14.6875 -2.0625 14.6875 -4 15 C-3.52396226 12.87429688 -3.04407402 10.74945573 -2.5625 8.625 C-2.29566406 7.44164062 -2.02882813 6.25828125 -1.75390625 5.0390625 C-1 2 -1 2 0 0 Z " fill="#BFD0D7" transform="translate(320,183)"/>
<path d="M0 0 C3 3 3 3 3.07421875 6.57421875 C2.96149977 7.94673808 2.83199844 9.31796172 2.6875 10.6875 C2.62626953 11.38939453 2.56503906 12.09128906 2.50195312 12.81445312 C2.34897376 14.5442967 2.17637398 16.27238497 2 18 C1.34 18 0.68 18 0 18 C0 12.06 0 6.12 0 0 Z " fill="#EBFCFF" transform="translate(152,192)"/>
<path d="M0 0 C6.30839521 3.31960761 12.30784406 6.69925996 18 11 C17.34 11.66 16.68 12.32 16 13 C13.32585011 11.21930777 10.66206765 9.42369436 8 7.625 C7.236875 7.11710937 6.47375 6.60921875 5.6875 6.0859375 C4.6046875 5.35117188 4.6046875 5.35117188 3.5 4.6015625 C2.8296875 4.15119629 2.159375 3.70083008 1.46875 3.23681641 C0.9840625 2.82866699 0.499375 2.42051758 0 2 C0 1.34 0 0.68 0 0 Z " fill="#90B3C2" transform="translate(325,64)"/>
<path d="M0 0 C0.33 0.66 0.66 1.32 1 2 C1.66 2 2.32 2 3 2 C4.91847864 4.87771795 6.50079488 7.88626628 8 11 C5 11 5 11 2.3125 8.875 C0 6 0 6 -0.3125 2.6875 C-0.209375 1.800625 -0.10625 0.91375 0 0 Z " fill="#D0F1F8" transform="translate(268,189)"/>
<path d="M0 0 C0 0.66 0 1.32 0 2 C-3.63 3.98 -7.26 5.96 -11 8 C-11.33 7.01 -11.66 6.02 -12 5 C-10.75747321 4.15556432 -9.5056114 3.3248542 -8.25 2.5 C-7.55390625 2.0359375 -6.8578125 1.571875 -6.140625 1.09375 C-4 0 -4 0 0 0 Z " fill="#D5FBFF" transform="translate(128,99)"/>
<path d="M0 0 C0.99 0 1.98 0 3 0 C4.65 3.3 6.3 6.6 8 10 C4.26360784 8.75453595 3.81243487 7.36595047 2 4 C1.67 6.97 1.34 9.94 1 13 C0.67 13 0.34 13 0 13 C0 8.71 0 4.42 0 0 Z " fill="#335E75" transform="translate(154,196)"/>
<path d="M0 0 C6.33333333 0.48717949 6.33333333 0.48717949 9.4375 2.875 C11 5 11 5 11 8 C8.53199953 6.84826645 6.95216435 5.95216435 5 4 C4.319375 3.67 3.63875 3.34 2.9375 3 C1 2 1 2 0 0 Z " fill="#D0F5FF" transform="translate(282,175)"/>
<path d="M0 0 C3.58707329 3.38779144 6.49689539 6.73545141 9 11 C9 11.99 9 12.98 9 14 C8.34 14 7.68 14 7 14 C5.2734375 11.4453125 5.2734375 11.4453125 3.375 8.125 C2.74335938 7.03445312 2.11171875 5.94390625 1.4609375 4.8203125 C0 2 0 2 0 0 Z " fill="#B6D4F3" transform="translate(345,153)"/>
<path d="M0 0 C0.66 0.33 1.32 0.66 2 1 C1 4 1 4 -1.3125 5.6875 C-4 7 -4 7 -8 7 C-8 6.01 -8 5.02 -8 4 C-6.865625 3.525625 -5.73125 3.05125 -4.5625 2.5625 C-1.24259834 1.36377917 -1.24259834 1.36377917 0 0 Z " fill="#BEE5E8" transform="translate(79,128)"/>
<path d="M0 0 C6.05537521 0.30276876 9.51483458 3.27754038 14 7 C13.67 7.66 13.34 8.32 13 9 C10.83061859 7.69181533 8.6644848 6.37874076 6.5 5.0625 C5.87996094 4.68931641 5.25992188 4.31613281 4.62109375 3.93164062 C3.06370003 2.9818016 1.5296725 1.99386689 0 1 C0 0.67 0 0.34 0 0 Z " fill="#95B6D6" transform="translate(239,49)"/>
<path d="M0 0 C-3.49087093 4.0042343 -5.64951939 5.62671065 -11 6 C-11 5.34 -11 4.68 -11 4 C-9.35546875 2.67578125 -9.35546875 2.67578125 -7.1875 1.3125 C-6.47980469 0.85488281 -5.77210938 0.39726563 -5.04296875 -0.07421875 C-3 -1 -3 -1 0 0 Z " fill="#CDF1F5" transform="translate(288,39)"/>
<path d="M0 0 C0.33 0 0.66 0 1 0 C1.05422947 1.4370809 1.09289723 2.87475462 1.125 4.3125 C1.14820313 5.11300781 1.17140625 5.91351563 1.1953125 6.73828125 C1 9 1 9 -1 12 C-1.66 12 -2.32 12 -3 12 C-2.88601335 10.37419034 -2.75844341 8.74932843 -2.625 7.125 C-2.55539062 6.22007812 -2.48578125 5.31515625 -2.4140625 4.3828125 C-2 2 -2 2 0 0 Z " fill="#919FA8" transform="translate(348,207)"/>
<path d="M0 0 C1.9631237 1.09562714 3.92036163 2.20180549 5.875 3.3125 C6.96554687 3.92738281 8.05609375 4.54226562 9.1796875 5.17578125 C12 7 12 7 14 10 C10.586057 9.35939742 8.19515414 8.04041647 5.3125 6.125 C4.52488281 5.61195312 3.73726563 5.09890625 2.92578125 4.5703125 C1 3 1 3 0 0 Z " fill="#B2CED6" transform="translate(290,80)"/>
<path d="M0 0 C1.60379341 -0.05416188 3.20811406 -0.09286638 4.8125 -0.125 C5.70582031 -0.14820313 6.59914062 -0.17140625 7.51953125 -0.1953125 C10 0 10 0 13 2 C7.06 2.495 7.06 2.495 1 3 C0.67 3.99 0.34 4.98 0 6 C0 4.02 0 2.04 0 0 Z " fill="#E5F8FA" transform="translate(127,55)"/>
<path d="M0 0 C5.27710354 2.3439244 9.15080717 4.66965806 13 9 C9.55251042 8.35952602 7.15355815 7.00294981 4.25 5.0625 C3.45078125 4.53785156 2.6515625 4.01320313 1.828125 3.47265625 C1.22484375 2.98667969 0.6215625 2.50070313 0 2 C0 1.34 0 0.68 0 0 Z " fill="#B5CEE6" transform="translate(299,47)"/>
<path d="M0 0 C1.98 0 3.96 0 6 0 C6 0.33 6 0.66 6 1 C8.64 1.33 11.28 1.66 14 2 C14 2.33 14 2.66 14 3 C7.73 3 1.46 3 -5 3 C-5 2.67 -5 2.34 -5 2 C-3.35 1.67 -1.7 1.34 0 1 C0 0.67 0 0.34 0 0 Z " fill="#4CABAC" transform="translate(408,217)"/>
<path d="M0 0 C0.66 0 1.32 0 2 0 C2.16834933 1.77067416 2.33461909 3.54154612 2.5 5.3125 C2.5928125 6.29863281 2.685625 7.28476563 2.78125 8.30078125 C3 11 3 11 3 14 C1.51171875 12.85546875 1.51171875 12.85546875 0 11 C-0.29296875 8.30078125 -0.29296875 8.30078125 -0.1875 5.3125 C-0.16042969 4.31863281 -0.13335937 3.32476562 -0.10546875 2.30078125 C-0.07066406 1.54152344 -0.03585938 0.78226563 0 0 Z " fill="#648188" transform="translate(92,205)"/>
<path d="M0 0 C0.66 0 1.32 0 2 0 C0.88059018 4.85077588 -0.1334716 7.777893 -4 11 C-4.42820102 7.36029133 -3.97413512 5.95430537 -2.125 2.6875 C-1.42375 1.800625 -0.7225 0.91375 0 0 Z " fill="#AEC8D8" transform="translate(260,155)"/>
<path d="M0 0 C1.485 0.99 1.485 0.99 3 2 C3.29296875 4.8203125 3.29296875 4.8203125 3.1875 8.125 C3.16042969 9.22070312 3.13335937 10.31640625 3.10546875 11.4453125 C3.07066406 12.28835937 3.03585937 13.13140625 3 14 C2.67 14 2.34 14 2 14 C1.67 12.35 1.34 10.7 1 9 C0.67 9 0.34 9 0 9 C0 6.03 0 3.06 0 0 Z " fill="#848CAE" transform="translate(319,176)"/>
<path d="M0 0 C0.763125 0.20625 1.52625 0.4125 2.3125 0.625 C-0.56837546 3.02572955 -3.25154834 5.09791037 -6.6875 6.625 C-6.375 4.25 -6.375 4.25 -5.6875 1.625 C-2.6875 -0.375 -2.6875 -0.375 0 0 Z " fill="#A5D3E4" transform="translate(277.6875,44.375)"/>
<path d="M0 0 C2.36530408 2.36530408 2.33785256 3.19911498 2.625 6.4375 C2.69976562 7.21996094 2.77453125 8.00242188 2.8515625 8.80859375 C2.96855767 10.53581186 3 12.26882402 3 14 C1.51171875 12.85546875 1.51171875 12.85546875 0 11 C-0.29296875 8.30078125 -0.29296875 8.30078125 -0.1875 5.3125 C-0.16042969 4.31863281 -0.13335937 3.32476562 -0.10546875 2.30078125 C-0.07066406 1.54152344 -0.03585938 0.78226563 0 0 Z " fill="#336B89" transform="translate(200,205)"/>
<path d="M0 0 C1.26026798 2.52053595 0.91874445 3.8542098 0.5625 6.625 C0.46066406 7.44226563 0.35882813 8.25953125 0.25390625 9.1015625 C0.17011719 9.72804687 0.08632812 10.35453125 0 11 C-3.90096414 7.26818336 -3.90096414 7.26818336 -4 4 C-2.0625 1.75 -2.0625 1.75 0 0 Z " fill="#DCF0F5" transform="translate(248,178)"/>
<path d="M0 0 C1.81612488 0.95144598 3.62781081 1.91136933 5.4375 2.875 C6.44683594 3.40867188 7.45617187 3.94234375 8.49609375 4.4921875 C11 6 11 6 12 8 C7.15409462 7.55946315 3.51858133 5.25494123 0 2 C0 1.34 0 0.68 0 0 Z " fill="#A9CBDF" transform="translate(359,125)"/>
<path d="M0 0 C0 3 0 3 -1.96875 5.26171875 C-2.8040625 6.06222656 -3.639375 6.86273438 -4.5 7.6875 C-5.3353125 8.49574219 -6.170625 9.30398437 -7.03125 10.13671875 C-7.6809375 10.75160156 -8.330625 11.36648437 -9 12 C-9.66 11.67 -10.32 11.34 -11 11 C-9.73347137 9.53792657 -8.46161082 8.08047074 -7.1875 6.625 C-6.47980469 5.81289062 -5.77210938 5.00078125 -5.04296875 4.1640625 C-3 2 -3 2 0 0 Z " fill="#F1FDFF" transform="translate(304,176)"/>
<path d="M0 0 C0.66 0.33 1.32 0.66 2 1 C1 4 1 4 -2 6 C-5.1875 6.125 -5.1875 6.125 -8 6 C-5.38485683 3.87961365 -2.80362384 1.86908256 0 0 Z " fill="#C2E7F0" transform="translate(96,117)"/>
<path d="M0 0 C0.99 0 1.98 0 3 0 C2.67 2.64 2.34 5.28 2 8 C1.01 8 0.02 8 -1 8 C-0.67 5.36 -0.34 2.72 0 0 Z " fill="#A2AFB9" transform="translate(152,210)"/>
<path d="M0 0 C4.77609498 1.64178265 8.79382904 4.26546702 13 7 C12.34 7.66 11.68 8.32 11 9 C10.45730469 8.57847656 9.91460937 8.15695313 9.35546875 7.72265625 C8.64003906 7.17480469 7.92460937 6.62695312 7.1875 6.0625 C6.47980469 5.51722656 5.77210938 4.97195312 5.04296875 4.41015625 C2.95874948 2.83143752 2.95874948 2.83143752 0 2 C0 1.34 0 0.68 0 0 Z " fill="#67A1B3" transform="translate(314,48)"/>
<path d="M0 0 C2.64 0 5.28 0 8 0 C8.33 0.99 8.66 1.98 9 3 C6.36 3 3.72 3 1 3 C0.67 2.01 0.34 1.02 0 0 Z " fill="#91ACD2" transform="translate(373,217)"/>
<path d="M0 0 C0.66 0.33 1.32 0.66 2 1 C1.67 1.99 1.34 2.98 1 4 C-1.97 4 -4.94 4 -8 4 C-8.33 3.34 -8.66 2.68 -9 2 C-6.94921875 1.77213542 -4.8984375 1.54427083 -2.84765625 1.31640625 C-0.98859771 1.18113386 -0.98859771 1.18113386 0 0 Z " fill="#E9FBFF" transform="translate(188,215)"/>
<path d="M0 0 C0 0.33 0 0.66 0 1 C-5.61 1 -11.22 1 -17 1 C-17 0.67 -17 0.34 -17 0 C-11.09730818 -2.8715798 -6.10891923 -1.4130952 0 0 Z " fill="#3E8D9F" transform="translate(188,219)"/>
<path d="M0 0 C0 0.99 0 1.98 0 3 C-2.25 4.8125 -2.25 4.8125 -5 6 C-7.3125 5.1875 -7.3125 5.1875 -9 4 C-2.25 0 -2.25 0 0 0 Z " fill="#BCD7DC" transform="translate(117,105)"/>
<path d="M0 0 C3.63 1.98 7.26 3.96 11 6 C11 6.66 11 7.32 11 8 C6.89160936 6.54997977 3.49655387 4.6020866 0 2 C0 1.34 0 0.68 0 0 Z " fill="#CFE4E8" transform="translate(254,57)"/>
<path d="M0 0 C0.66 0.33 1.32 0.66 2 1 C1 4 1 4 -1.4375 5.75 C-2.7059375 6.36875 -2.7059375 6.36875 -4 7 C-4.66 6.67 -5.32 6.34 -6 6 C-5 3 -5 3 -2.5625 1.25 C-1.716875 0.8375 -0.87125 0.425 0 0 Z " fill="#CEF5F9" transform="translate(204,47)"/>
<path d="M0 0 C2 1.625 2 1.625 4 4 C4.25 7.25 4.25 7.25 4 10 C3.34 9.67 2.68 9.34 2 9 C1.3671875 6.93359375 1.3671875 6.93359375 0.875 4.4375 C0.70742188 3.61121094 0.53984375 2.78492188 0.3671875 1.93359375 C0.24601562 1.29550781 0.12484375 0.65742188 0 0 Z " fill="#BED8E1" transform="translate(464,192)"/>
<path d="M0 0 C0.66 0.33 1.32 0.66 2 1 C0.95125002 3.62187494 0.35068687 4.79371361 -2.125 6.25 C-2.74375 6.4975 -3.3625 6.745 -4 7 C-3.6875 4.625 -3.6875 4.625 -3 2 C-2.01 1.34 -1.02 0.68 0 0 Z " fill="#ADD9DF" transform="translate(153,80)"/>
<path d="M0 0 C4.95 0.99 4.95 0.99 10 2 C9.67 2.66 9.34 3.32 9 4 C6.69 4 4.38 4 2 4 C1.34 2.68 0.68 1.36 0 0 Z " fill="#DDF3F6" transform="translate(167,215)"/>
<path d="M0 0 C0.66 0 1.32 0 2 0 C4.09230769 4.43076923 4.09230769 4.43076923 3.625 7.3125 C3.41875 7.869375 3.2125 8.42625 3 9 C0.23776722 6.23776722 0.42143709 3.79293383 0 0 Z " fill="#9AB4B6" transform="translate(317,168)"/>
<path d="M0 0 C0.66 0 1.32 0 2 0 C1.25 4.75 1.25 4.75 -1 7 C-1.99 6.67 -2.98 6.34 -4 6 C-2.7260411 3.96166576 -1.38938077 1.96147874 0 0 Z " fill="#C0D9DD" transform="translate(250,172)"/>
<path d="M0 0 C0.99 0.33 1.98 0.66 3 1 C3 1.99 3 2.98 3 4 C2.34 4 1.68 4 1 4 C1 6.97 1 9.94 1 13 C0.67 13 0.34 13 0 13 C0 8.71 0 4.42 0 0 Z " fill="#77BFDC" transform="translate(188,152)"/>
<path d="M0 0 C7.57142857 4.14285714 7.57142857 4.14285714 10 7 C6.65580848 7 5.93159679 6.52480606 3.3125 4.625 C2.68988281 4.18414062 2.06726563 3.74328125 1.42578125 3.2890625 C0.95527344 2.86367187 0.48476563 2.43828125 0 2 C0 1.34 0 0.68 0 0 Z " fill="#96BFC6" transform="translate(409,119)"/>
<path d="M0 0 C0.66 0.33 1.32 0.66 2 1 C1.3125 2.9375 1.3125 2.9375 0 5 C-2.625 5.75 -2.625 5.75 -5 6 C-3.63016497 2.83884224 -3.0109362 2.0072908 0 0 Z " fill="#D0E2F2" transform="translate(190,56)"/>
<path d="M0 0 C1.4540625 0.61875 1.4540625 0.61875 2.9375 1.25 C3.2675 2.24 3.5975 3.23 3.9375 4.25 C0.11652761 3.71930939 -2.12421403 2.75298434 -5.0625 0.25 C-3.0625 -0.75 -3.0625 -0.75 0 0 Z " fill="#74A0A6" transform="translate(275.0625,211.75)"/>
<path d="M0 0 C0.78375 0.04125 1.5675 0.0825 2.375 0.125 C0.395 1.115 0.395 1.115 -1.625 2.125 C-1.295 2.785 -0.965 3.445 -0.625 4.125 C-1.285 4.125 -1.945 4.125 -2.625 4.125 C-2.955 4.785 -3.285 5.445 -3.625 6.125 C-4.615 6.125 -5.605 6.125 -6.625 6.125 C-3.85227273 0.18344156 -3.85227273 0.18344156 0 0 Z " fill="#1CACF3" transform="translate(284.625,177.875)"/>
<path d="M0 0 C4 2 4 2 4.875 4.5 C4.91625 5.325 4.9575 6.15 5 7 C4.34 7.66 3.68 8.32 3 9 C2.01 6.03 1.02 3.06 0 0 Z " fill="#B5D0D6" transform="translate(449,152)"/>
<path d="M0 0 C0.66 0.33 1.32 0.66 2 1 C1 4 1 4 -2 6 C-2.99 5.67 -3.98 5.34 -5 5 C-3.35 3.35 -1.7 1.7 0 0 Z " fill="#BEDCE4" transform="translate(210,43)"/>
<path d="M0 0 C0.33 0.99 0.66 1.98 1 3 C0.01 4.485 0.01 4.485 -1 6 C-2.32 5.67 -3.64 5.34 -5 5 C-3.35 3.35 -1.7 1.7 0 0 Z " fill="#99B0C7" transform="translate(426,213)"/>
<path d="M0 0 C0 0.99 0 1.98 0 3 C-2.5 5.1875 -2.5 5.1875 -5 7 C-5 5.68 -5 4.36 -5 3 C-2.5 1.25 -2.5 1.25 0 0 Z " fill="#116592" transform="translate(75,122)"/>
<path d="M0 0 C3.93673644 1.31224548 6.22719294 2.91910327 9 6 C5.51669784 5.35494404 2.90567134 4.01782732 0 2 C0 1.34 0 0.68 0 0 Z " fill="#DFF7FF" transform="translate(381,101)"/>
<path d="M0 0 C-0.33 1.32 -0.66 2.64 -1 4 C-2.65 4.33 -4.3 4.66 -6 5 C-3.74193548 0 -3.74193548 0 0 0 Z " fill="#C9E5EA" transform="translate(149,84)"/>
<path d="M0 0 C0.66 0.33 1.32 0.66 2 1 C1.67 1.99 1.34 2.98 1 4 C-1.5625 5.1875 -1.5625 5.1875 -4 6 C-2.25 1.125 -2.25 1.125 0 0 Z " fill="#A1C2D1" transform="translate(215,40)"/>
<path d="M0 0 C1.98 0 3.96 0 6 0 C6.33 0.66 6.66 1.32 7 2 C4.69 2.33 2.38 2.66 0 3 C0 2.01 0 1.02 0 0 Z " fill="#98B5B8" transform="translate(293,214)"/>
<path d="M0 0 C0.66 0.66 1.32 1.32 2 2 C-1.44450737 4.29633824 -3.93812283 4.54016485 -8 5 C-6.37633534 1.75267068 -3.24612161 1.29844864 0 0 Z " fill="#E5F9FF" transform="translate(283,196)"/>
</svg>
