<?xml version="1.0" encoding="UTF-8"?>
<svg version="1.1" xmlns="http://www.w3.org/2000/svg" width="500" height="500">
<path d="M0 0 C0.71827972 0.00233139 1.43655945 0.00466278 2.17660522 0.00706482 C3.68784542 0.0167703 5.19905098 0.03848406 6.70996094 0.0715332 C9.02333359 0.12109152 11.33458101 0.13302473 13.6484375 0.13867188 C15.1198143 0.15275371 16.59117266 0.16895664 18.0625 0.1875 C18.75316559 0.1928627 19.44383118 0.1982254 20.15542603 0.20375061 C23.77341286 0.2935231 25.30291327 0.49491093 28.3984375 2.55859375 C29.43743533 5.37892535 29.52226296 8.04050658 29.51869202 11.02581787 C29.52006668 11.9148027 29.52144135 12.80378754 29.52285767 13.7197113 C29.51746475 15.17088097 29.51746475 15.17088097 29.51196289 16.65136719 C29.51210892 17.6760762 29.51225494 18.70078522 29.5124054 19.75654602 C29.51170871 23.14370846 29.50392765 26.53081592 29.49609375 29.91796875 C29.49422871 32.26637746 29.49280521 34.61478656 29.49180603 36.9631958 C29.48798766 43.14456252 29.47816314 49.32590575 29.46710205 55.50726318 C29.45687334 61.81473472 29.45230528 68.12221006 29.44726562 74.4296875 C29.4365403 86.80599991 29.419472 99.18229487 29.3984375 111.55859375 C30.65914063 111.28660156 31.91984375 111.01460938 33.21875 110.734375 C33.92789551 110.58137939 34.63704102 110.42838379 35.36767578 110.27075195 C38.99001962 109.00044936 40.29350705 106.71598943 42.3984375 103.55859375 C44.18061488 99.82707532 44.65418498 96.86768002 44.6730957 92.74609375 C44.68262772 91.60140625 44.69215973 90.45671875 44.70198059 89.27734375 C44.70106918 88.05015625 44.70015778 86.82296875 44.69921875 85.55859375 C44.70564644 83.6559375 44.70564644 83.6559375 44.71220398 81.71484375 C44.71794288 79.03501492 44.7193878 76.35557185 44.71411133 73.67578125 C44.70831236 70.24930204 44.72526597 66.82336263 44.748456 63.39697266 C44.76676381 60.11751715 44.76300761 56.83809115 44.76171875 53.55859375 C44.7709285 52.33140625 44.78013824 51.10421875 44.78962708 49.83984375 C44.78028389 48.1228125 44.78028389 48.1228125 44.77075195 46.37109375 C44.77138138 45.36691406 44.7720108 44.36273438 44.7726593 43.328125 C44.33773168 40.10932362 43.0996155 38.28828976 41.3984375 35.55859375 C41.46355041 31.78204513 41.57029442 29.50942469 44.0859375 26.62109375 C47.07631298 25.24713745 49.1367036 25.2188298 52.3984375 25.55859375 C56.0984375 26.95859375 56.0984375 26.95859375 57.3984375 29.55859375 C57.87280639 35.96257378 57.87280639 35.96257378 55.90586853 38.43392944 C53.96218725 41.1734712 54.02630312 42.84081967 54.02954102 46.17822266 C54.02265762 47.30684723 54.01577423 48.4354718 54.00868225 49.59829712 C54.01791969 51.42329239 54.01791969 51.42329239 54.02734375 53.28515625 C54.00995283 55.86979293 53.99236854 58.45442832 53.97460938 61.0390625 C53.96156033 65.10726109 53.96092994 69.17543748 53.96264648 73.24365234 C53.9627079 77.17433751 53.93164648 81.10458102 53.90234375 85.03515625 C53.91052628 86.23967438 53.9187088 87.4441925 53.92713928 88.68521118 C53.85181394 97.29845456 52.49813277 104.33173657 47.3359375 111.37109375 C42.24690954 115.16079542 36.39896236 117.5584188 30.3984375 119.55859375 C30.39257126 120.28664719 30.38670502 121.01470062 30.38066101 121.76481628 C30.32268666 128.63589933 30.25058274 135.50670555 30.16272259 142.37746716 C30.11805086 145.90958041 30.07878812 149.44157919 30.05200195 152.97387695 C30.0209467 157.03756697 29.96615916 161.10063917 29.91015625 165.1640625 C29.90376633 166.42880905 29.8973764 167.6935556 29.89079285 168.99662781 C29.87099869 170.17747452 29.85120453 171.35832123 29.83081055 172.57495117 C29.81970749 173.61197678 29.80860443 174.64900238 29.79716492 175.717453 C29.29662697 179.28404685 27.96412306 181.99290819 25.3984375 184.55859375 C20.60798283 184.84995253 15.81482538 184.87262369 11.01635742 184.90869141 C9.40130187 184.92523944 7.7863192 184.95251484 6.17163086 184.99072266 C3.84450251 185.04552347 1.51909314 185.0673691 -0.80859375 185.08203125 C-1.52852005 185.10470062 -2.24844635 185.12737 -2.9901886 185.15072632 C-6.50989039 185.13591291 -8.20631791 184.93540387 -10.7918539 182.47045898 C-13.04426561 178.84627365 -13.10684312 176.63744863 -13.1162262 172.38525391 C-13.12317172 171.6739715 -13.13011725 170.96268909 -13.13727325 170.22985268 C-13.15553503 167.85213268 -13.14528199 165.47541139 -13.13500977 163.09765625 C-13.14206865 161.39075983 -13.15081353 159.68386966 -13.16111755 157.97698975 C-13.18362354 153.3447639 -13.18066923 148.71287952 -13.17179608 144.08061981 C-13.16668733 140.21364584 -13.17397775 136.34673611 -13.18126816 132.47976875 C-13.19827063 123.35820022 -13.19469736 114.23679896 -13.17797852 105.11523438 C-13.16105054 95.70324925 -13.1769002 86.29172768 -13.2092014 76.87979317 C-13.23588418 68.79896677 -13.24317703 60.71828478 -13.23468632 52.63741875 C-13.22975402 47.8110106 -13.23198921 42.9848815 -13.25247383 38.1585083 C-13.2708108 33.62094305 -13.26489683 29.08404563 -13.24027443 24.54651642 C-13.23526048 22.88123153 -13.23877149 21.21589593 -13.25142288 19.55065155 C-13.26733043 17.27697558 -13.25242837 15.00550514 -13.22975159 12.73193359 C-13.22916528 11.45990082 -13.22857897 10.18786804 -13.22797489 8.87728882 C-11.82652007 1.45246573 -6.84072663 -0.19459935 0 0 Z " fill="#152A47" transform="translate(294.6015625,136.44140625)"/>
<path d="M0 0 C2.25639809 -0.00969868 4.51188243 -0.0407175 6.76806641 -0.07226562 C8.20425892 -0.0787966 9.64045794 -0.0840467 11.07666016 -0.08789062 C12.3836084 -0.09723633 13.69055664 -0.10658203 15.03710938 -0.11621094 C18.80885405 0.28393055 19.9219179 0.40519159 22.39697266 3.24023438 C23.03350027 6.49651337 22.97072408 9.73681735 22.95874023 13.04589844 C22.97660096 14.56429542 22.97660096 14.56429542 22.9948225 16.11336708 C23.02954526 19.49433373 23.03564545 22.87472871 23.04150391 26.25585938 C23.05962151 28.6385318 23.07934539 31.02119248 23.10058594 33.40383911 C23.15182241 39.78270549 23.17726315 46.16142354 23.19610977 52.54045868 C23.21384787 57.78345171 23.24428472 63.02634238 23.27421093 68.26927757 C23.36547768 84.59292574 23.3981706 100.9163488 23.39697266 117.24023438 C23.39705322 118.25960587 23.39713379 119.27897736 23.3972168 120.32923889 C23.39634417 130.77973 23.36765451 141.22917617 23.25180054 151.67907715 C23.22370156 154.29205954 23.20121251 156.90510859 23.18447876 159.51818848 C23.15775469 163.03820353 23.10482382 166.55665114 23.04150391 170.07617188 C23.03707275 171.07166046 23.0326416 172.06714905 23.02807617 173.09280396 C22.92910117 176.97439251 22.85449792 179.49014912 20.80981445 182.84228516 C17.47983217 184.77160607 14.9868788 184.75809825 11.14697266 184.77148438 C10.4518457 184.77531128 9.75671875 184.77913818 9.04052734 184.78308105 C7.57469225 184.78579617 6.10880838 184.77846273 4.64306641 184.76171875 C2.40368291 184.74029856 0.16750679 184.7615288 -2.07177734 184.78710938 C-3.49886773 184.78446602 -4.92595613 184.77934088 -6.35302734 184.77148438 C-7.64724609 184.76697266 -8.94146484 184.76246094 -10.27490234 184.7578125 C-14.24632834 184.1401905 -15.16916666 183.36702014 -17.60302734 180.24023438 C-18.12200928 177.44342041 -18.12200928 177.44342041 -18.14892578 174.18652344 C-18.16864441 172.96555969 -18.18836304 171.74459595 -18.2086792 170.4866333 C-18.20990784 169.17297791 -18.21113647 167.85932251 -18.21240234 166.50585938 C-18.22738727 165.14392125 -18.2441151 163.78200128 -18.26251221 162.42010498 C-18.30616405 158.84282589 -18.32617958 155.26579191 -18.34124756 151.68829346 C-18.36082681 148.03488687 -18.40279576 144.3817447 -18.44287109 140.72851562 C-18.51814942 133.56582633 -18.56845479 126.40324809 -18.60302734 119.24023438 C-19.86920898 118.94076904 -21.13539063 118.64130371 -22.43994141 118.33276367 C-28.51141547 116.89679593 -33.21195522 113.3341766 -37.02490234 108.40039062 C-40.15444569 103.21850182 -40.72424577 98.37879517 -40.74487305 92.44360352 C-40.7519075 91.30214371 -40.75894196 90.1606839 -40.76618958 88.9846344 C-40.77243599 87.14855873 -40.77243599 87.14855873 -40.77880859 85.27539062 C-40.80199943 82.67577309 -40.82611646 80.07616368 -40.85107422 77.4765625 C-40.88746578 73.38386969 -40.91725044 69.29132963 -40.92895508 65.19848633 C-40.94099937 61.24467369 -40.98460977 57.29147803 -41.02880859 53.33789062 C-41.02690018 52.11586441 -41.02499176 50.8938382 -41.02302551 49.63478088 C-41.11686917 43.12122902 -41.38829162 39.27329417 -45.60302734 34.24023438 C-45.60302734 30.96567233 -44.85294594 29.59588776 -42.97802734 26.92773438 C-39.62040038 24.54205206 -37.63514099 24.60358485 -33.60302734 25.24023438 C-30.60302734 27.36523438 -30.60302734 27.36523438 -28.60302734 30.24023438 C-28.60302734 33.73979427 -29.27053597 35.71438974 -31.13623047 38.66503906 C-33.2901361 43.91500479 -33.07078439 48.88225408 -33.07177734 54.50585938 C-33.07939087 55.69443542 -33.08700439 56.88301147 -33.09484863 58.10760498 C-33.10563756 60.61907862 -33.10850767 63.13059707 -33.10400391 65.64208984 C-33.10303417 69.46333729 -33.14462105 73.28255914 -33.18896484 77.10351562 C-33.19417423 79.55012605 -33.19686 81.99674341 -33.19677734 84.44335938 C-33.21317261 85.57598206 -33.22956787 86.70860474 -33.24645996 87.87554932 C-33.18221906 95.33847855 -31.83795722 101.00520392 -27.60302734 107.24023438 C-24.37499484 109.90336119 -21.64236513 110.47949242 -17.60302734 111.24023438 C-17.60746857 109.92114075 -17.61190979 108.60204712 -17.6164856 107.24298096 C-17.65699409 94.82381041 -17.68699368 82.40465324 -17.70665169 69.98543167 C-17.71709772 63.60028586 -17.73127195 57.21519329 -17.75390625 50.83007812 C-17.77560528 44.6703921 -17.7875898 38.51075736 -17.79278183 32.35103607 C-17.79648286 29.99865664 -17.80370986 27.64628008 -17.81448746 25.29392242 C-17.82896316 22.00415436 -17.83100691 18.71459938 -17.83007812 15.42480469 C-17.83726868 14.44800751 -17.84445923 13.47121033 -17.85186768 12.46481323 C-17.84911835 11.56741425 -17.84636902 10.67001526 -17.84353638 9.74542236 C-17.84537996 8.96742908 -17.84722355 8.18943581 -17.849123 7.38786697 C-17.56742187 4.92951177 -16.90820166 3.33436516 -15.60302734 1.24023438 C-11.11687925 -1.00283967 -4.99097421 0.01301145 0 0 Z " fill="#51989B" transform="translate(194.60302734375,136.759765625)"/>
<path d="M0 0 C0.74567734 -0.00191345 1.49135468 -0.0038269 2.2596283 -0.00579834 C3.83397764 -0.00715802 5.40833828 -0.00347673 6.98266602 0.00488281 C9.39690196 0.01560084 11.81039635 0.00497282 14.22460938 -0.0078125 C15.7539079 -0.00649116 17.28320596 -0.0039293 18.8125 0 C19.53647476 -0.00404846 20.26044952 -0.00809692 21.00636292 -0.01226807 C26.1099098 0.03569105 26.1099098 0.03569105 28.33984375 2.265625 C28.59431934 5.22076321 28.59431934 5.22076321 28.60054016 9.09165955 C28.60627848 10.15685494 28.60627848 10.15685494 28.61213273 11.24356943 C28.62249284 13.63502871 28.61846496 16.02624924 28.61450195 18.41772461 C28.61884678 20.12741825 28.62402915 21.83710994 28.62998962 23.54679871 C28.64341576 28.1996477 28.64395428 32.85241565 28.64142632 37.50528026 C28.64035904 41.38470193 28.64523376 45.26410704 28.65003175 49.14352518 C28.66113947 58.29320574 28.66155726 67.44284525 28.65551758 76.5925293 C28.64947578 86.04243679 28.66179113 95.49219548 28.68308765 104.94207758 C28.70068104 113.04571673 28.70670858 121.14930843 28.7034499 129.25296599 C28.70163325 134.09717671 28.70431107 138.94128128 28.71816444 143.78547478 C28.73070144 148.34007449 28.72883805 152.89444159 28.71575356 157.44903755 C28.71337917 159.12322695 28.71615314 160.79743251 28.72437668 162.47160339 C28.73477352 164.75221119 28.72680135 167.0320282 28.71406555 169.31260681 C28.71423329 170.59037963 28.71440104 171.86815245 28.71457386 173.18464565 C28.33984375 176.265625 28.33984375 176.265625 27.03082561 178.17691898 C24.16574513 180.02154572 20.97633728 179.67096081 17.6796875 179.62890625 C16.56117149 179.62965401 16.56117149 179.62965401 15.4200592 179.63041687 C13.84568615 179.62807861 12.2713092 179.61836455 10.69702148 179.60180664 C8.28270197 179.57817744 5.86948415 179.58125156 3.45507812 179.58789062 C1.92577465 179.58231496 0.39647583 179.57520578 -1.1328125 179.56640625 C-2.21877464 179.56777336 -2.21877464 179.56777336 -3.32667542 179.56916809 C-8.42911062 179.49667063 -8.42911062 179.49667063 -10.66015625 177.265625 C-10.9139648 174.37967017 -11.03545658 171.58702757 -11.07421875 168.6953125 C-11.10340393 167.29227119 -11.10340393 167.29227119 -11.13317871 165.86088562 C-11.19555015 162.62089356 -11.24108805 159.3809153 -11.28515625 156.140625 C-11.30350525 155.00567596 -11.32185425 153.87072693 -11.34075928 152.7013855 C-11.77330562 125.59107023 -11.76587592 98.47517396 -11.78264618 71.36209869 C-11.78514868 67.83878907 -11.78911347 64.31548331 -11.79327393 60.79217529 C-11.79921471 55.14400664 -11.79914484 49.49586597 -11.79460144 43.8476963 C-11.79353015 41.74592928 -11.79403653 39.64416074 -11.79627991 37.54239464 C-11.8047163 28.02269956 -11.78603227 18.50295069 -11.33935547 8.99194336 C-11.28254608 7.73208115 -11.22573669 6.47221893 -11.16720581 5.17417908 C-10.99987946 4.21435623 -10.8325531 3.25453339 -10.66015625 2.265625 C-6.99584544 -0.17724887 -4.23663192 -0.02375764 0 0 Z " fill="#2D3C55" transform="translate(241.66015625,119.734375)"/>
<path d="M0 0 C2.25639809 -0.00969868 4.51188243 -0.0407175 6.76806641 -0.07226562 C8.20425892 -0.0787966 9.64045794 -0.0840467 11.07666016 -0.08789062 C12.3836084 -0.09723633 13.69055664 -0.10658203 15.03710938 -0.11621094 C18.80885405 0.28393055 19.9219179 0.40519159 22.39697266 3.24023438 C23.03350027 6.49651337 22.97072408 9.73681735 22.95874023 13.04589844 C22.97660096 14.56429542 22.97660096 14.56429542 22.9948225 16.11336708 C23.02954526 19.49433373 23.03564545 22.87472871 23.04150391 26.25585938 C23.05962151 28.6385318 23.07934539 31.02119248 23.10058594 33.40383911 C23.15182241 39.78270549 23.17726315 46.16142354 23.19610977 52.54045868 C23.21384787 57.78345171 23.24428472 63.02634238 23.27421093 68.26927757 C23.36547768 84.59292574 23.3981706 100.9163488 23.39697266 117.24023438 C23.39705322 118.25960587 23.39713379 119.27897736 23.3972168 120.32923889 C23.39634417 130.77973 23.36765451 141.22917617 23.25180054 151.67907715 C23.22370156 154.29205954 23.20121251 156.90510859 23.18447876 159.51818848 C23.15775469 163.03820353 23.10482382 166.55665114 23.04150391 170.07617188 C23.03707275 171.07166046 23.0326416 172.06714905 23.02807617 173.09280396 C22.92909935 176.97446421 22.85203142 179.49189683 20.81201172 182.84667969 C17.46289141 184.77922909 14.96849493 184.72554041 11.11181641 184.70117188 C10.06556847 184.69979721 10.06556847 184.69979721 8.9981842 184.69839478 C7.52809822 184.69236853 6.05802397 184.6766515 4.58813477 184.65185547 C2.33840721 184.61529831 0.09032592 184.61083659 -2.15966797 184.61132812 C-13.15978523 184.53572912 -13.15978523 184.53572912 -16.60302734 182.24023438 C-16.27302734 181.58023438 -15.94302734 180.92023438 -15.60302734 180.24023438 C-15.27302734 180.57023438 -14.94302734 180.90023437 -14.60302734 181.24023438 C-10.07888409 181.45904963 -5.54940969 181.42602503 -1.02050781 181.42553711 C1.25556262 181.42771865 3.53114465 181.44585667 5.80712891 181.46484375 C7.25113766 181.4677786 8.69514872 181.46976278 10.13916016 181.47070312 C11.45770996 181.47481201 12.77625977 181.4789209 14.13476562 181.4831543 C17.54259946 181.49803624 17.54259946 181.49803624 20.39697266 179.24023438 C20.84517695 176.27465412 20.84517695 176.27465412 20.75341797 172.71459961 C20.75645054 171.69698359 20.75645054 171.69698359 20.75954437 170.65880966 C20.76253104 168.3718913 20.74380401 166.08566472 20.72509766 163.79882812 C20.72236219 162.16034601 20.72086658 160.52186143 20.72052002 158.88337708 C20.71545972 154.41490673 20.69103924 149.94672466 20.66287231 145.47834778 C20.64168993 141.7472188 20.6316108 138.01609467 20.62158203 134.28492165 C20.50418975 91.60167911 19.97285469 48.91938903 19.39697266 6.24023438 C17.47150826 5.09116318 17.47150826 5.09116318 15.39697266 5.24023438 C14.73697266 5.57023438 14.07697266 5.90023437 13.39697266 6.24023438 C13.39697266 4.59023437 13.39697266 2.94023437 13.39697266 1.24023438 C12.73052734 1.31242188 12.06408203 1.38460937 11.37744141 1.45898438 C5.40920465 2.05998164 -0.39177228 2.29515744 -6.38818359 2.08007812 C-8.81150087 2.01252969 -8.81150087 2.01252969 -10.60302734 4.24023438 C-12.60302734 6.24023438 -12.60302734 6.24023438 -14.60302734 7.24023438 C-14.59142578 8.50738281 -14.57982422 9.77453125 -14.56787109 11.08007812 C-14.55848315 12.77929539 -14.54938404 14.47851426 -14.54052734 16.17773438 C-14.53214844 17.00853516 -14.52376953 17.83933594 -14.51513672 18.6953125 C-14.49596528 23.6223735 -14.7587488 28.35840846 -15.48413086 33.23461914 C-15.61546055 35.44996495 -15.21274534 37.11803764 -14.60302734 39.24023438 C-14.2698802 44.10026331 -14.63745914 48.94160208 -15.09106445 53.78222656 C-15.62719261 60.0469202 -15.81974272 66.28341904 -15.91943359 72.56835938 C-15.94021469 73.6833783 -15.96099579 74.79839722 -15.98240662 75.94720459 C-16.04707987 79.46149349 -16.10639916 82.97584826 -16.16552734 86.49023438 C-16.20879104 88.89258456 -16.25240763 91.29492843 -16.29638672 93.69726562 C-16.40267515 99.54485502 -16.50458417 105.39250792 -16.60302734 111.24023438 C-14.31077299 111.12651941 -12.01920346 110.99892473 -9.72802734 110.86523438 C-7.81376953 110.76082031 -7.81376953 110.76082031 -5.86083984 110.65429688 C-2.52241035 110.56782331 -2.52241035 110.56782331 -0.60302734 108.24023438 C2.440909 108.43452818 4.68471778 108.82666703 7.33447266 110.36523438 C9.09343903 113.46929269 8.24633853 115.90343986 7.39697266 119.24023438 C4.39697266 121.24023438 4.39697266 121.24023438 1.20947266 120.86523438 C0.28134766 120.65898437 -0.64677734 120.45273437 -1.60302734 120.24023438 C-1.93302734 119.25023437 -2.26302734 118.26023437 -2.60302734 117.24023438 C-7.55302734 117.24023438 -12.50302734 117.24023438 -17.60302734 117.24023438 C-17.93302734 117.90023437 -18.26302734 118.56023437 -18.60302734 119.24023438 C-26.27351059 117.98506439 -32.2039916 114.63843722 -37.02490234 108.40039062 C-40.15444569 103.21850182 -40.72424577 98.37879517 -40.74487305 92.44360352 C-40.7519075 91.30214371 -40.75894196 90.1606839 -40.76618958 88.9846344 C-40.77243599 87.14855873 -40.77243599 87.14855873 -40.77880859 85.27539062 C-40.80199943 82.67577309 -40.82611646 80.07616368 -40.85107422 77.4765625 C-40.88746578 73.38386969 -40.91725044 69.29132963 -40.92895508 65.19848633 C-40.94099937 61.24467369 -40.98460977 57.29147803 -41.02880859 53.33789062 C-41.02690018 52.11586441 -41.02499176 50.8938382 -41.02302551 49.63478088 C-41.11686917 43.12122902 -41.38829162 39.27329417 -45.60302734 34.24023438 C-45.60302734 30.96567233 -44.85294594 29.59588776 -42.97802734 26.92773438 C-39.62040038 24.54205206 -37.63514099 24.60358485 -33.60302734 25.24023438 C-30.60302734 27.36523438 -30.60302734 27.36523438 -28.60302734 30.24023438 C-28.60302734 33.73979427 -29.27053597 35.71438974 -31.13623047 38.66503906 C-33.2901361 43.91500479 -33.07078439 48.88225408 -33.07177734 54.50585938 C-33.07939087 55.69443542 -33.08700439 56.88301147 -33.09484863 58.10760498 C-33.10563756 60.61907862 -33.10850767 63.13059707 -33.10400391 65.64208984 C-33.10303417 69.46333729 -33.14462105 73.28255914 -33.18896484 77.10351562 C-33.19417423 79.55012605 -33.19686 81.99674341 -33.19677734 84.44335938 C-33.21317261 85.57598206 -33.22956787 86.70860474 -33.24645996 87.87554932 C-33.18221906 95.33847855 -31.83795722 101.00520392 -27.60302734 107.24023438 C-24.37499484 109.90336119 -21.64236513 110.47949242 -17.60302734 111.24023438 C-17.60746857 109.92114075 -17.61190979 108.60204712 -17.6164856 107.24298096 C-17.65699409 94.82381041 -17.68699368 82.40465324 -17.70665169 69.98543167 C-17.71709772 63.60028586 -17.73127195 57.21519329 -17.75390625 50.83007812 C-17.77560528 44.6703921 -17.7875898 38.51075736 -17.79278183 32.35103607 C-17.79648286 29.99865664 -17.80370986 27.64628008 -17.81448746 25.29392242 C-17.82896316 22.00415436 -17.83100691 18.71459938 -17.83007812 15.42480469 C-17.83726868 14.44800751 -17.84445923 13.47121033 -17.85186768 12.46481323 C-17.84911835 11.56741425 -17.84636902 10.67001526 -17.84353638 9.74542236 C-17.84537996 8.96742908 -17.84722355 8.18943581 -17.849123 7.38786697 C-17.56742187 4.92951177 -16.90820166 3.33436516 -15.60302734 1.24023438 C-11.11687925 -1.00283967 -4.99097421 0.01301145 0 0 Z " fill="#DEB969" transform="translate(194.60302734375,136.759765625)"/>
<path d="M0 0 C0.99 0.33 1.98 0.66 3 1 C4.06826306 3.80158304 4.12381234 6.49288517 4.12025452 9.46722412 C4.12162918 10.35620895 4.12300385 11.24519379 4.12442017 12.16111755 C4.11902725 13.61228722 4.11902725 13.61228722 4.11352539 15.09277344 C4.11367142 16.11748245 4.11381744 17.14219147 4.1139679 18.19795227 C4.11327121 21.58511471 4.10549015 24.97222217 4.09765625 28.359375 C4.09579121 30.70778371 4.09436771 33.05619281 4.09336853 35.40460205 C4.08955016 41.58596877 4.07972564 47.767312 4.06866455 53.94866943 C4.05843584 60.25614097 4.05386778 66.56361631 4.04882812 72.87109375 C4.0381028 85.24740616 4.0210345 97.62370112 4 110 C5.26070313 109.72800781 6.52140625 109.45601563 7.8203125 109.17578125 C8.52945801 109.02278564 9.23860352 108.86979004 9.96923828 108.7121582 C13.59158212 107.44185561 14.89506955 105.15739568 17 102 C18.78217738 98.26848157 19.25574748 95.30908627 19.2746582 91.1875 C19.28419022 90.0428125 19.29372223 88.898125 19.30354309 87.71875 C19.30263168 86.4915625 19.30172028 85.264375 19.30078125 84 C19.30720894 82.09734375 19.30720894 82.09734375 19.31376648 80.15625 C19.31950538 77.47642117 19.3209503 74.7969781 19.31567383 72.1171875 C19.30987486 68.69070829 19.32682847 65.26476888 19.3500185 61.83837891 C19.36832631 58.5589234 19.36457011 55.2794974 19.36328125 52 C19.372491 50.7728125 19.38170074 49.545625 19.39118958 48.28125 C19.38184639 46.56421875 19.38184639 46.56421875 19.37231445 44.8125 C19.37294388 43.80832031 19.3735733 42.80414063 19.3742218 41.76953125 C18.93929418 38.55072987 17.701178 36.72969601 16 34 C16.06511291 30.22345138 16.17185692 27.95083094 18.6875 25.0625 C21.67787548 23.6885437 23.7382661 23.66023605 27 24 C30.7 25.4 30.7 25.4 32 28 C32.47436889 34.40398003 32.47436889 34.40398003 30.50743103 36.87533569 C28.56374975 39.61487745 28.62786562 41.28222592 28.63110352 44.61962891 C28.62422012 45.74825348 28.61733673 46.87687805 28.61024475 48.03970337 C28.61948219 49.86469864 28.61948219 49.86469864 28.62890625 51.7265625 C28.61151533 54.31119918 28.59393104 56.89583457 28.57617188 59.48046875 C28.56312283 63.54866734 28.56249244 67.61684373 28.56420898 71.68505859 C28.5642704 75.61574376 28.53320898 79.54598727 28.50390625 83.4765625 C28.51208878 84.68108063 28.5202713 85.88559875 28.52870178 87.12661743 C28.45337644 95.73986081 27.09969527 102.77314282 21.9375 109.8125 C16.84847204 113.60220167 11.00052486 115.99982505 5 118 C4.99413376 118.72805344 4.98826752 119.45610687 4.98222351 120.20622253 C4.92424916 127.07730558 4.85214524 133.9481118 4.76428509 140.81887341 C4.71961336 144.35098666 4.68035062 147.88298544 4.65356445 151.4152832 C4.6225092 155.47897322 4.56772166 159.54204542 4.51171875 163.60546875 C4.50532883 164.8702153 4.4989389 166.13496185 4.49235535 167.43803406 C4.47256119 168.61888077 4.45276703 169.79972748 4.43237305 171.01635742 C4.42126999 172.05338303 4.41016693 173.09040863 4.39872742 174.15885925 C3.89818947 177.7254531 2.56568556 180.43431444 0 183 C-2.48580824 183.13805814 -4.94191317 183.21307742 -7.4296875 183.23828125 C-8.17582306 183.246353 -8.92195862 183.25442474 -9.69070435 183.26274109 C-11.27278306 183.27659541 -12.85489184 183.28731152 -14.43701172 183.29516602 C-16.85832295 183.31238143 -19.27826969 183.35625232 -21.69921875 183.40039062 C-23.23436493 183.41051702 -24.76952275 183.4190333 -26.3046875 183.42578125 C-27.02977509 183.44328934 -27.75486267 183.46079742 -28.50192261 183.47883606 C-30.55419922 183.4699707 -30.55419922 183.4699707 -34 183 C-35.98095703 180.97338867 -35.98095703 180.97338867 -37 179 C-36.01 179.33 -35.02 179.66 -34 180 C-31.51023004 180.12018198 -29.0491709 180.18800573 -26.55859375 180.203125 C-25.83511246 180.20882507 -25.11163116 180.21452515 -24.3662262 180.22039795 C-22.83897356 180.22983198 -21.31170072 180.23637559 -19.78442383 180.24023438 C-17.44251508 180.24997913 -15.10146993 180.28103143 -12.75976562 180.3125 C-11.27604688 180.31902655 -9.79232186 180.32427839 -8.30859375 180.328125 C-7.60649277 180.3404718 -6.90439178 180.3528186 -6.18101501 180.36553955 C-3.99737272 180.39025665 -3.99737272 180.39025665 -1 180 C1.30875214 176.53687179 1.26826029 175.14896026 1.31884766 171.05981445 C1.33871735 169.83877518 1.35858704 168.6177359 1.37905884 167.35969543 C1.39061005 166.04087875 1.40216125 164.72206207 1.4140625 163.36328125 C1.43277347 161.99992194 1.45234683 160.63657421 1.4727478 159.27323914 C1.52408284 155.68780345 1.56370099 152.10233022 1.60089111 148.51672363 C1.64092231 144.85675762 1.69201865 141.19694799 1.7421875 137.53710938 C1.83896295 130.3581802 1.92336232 123.17917539 2 116 C-0.25071906 116.0872605 -2.50063388 116.19544115 -4.75 116.3125 C-6.00296875 116.37050781 -7.2559375 116.42851562 -8.546875 116.48828125 C-12.11877935 117.01760192 -13.30642064 117.76541623 -16 120 C-19.67293796 119.77962372 -21.36966546 119.63033454 -24 117 C-24.375 113.5625 -24.375 113.5625 -24 110 C-22.375 108 -22.375 108 -20 107 C-14.57446809 107.42553191 -14.57446809 107.42553191 -13 109 C-10.47403741 109.23653523 -7.96892793 109.42173692 -5.4375 109.5625 C-4.72658203 109.60568359 -4.01566406 109.64886719 -3.28320312 109.69335938 C-1.52238088 109.79971777 0.2387832 109.90038846 2 110 C1.89279617 96.10069329 1.77997653 82.20144193 1.66066074 68.3022337 C1.60542627 61.84872348 1.55200536 55.39520873 1.50268555 48.94165039 C1.45504984 42.71709488 1.4027072 36.49259532 1.34705925 30.26810646 C1.32663212 27.88980307 1.30791964 25.51148432 1.29092598 23.13315392 C1.26689002 19.80965994 1.23683415 16.4862721 1.20532227 13.1628418 C1.19668907 11.67822701 1.19668907 11.67822701 1.18788147 10.16362 C1.17809265 9.25918152 1.16830383 8.35474304 1.15821838 7.42289734 C1.15176583 6.63660792 1.14531328 5.85031851 1.1386652 5.04020214 C1.07203718 2.79749535 1.07203718 2.79749535 0 0 Z " fill="#E5C789" transform="translate(320,138)"/>
<path d="M0 0 C0.763125 0.2475 1.52625 0.495 2.3125 0.75 C3.055 0.275625 3.7975 -0.19875 4.5625 -0.6875 C8.0447362 -2.6660433 10.13177502 -2.54403766 14.0234375 -1.96484375 C17.90603838 -0.75235918 20.72541377 1.65473612 23.3125 4.75 C24.68149264 8.85697791 25.18348581 12.43552647 23.6171875 16.59765625 C20.31878959 22.54698879 15.19820046 26.80189818 10.15234375 31.234375 C7.33150545 33.61951234 7.33150545 33.61951234 5.25390625 36.140625 C3.3125 37.75 3.3125 37.75 0.76171875 37.72265625 C-2.05711628 36.60321459 -3.05205664 35.58216338 -4.875 33.1875 C-8.29083338 28.99841203 -12.11448795 25.90711293 -16.453125 22.70703125 C-19.47431023 20.06085328 -21.31644415 17.50014674 -22.15625 13.5390625 C-22.22996551 8.43426331 -21.46449775 5.10874939 -18.16796875 1.12890625 C-13.05930258 -3.62929733 -5.90171457 -2.74498352 0 0 Z " fill="#EEB437" transform="translate(249.6875,308.25)"/>
<path d="M0 0 C2.25639809 -0.00969868 4.51188243 -0.0407175 6.76806641 -0.07226562 C8.20425892 -0.0787966 9.64045794 -0.0840467 11.07666016 -0.08789062 C12.3836084 -0.09723633 13.69055664 -0.10658203 15.03710938 -0.11621094 C18.80885405 0.28393055 19.9219179 0.40519159 22.39697266 3.24023438 C23.03350027 6.49651337 22.97072408 9.73681735 22.95874023 13.04589844 C22.97064738 14.05816309 22.98255453 15.07042774 22.9948225 16.11336708 C23.02954526 19.49433373 23.03564545 22.87472871 23.04150391 26.25585938 C23.05962151 28.6385318 23.07934539 31.02119248 23.10058594 33.40383911 C23.15182241 39.78270549 23.17726315 46.16142354 23.19610977 52.54045868 C23.21384787 57.78345171 23.24428472 63.02634238 23.27421093 68.26927757 C23.36547768 84.59292574 23.3981706 100.9163488 23.39697266 117.24023438 C23.39705322 118.25960587 23.39713379 119.27897736 23.3972168 120.32923889 C23.39634417 130.77973 23.36765451 141.22917617 23.25180054 151.67907715 C23.22370156 154.29205954 23.20121251 156.90510859 23.18447876 159.51818848 C23.15775469 163.03820353 23.10482382 166.55665114 23.04150391 170.07617188 C23.03707275 171.07166046 23.0326416 172.06714905 23.02807617 173.09280396 C22.92909935 176.97446421 22.85203142 179.49189683 20.81201172 182.84667969 C17.46289141 184.77922909 14.96849493 184.72554041 11.11181641 184.70117188 C10.06556847 184.69979721 10.06556847 184.69979721 8.9981842 184.69839478 C7.52809822 184.69236853 6.05802397 184.6766515 4.58813477 184.65185547 C2.33840721 184.61529831 0.09032592 184.61083659 -2.15966797 184.61132812 C-13.15978523 184.53572912 -13.15978523 184.53572912 -16.60302734 182.24023438 C-16.10802734 181.25023437 -16.10802734 181.25023437 -15.60302734 180.24023438 C-15.27302734 180.57023438 -14.94302734 180.90023437 -14.60302734 181.24023438 C-10.07888409 181.45904963 -5.54940969 181.42602503 -1.02050781 181.42553711 C1.25556262 181.42771865 3.53114465 181.44585667 5.80712891 181.46484375 C7.25113766 181.4677786 8.69514872 181.46976278 10.13916016 181.47070312 C11.45770996 181.47481201 12.77625977 181.4789209 14.13476562 181.4831543 C17.54259946 181.49803624 17.54259946 181.49803624 20.39697266 179.24023438 C20.84517695 176.27465412 20.84517695 176.27465412 20.75341797 172.71459961 C20.75645054 171.69698359 20.75645054 171.69698359 20.75954437 170.65880966 C20.76253104 168.3718913 20.74380401 166.08566472 20.72509766 163.79882812 C20.72236219 162.16034601 20.72086658 160.52186143 20.72052002 158.88337708 C20.71545972 154.41490673 20.69103924 149.94672466 20.66287231 145.47834778 C20.64168993 141.7472188 20.6316108 138.01609467 20.62158203 134.28492165 C20.50418975 91.60167911 19.97285469 48.91938903 19.39697266 6.24023438 C17.47150826 5.09116318 17.47150826 5.09116318 15.39697266 5.24023438 C14.73697266 5.57023438 14.07697266 5.90023437 13.39697266 6.24023438 C13.39697266 4.59023437 13.39697266 2.94023437 13.39697266 1.24023438 C12.73052734 1.31242188 12.06408203 1.38460937 11.37744141 1.45898438 C5.40920465 2.05998164 -0.39177228 2.29515744 -6.38818359 2.08007812 C-8.81150087 2.01252969 -8.81150087 2.01252969 -10.60302734 4.24023438 C-12.60302734 6.24023438 -12.60302734 6.24023438 -14.60302734 7.24023438 C-14.59142578 8.50738281 -14.57982422 9.77453125 -14.56787109 11.08007812 C-14.55848315 12.77929539 -14.54938404 14.47851426 -14.54052734 16.17773438 C-14.52795898 17.42393555 -14.52795898 17.42393555 -14.51513672 18.6953125 C-14.49596528 23.6223735 -14.7587488 28.35840846 -15.48413086 33.23461914 C-15.61546055 35.44996495 -15.21274534 37.11803764 -14.60302734 39.24023438 C-14.2698802 44.10026331 -14.63745914 48.94160208 -15.09106445 53.78222656 C-15.62719261 60.0469202 -15.81974272 66.28341904 -15.91943359 72.56835938 C-15.94021469 73.6833783 -15.96099579 74.79839722 -15.98240662 75.94720459 C-16.04707987 79.46149349 -16.10639916 82.97584826 -16.16552734 86.49023438 C-16.20879104 88.89258456 -16.25240763 91.29492843 -16.29638672 93.69726562 C-16.40267515 99.54485502 -16.50458417 105.39250792 -16.60302734 111.24023438 C-16.93302734 111.24023438 -17.26302734 111.24023438 -17.60302734 111.24023438 C-17.64932721 97.48864798 -17.68488463 83.73708007 -17.70665169 69.98543167 C-17.71709772 63.60028586 -17.73127195 57.21519329 -17.75390625 50.83007812 C-17.77560528 44.6703921 -17.7875898 38.51075736 -17.79278183 32.35103607 C-17.79648286 29.99865664 -17.80370986 27.64628008 -17.81448746 25.29392242 C-17.82896316 22.00415436 -17.83100691 18.71459938 -17.83007812 15.42480469 C-17.83726868 14.44800751 -17.84445923 13.47121033 -17.85186768 12.46481323 C-17.84774368 11.11871475 -17.84774368 11.11871475 -17.84353638 9.74542236 C-17.84537996 8.96742908 -17.84722355 8.18943581 -17.849123 7.38786697 C-17.56742187 4.92951177 -16.90820166 3.33436516 -15.60302734 1.24023438 C-11.11687925 -1.00283967 -4.99097421 0.01301145 0 0 Z " fill="#7EAFB1" transform="translate(194.60302734375,136.759765625)"/>
<path d="M0 0 C2.66796875 0.33203125 2.66796875 0.33203125 4.6171875 2.1953125 C5.19082031 3.00355469 5.76445312 3.81179688 6.35546875 4.64453125 C7.22751953 5.84529297 7.22751953 5.84529297 8.1171875 7.0703125 C9.31373685 8.81540589 10.49427225 10.5714865 11.66796875 12.33203125 C12.32796875 12.33203125 12.98796875 12.33203125 13.66796875 12.33203125 C15.69031065 9.56725302 17.53813142 6.70931989 19.40234375 3.8359375 C21.66796875 1.33203125 21.66796875 1.33203125 24.87109375 0.421875 C25.7940625 0.39222656 26.71703125 0.36257813 27.66796875 0.33203125 C28.66796875 1.33203125 28.66796875 1.33203125 28.78149414 4.29125977 C28.77625732 5.58475342 28.77102051 6.87824707 28.765625 8.2109375 C28.76421005 8.89759995 28.7627951 9.58426239 28.76133728 10.29173279 C28.75572354 12.49270926 28.74316882 14.69358534 28.73046875 16.89453125 C28.72545551 18.38346208 28.7208923 19.87239449 28.71679688 21.36132812 C28.70574968 25.018262 28.68847588 28.67513683 28.66796875 32.33203125 C23.79296875 31.45703125 23.79296875 31.45703125 22.66796875 30.33203125 C22.51214572 28.99187904 22.41752733 27.64444222 22.3515625 26.296875 C22.30966797 25.48798828 22.26777344 24.67910156 22.22460938 23.84570312 C22.18529297 22.99556641 22.14597656 22.14542969 22.10546875 21.26953125 C22.06228516 20.41552734 22.01910156 19.56152344 21.97460938 18.68164062 C21.86820173 16.56531088 21.76755144 14.44869312 21.66796875 12.33203125 C19.02796875 15.63203125 16.38796875 18.93203125 13.66796875 22.33203125 C7.98022933 20.91009639 6.97182811 18.06255715 3.66796875 13.33203125 C3.33796875 19.27203125 3.00796875 25.21203125 2.66796875 31.33203125 C1.34796875 31.66203125 0.02796875 31.99203125 -1.33203125 32.33203125 C-3.33203125 30.33203125 -3.33203125 30.33203125 -3.57495117 27.45874023 C-3.57084229 26.26063721 -3.5667334 25.06253418 -3.5625 23.828125 C-3.56056641 22.53068359 -3.55863281 21.23324219 -3.55664062 19.89648438 C-3.55043701 19.21980713 -3.5442334 18.54312988 -3.5378418 17.84594727 C-3.51957177 15.77412654 -3.5173322 13.70275228 -3.51757812 11.63085938 C-3.46773518 0.49373114 -3.46773518 0.49373114 0 0 Z " fill="#29292A" transform="translate(295.33203125,357.66796875)"/>
<path d="M0 0 C1.08809212 0.01061211 1.08809212 0.01061211 2.19816589 0.0214386 C4.50167578 0.04929719 6.80270126 0.11200934 9.10546875 0.17578125 C10.67249078 0.20087562 12.23955115 0.22368681 13.80664062 0.24414062 C17.63636531 0.29909444 21.46424672 0.38529899 25.29296875 0.48828125 C25.29296875 1.14828125 25.29296875 1.80828125 25.29296875 2.48828125 C21.98046875 3.61328125 21.98046875 3.61328125 18.29296875 4.48828125 C17.30296875 3.82828125 16.31296875 3.16828125 15.29296875 2.48828125 C11.99652181 2.01028692 8.68295086 2.0719754 5.35546875 2.05078125 C4.44861328 2.01791016 3.54175781 1.98503906 2.60742188 1.95117188 C1.29354492 1.94053711 1.29354492 1.94053711 -0.046875 1.9296875 C-0.84472412 1.91623291 -1.64257324 1.90277832 -2.46459961 1.88891602 C-5.85734831 2.79574215 -6.81700753 4.58479566 -8.70703125 7.48828125 C-9.32565906 10.87983876 -9.32565906 10.87983876 -9.26397705 14.65730286 C-9.27556185 15.36802954 -9.28714666 16.07875622 -9.29908252 16.81102008 C-9.33302434 19.1864545 -9.3388295 21.56111049 -9.34472656 23.93676758 C-9.36332724 25.64193623 -9.38366492 27.34708668 -9.40560913 29.05221558 C-9.46021486 33.67776644 -9.49050896 38.30319549 -9.51646519 42.92898393 C-9.54772423 47.76445889 -9.60130566 52.59968501 -9.65252686 57.4349823 C-9.74610919 66.58974975 -9.81959379 75.744564 -9.8858726 84.8995654 C-9.96231089 95.32285306 -10.06113212 105.74589082 -10.16184092 116.16896784 C-10.36849044 137.60855446 -10.54700748 159.04829927 -10.70703125 180.48828125 C-11.36703125 180.15828125 -12.02703125 179.82828125 -12.70703125 179.48828125 C-12.82378898 156.88791558 -12.91198242 134.28759959 -12.96609211 111.6869936 C-12.99188304 101.19332617 -13.02705064 90.69984604 -13.08422852 80.20629883 C-13.13403616 71.06101727 -13.16631579 61.91587134 -13.17747372 52.77045792 C-13.18399695 47.92714188 -13.19934685 43.08421388 -13.23568153 38.24102211 C-13.26959932 33.68309369 -13.28009277 29.12571346 -13.27256966 24.56767082 C-13.2739461 22.89429369 -13.28390394 21.22089838 -13.30305862 19.54763031 C-13.32793252 17.26283491 -13.32195939 14.98010986 -13.30830383 12.69526672 C-13.3129128 11.41673985 -13.31752176 10.13821299 -13.32227039 8.82094288 C-11.93420756 1.30200688 -6.88866964 -0.25540909 0 0 Z " fill="#374158" transform="translate(294.70703125,136.51171875)"/>
<path d="M0 0 C4.61858376 0.841468 6.6300484 4.29338529 9.4765625 7.83203125 C10.61387022 9.20371658 11.75186722 10.57483076 12.890625 11.9453125 C13.38771973 12.55802002 13.88481445 13.17072754 14.39697266 13.80200195 C15.79472743 15.45242236 17.32224796 16.99021671 18.8515625 18.51953125 C18.8515625 12.90953125 18.8515625 7.29953125 18.8515625 1.51953125 C20.1715625 1.18953125 21.4915625 0.85953125 22.8515625 0.51953125 C23.8515625 1.51953125 23.8515625 1.51953125 23.96508789 4.38696289 C23.95985107 5.63856201 23.95461426 6.89016113 23.94921875 8.1796875 C23.9478038 8.8441539 23.94638885 9.5086203 23.94493103 10.19322205 C23.93931768 12.32287024 23.92676304 14.45241464 23.9140625 16.58203125 C23.90904921 18.02278494 23.90448601 19.46354028 23.90039062 20.90429688 C23.88934395 24.44274227 23.87207042 27.98112664 23.8515625 31.51953125 C22.8615625 31.84953125 21.8715625 32.17953125 20.8515625 32.51953125 C17.22557159 28.99751141 13.92232078 25.31348865 10.7265625 21.39453125 C8.20199707 18.30895128 5.67647318 15.34444193 2.8515625 12.51953125 C2.8515625 18.78953125 2.8515625 25.05953125 2.8515625 31.51953125 C1.5315625 31.84953125 0.2115625 32.17953125 -1.1484375 32.51953125 C-3.1484375 30.51953125 -3.1484375 30.51953125 -3.39135742 27.64624023 C-3.38724854 26.44813721 -3.38313965 25.25003418 -3.37890625 24.015625 C-3.37697266 22.71818359 -3.37503906 21.42074219 -3.37304688 20.08398438 C-3.36684326 19.40730713 -3.36063965 18.73062988 -3.35424805 18.03344727 C-3.33597802 15.96162654 -3.33373845 13.89025228 -3.33398438 11.81835938 C-3.2846474 0.79428746 -3.2846474 0.79428746 0 0 Z " fill="#3B3B3C" transform="translate(188.1484375,357.48046875)"/>
<path d="M0 0 C3.51520834 2.3707219 5.79390381 5.02530762 7.6875 8.8125 C8.21198349 14.98526719 8.47638444 20.63435793 4.6875 25.8125 C-0.53022053 29.92006722 -4.58126072 31.26365206 -11.22265625 31.15234375 C-15.7309898 30.41921287 -18.76935498 27.64697623 -21.63671875 24.23828125 C-24.65154393 19.70017599 -25.27667833 15.14956791 -24.3125 9.8125 C-19.27847753 -0.06909966 -10.36011178 -3.71400234 0 0 Z M-17.3125 9.8125 C-18.56088381 13.21778996 -18.56088381 13.21778996 -18.3125 16.8125 C-16.33311533 20.55919241 -14.84233947 22.45927369 -11.3125 24.8125 C-7.38198786 25.33656828 -5.58717304 24.96040087 -2.0625 23.0625 C1.18769232 20.47267047 1.18769232 20.47267047 2.6875 16.8125 C2.60234128 12.89519889 1.69598438 10.82681739 -0.3125 7.4375 C-3.36812684 4.76382652 -3.99831336 4.34749422 -7.8125 4.125 C-12.47321217 4.46678556 -14.63486282 5.8797204 -17.3125 9.8125 Z " fill="#141414" transform="translate(276.3125,359.1875)"/>
<path d="M0 0 C2.6875 0.625 2.6875 0.625 5 3.625 C5.92442913 5.27597726 6.81439706 6.94631409 7.6875 8.625 C8.01218262 9.23102051 8.33686523 9.83704102 8.67138672 10.46142578 C9.77609139 12.5287945 10.85997884 14.60584327 11.9375 16.6875 C12.29110596 17.35974609 12.64471191 18.03199219 13.0090332 18.72460938 C15.20425978 23.08205161 16.25725008 26.75937955 16.6875 31.625 C14.875 32.3125 14.875 32.3125 12.6875 32.625 C10.44536481 31.01066266 9.66161443 29.56604828 8.546875 27.02734375 C6.84262946 24.25099813 6.84262946 24.25099813 3.33203125 24.13671875 C1.43517578 24.22373047 1.43517578 24.22373047 -0.5 24.3125 C-1.77230469 24.35761719 -3.04460937 24.40273438 -4.35546875 24.44921875 C-5.33128906 24.50722656 -6.30710937 24.56523437 -7.3125 24.625 C-7.59867187 25.58664062 -7.88484375 26.54828125 -8.1796875 27.5390625 C-9.3125 30.625 -9.3125 30.625 -11.4375 32 C-12.05625 32.20625 -12.675 32.4125 -13.3125 32.625 C-13.9725 31.965 -14.6325 31.305 -15.3125 30.625 C-14.92242837 26.85833305 -13.59550954 23.62984237 -12.09765625 20.17578125 C-11.65873047 19.16322266 -11.21980469 18.15066406 -10.76757812 17.10742188 C-10.30802734 16.06134766 -9.84847656 15.01527344 -9.375 13.9375 C-8.91931641 12.87982422 -8.46363281 11.82214844 -7.99414062 10.73242188 C-3.75294527 1.01430953 -3.75294527 1.01430953 0 0 Z M-0.3125 9.625 C-1.6325 12.265 -2.9525 14.905 -4.3125 17.625 C-3.32982141 18.83061184 -3.32982141 18.83061184 -1.46484375 18.72265625 C0.5859375 18.69010417 2.63671875 18.65755208 4.6875 18.625 C3.6975 15.655 2.7075 12.685 1.6875 9.625 C1.0275 9.625 0.3675 9.625 -0.3125 9.625 Z " fill="#37373A" transform="translate(345.3125,357.375)"/>
<path d="M0 0 C1.65 0.33 3.3 0.66 5 1 C5 5.29 5 9.58 5 14 C8.36606602 12.87797799 9.19481269 11.90725979 11.4375 9.25 C12.05238281 8.53328125 12.66726562 7.8165625 13.30078125 7.078125 C14.64211751 5.43768617 15.90017287 3.72916772 17.125 2 C19 0 19 0 21.75 -0.3125 C22.86375 -0.1578125 22.86375 -0.1578125 24 0 C24.25390625 2.24609375 24.25390625 2.24609375 24 5 C22.21484375 7.09765625 22.21484375 7.09765625 19.9375 9.0625 C17.65228353 10.92967948 17.65228353 10.92967948 16 13 C16.07073977 17.45660531 19.74251495 20.48882515 22.50390625 23.68359375 C24.23945785 26.37075327 24.30428715 27.86307606 24 31 C23.01 31.33 22.02 31.66 21 32 C16.88850812 29.36442828 14.45572802 26.18383292 12 22 C12 21.34 12 20.68 12 20 C10.35 20 8.7 20 7 20 C6.34 23.63 5.68 27.26 5 31 C3.68 31.33 2.36 31.66 1 32 C-1 30 -1 30 -1.24291992 27.12670898 C-1.23881104 25.92860596 -1.23470215 24.73050293 -1.23046875 23.49609375 C-1.22853516 22.19865234 -1.22660156 20.90121094 -1.22460938 19.56445312 C-1.21840576 18.88777588 -1.21220215 18.21109863 -1.20581055 17.51391602 C-1.18754052 15.44209529 -1.18530095 13.37072103 -1.18554688 11.29882812 C-1.14008257 1.14008257 -1.14008257 1.14008257 0 0 Z " fill="#393939" transform="translate(223,358)"/>
<path d="M0 0 C0.66 0 1.32 0 2 0 C3.52846661 3.05693322 3.23242445 5.62984547 3 9 C2.50745224 9.61886078 2.01490448 10.23772156 1.50743103 10.87533569 C-0.43625025 13.61487745 -0.37213438 15.28222592 -0.36889648 18.61962891 C-0.37577988 19.74825348 -0.38266327 20.87687805 -0.38975525 22.03970337 C-0.38051781 23.86469864 -0.38051781 23.86469864 -0.37109375 25.7265625 C-0.38848467 28.31119918 -0.40606896 30.89583457 -0.42382812 33.48046875 C-0.43687717 37.54866734 -0.43750756 41.61684373 -0.43579102 45.68505859 C-0.4357296 49.61574376 -0.46679102 53.54598727 -0.49609375 57.4765625 C-0.48791122 58.68108063 -0.4797287 59.88559875 -0.47129822 61.12661743 C-0.54662356 69.73986081 -1.90030473 76.77314282 -7.0625 83.8125 C-12.15152796 87.60220167 -17.99947514 89.99982505 -24 92 C-24.00586624 92.72805344 -24.01173248 93.45610687 -24.01777649 94.20622253 C-24.07575084 101.07730558 -24.14785476 107.9481118 -24.23571491 114.81887341 C-24.28038664 118.35098666 -24.31964938 121.88298544 -24.34643555 125.4152832 C-24.3774908 129.47897322 -24.43227834 133.54204542 -24.48828125 137.60546875 C-24.49467117 138.8702153 -24.5010611 140.13496185 -24.50764465 141.43803406 C-24.52743881 142.61888077 -24.54723297 143.79972748 -24.56762695 145.01635742 C-24.57873001 146.05338303 -24.58983307 147.09040863 -24.60127258 148.15885925 C-25.10181053 151.7254531 -26.43431444 154.43431444 -29 157 C-31.48580824 157.13805814 -33.94191317 157.21307742 -36.4296875 157.23828125 C-37.17582306 157.246353 -37.92195862 157.25442474 -38.69070435 157.26274109 C-40.27278306 157.27659541 -41.85489184 157.28731152 -43.43701172 157.29516602 C-45.85832295 157.31238143 -48.27826969 157.35625232 -50.69921875 157.40039062 C-52.23436493 157.41051702 -53.76952275 157.4190333 -55.3046875 157.42578125 C-56.02977509 157.44328934 -56.75486267 157.46079742 -57.50192261 157.47883606 C-59.55419922 157.4699707 -59.55419922 157.4699707 -63 157 C-64.98095703 154.97338867 -64.98095703 154.97338867 -66 153 C-65.01 153.33 -64.02 153.66 -63 154 C-60.51023004 154.12018198 -58.0491709 154.18800573 -55.55859375 154.203125 C-54.83511246 154.20882507 -54.11163116 154.21452515 -53.3662262 154.22039795 C-51.83897356 154.22983198 -50.31170072 154.23637559 -48.78442383 154.24023438 C-46.44251508 154.24997913 -44.10146993 154.28103143 -41.75976562 154.3125 C-40.27604688 154.31902655 -38.79232186 154.32427839 -37.30859375 154.328125 C-36.60649277 154.3404718 -35.90439178 154.3528186 -35.18101501 154.36553955 C-32.99737272 154.39025665 -32.99737272 154.39025665 -30 154 C-27.69124786 150.53687179 -27.73173971 149.14896026 -27.68115234 145.05981445 C-27.66128265 143.83877518 -27.64141296 142.6177359 -27.62094116 141.35969543 C-27.60938995 140.04087875 -27.59783875 138.72206207 -27.5859375 137.36328125 C-27.56722653 135.99992194 -27.54765317 134.63657421 -27.5272522 133.27323914 C-27.47591716 129.68780345 -27.43629901 126.10233022 -27.39910889 122.51672363 C-27.35907769 118.85675762 -27.30798135 115.19694799 -27.2578125 111.53710938 C-27.16103705 104.3581802 -27.07663768 97.17917539 -27 90 C-26.45105072 89.7995256 -25.90210144 89.59905121 -25.33651733 89.39250183 C-24.61622345 89.1265773 -23.89592957 88.86065277 -23.15380859 88.58666992 C-22.43985931 88.32432053 -21.72591003 88.06197113 -20.99032593 87.79167175 C-18.67447381 86.87051875 -16.68434871 85.71201657 -14.625 84.3125 C-11.20058997 82 -11.20058997 82 -9 82 C-4.28888488 73.3025567 -3.56989368 66.20808665 -3.59375 56.41796875 C-3.5771963 54.44559354 -3.56062642 52.47321829 -3.54308319 50.50085163 C-3.51101018 46.36392134 -3.50516252 42.22687391 -3.49468994 38.08984375 C-3.48501384 34.66510148 -3.46962966 31.24061925 -3.43908691 27.81599426 C-3.41750583 25.25413249 -3.40921294 22.69211792 -3.41540527 20.13017273 C-3.40529419 18.97499649 -3.39518311 17.81982025 -3.38476562 16.62963867 C-3.38271118 15.61230148 -3.38065674 14.59496429 -3.37854004 13.54679871 C-2.94093564 10.60261793 -2.20674185 9.88416292 0 8 C0.3606631 5.94636394 0.3606631 5.94636394 0.1875 3.8125 C0.125625 2.554375 0.06375 1.29625 0 0 Z " fill="#FBF7F0" transform="translate(349,164)"/>
<path d="M0 0 C0.7425 0.433125 0.7425 0.433125 1.5 0.875 C3.74603772 1.88571697 5.74314286 2.48652364 8.125 3.0625 C12 4 12 4 14 5 C14.40729228 7.32156597 14.74438677 9.6568787 15 12 C15.99 12.33 16.98 12.66 18 13 C17.42655063 15.86724686 17.1385485 16.8614515 15 19 C14.53837573 21.43252661 14.53837573 21.43252661 14.375 24.125 C14.30023438 25.03507812 14.22546875 25.94515625 14.1484375 26.8828125 C14.09945313 27.58148438 14.05046875 28.28015625 14 29 C13.01 29.33 12.02 29.66 11 30 C10.67 28.02 10.34 26.04 10 24 C9.2575 24.185625 8.515 24.37125 7.75 24.5625 C4.99643202 25.00056763 3.61327611 24.78398283 1 24 C0.01 24 -0.98 24 -2 24 C-1.67 22.35 -1.34 20.7 -1 19 C-0.34 19 0.32 19 1 19 C0.67 17.35 0.34 15.7 0 14 C-0.66 14 -1.32 14 -2 14 C-1.814375 12.948125 -1.62875 11.89625 -1.4375 10.8125 C-1.04920669 7.42880118 -1.11752515 5.23574112 -2 2 C-1.34 2 -0.68 2 0 2 C0 1.34 0 0.68 0 0 Z " fill="#212C39" transform="translate(242,240)"/>
<path d="M0 0 C1.66611905 -0.042721 3.33382885 -0.04063832 5 0 C6 1 6 1 6.09765625 3.20898438 C6.08605469 4.16095703 6.07445312 5.11292969 6.0625 6.09375 C6.05476562 7.12371094 6.04703125 8.15367187 6.0390625 9.21484375 C6.01302083 11.40494792 5.98697917 13.59505208 5.9609375 15.78515625 C5.95320312 16.81511719 5.94546875 17.84507812 5.9375 18.90625 C5.92589844 19.85822266 5.91429687 20.81019531 5.90234375 21.79101562 C5.74982434 23.97488669 5.74982434 23.97488669 7 25 C9.85877909 25.23701239 12.69883297 25.42219182 15.5625 25.5625 C16.36880859 25.60568359 17.17511719 25.64886719 18.00585938 25.69335938 C20.00368805 25.79975262 22.0018207 25.90040888 24 26 C24.5625 27.9375 24.5625 27.9375 25 30 C23.31483046 31.68516954 21.21232212 31.13008019 18.90625 31.1328125 C17.87628906 31.13410156 16.84632813 31.13539063 15.78515625 31.13671875 C14.15900391 31.13091797 14.15900391 31.13091797 12.5 31.125 C11.41589844 31.12886719 10.33179688 31.13273437 9.21484375 31.13671875 C8.18488281 31.13542969 7.15492188 31.13414062 6.09375 31.1328125 C5.14177734 31.13168457 4.18980469 31.13055664 3.20898438 31.12939453 C1 31 1 31 0 30 C-0.08783542 27.78144736 -0.10694609 25.56011504 -0.09765625 23.33984375 C-0.0962413 22.67537735 -0.09482635 22.01091095 -0.09336853 21.3263092 C-0.08775518 19.19666101 -0.07520054 17.06711661 -0.0625 14.9375 C-0.05748671 13.49674631 -0.05292351 12.05599097 -0.04882812 10.61523438 C-0.03778145 7.07678898 -0.02050792 3.53840461 0 0 Z " fill="#39393A" transform="translate(140,358)"/>
<path d="M0 0 C3 2 3 2 3.38755417 3.85049725 C3.39346195 4.60750329 3.39936974 5.36450933 3.40545654 6.14445496 C3.41944394 7.01524878 3.43343134 7.88604259 3.4478426 8.78322411 C3.44797446 9.74316591 3.44810633 10.70310772 3.44824219 11.69213867 C3.46000331 12.7042573 3.47176443 13.71637592 3.48388195 14.75916481 C3.51935434 18.14547031 3.53323786 21.53151007 3.546875 24.91796875 C3.56685944 27.30206772 3.58800386 29.68615722 3.61024475 32.07023621 C3.66537359 38.45730332 3.70066103 44.84432957 3.73047256 51.23155975 C3.74991547 55.17037564 3.7740917 59.1091336 3.79989624 63.0479126 C4.18172379 121.81743331 4.18172379 121.81743331 3.85583496 150.43984985 C3.82706482 153.05240139 3.80414752 155.66502426 3.78723145 158.27767944 C3.76053557 161.79778207 3.70770296 165.31632659 3.64453125 168.8359375 C3.64010513 169.83143112 3.63567902 170.82692474 3.63111877 171.85258484 C3.53211985 175.73423568 3.45505483 178.25166892 1.41503906 181.60644531 C-1.93408124 183.53899472 -4.42847773 183.48530603 -8.28515625 183.4609375 C-9.33140419 183.45956284 -9.33140419 183.45956284 -10.39878845 183.4581604 C-11.86887443 183.45213415 -13.33894869 183.43641712 -14.80883789 183.41162109 C-17.05856545 183.37506393 -19.30664674 183.37060222 -21.55664062 183.37109375 C-32.55675788 183.29549474 -32.55675788 183.29549474 -36 181 C-35.505 180.01 -35.505 180.01 -35 179 C-34.67 179.33 -34.34 179.66 -34 180 C-29.47585674 180.21881525 -24.94638235 180.18579066 -20.41748047 180.18530273 C-18.14141003 180.18748427 -15.86582801 180.20562229 -13.58984375 180.22460938 C-12.14583499 180.22754423 -10.70182393 180.22952841 -9.2578125 180.23046875 C-7.9392627 180.23457764 -6.62071289 180.23868652 -5.26220703 180.24291992 C-1.8543732 180.25780187 -1.8543732 180.25780187 1 178 C1.45311574 174.88438773 1.45311574 174.88438773 1.36749268 171.13600159 C1.37076152 170.42178777 1.37403036 169.70757396 1.37739825 168.9717173 C1.38471077 166.56629998 1.37049198 164.16148412 1.35644531 161.75610352 C1.35723575 160.036559 1.35933165 158.31701466 1.36264038 156.59747314 C1.36778745 151.91770264 1.35421258 147.23815093 1.33711338 142.55841565 C1.3221098 137.66841991 1.32325215 132.77842739 1.32244873 127.88841248 C1.31875248 119.67418671 1.30376814 111.46004433 1.28125 103.24584961 C1.25238642 92.69531231 1.24202824 82.14484224 1.2375679 71.59426975 C1.2335897 62.53512902 1.22108624 53.47600297 1.20722103 44.41687274 C1.20311908 41.49969755 1.20019491 38.58252288 1.19742584 35.66534615 C1.19253641 31.08454005 1.18233896 26.50377481 1.16798782 21.92298889 C1.16346067 20.23912869 1.16062517 18.55526298 1.15958023 16.87139702 C1.15783739 14.57788416 1.149962 12.28447389 1.14044189 9.99098206 C1.13746723 8.70583489 1.13449257 7.42068773 1.13142776 6.09659672 C1.14100279 2.96348351 1.14100279 2.96348351 0 0 Z " fill="#EEF2F2" transform="translate(214,138)"/>
<path d="M0 0 C0 10.23 0 20.46 0 31 C-5 30 -5 30 -6 29 C-6.08700342 27.36527118 -6.10701063 25.72685945 -6.09765625 24.08984375 C-6.09443359 23.10048828 -6.09121094 22.11113281 -6.08789062 21.09179688 C-6.07951172 20.05087891 -6.07113281 19.00996094 -6.0625 17.9375 C-6.05798828 16.89271484 -6.05347656 15.84792969 -6.04882812 14.77148438 C-6.03699913 12.1809334 -6.02051689 9.59049441 -6 7 C-8.05685082 9.01452879 -9.93640385 10.91194379 -11.625 13.25 C-12.07875 13.8275 -12.5325 14.405 -13 15 C-13.66 15 -14.32 15 -15 15 C-15.33 14.01 -15.66 13.02 -16 12 C-14.63633604 9.81695444 -13.27368348 7.88337067 -11.6875 5.875 C-11.27048828 5.32457031 -10.85347656 4.77414062 -10.42382812 4.20703125 C-6.22438525 -1.24487705 -6.22438525 -1.24487705 0 0 Z " fill="#0B0B0C" transform="translate(324,359)"/>
<path d="M0 0 C1.32 0.33 2.64 0.66 4 1 C3.67 1.33 3.34 1.66 3 2 C2.8923566 3.81430179 2.8537377 5.63273914 2.84228516 7.45019531 C2.82689194 9.19771088 2.82689194 9.19771088 2.81118774 10.98052979 C2.80388641 12.25023621 2.79658508 13.51994263 2.7890625 14.828125 C2.76818235 16.80870813 2.74728483 18.78929126 2.72536278 20.76986313 C2.67211877 25.66990997 2.62803857 30.5699662 2.59863281 35.47021484 C2.58172316 38.21390888 2.55701588 40.95732201 2.52377319 43.7008667 C2.49276693 46.28835664 2.47337723 48.87601697 2.46670532 51.46368408 C2.45013885 52.6413031 2.43357239 53.81892212 2.41650391 55.03222656 C2.40841705 56.06623596 2.4003302 57.10024536 2.39199829 58.16558838 C1.89883674 61.73147847 0.56408552 64.43591448 -2 67 C-4.48580824 67.13805814 -6.94191317 67.21307742 -9.4296875 67.23828125 C-10.17582306 67.246353 -10.92195862 67.25442474 -11.69070435 67.26274109 C-13.27278306 67.27659541 -14.85489184 67.28731152 -16.43701172 67.29516602 C-18.85832295 67.31238143 -21.27826969 67.35625232 -23.69921875 67.40039062 C-25.23436493 67.41051702 -26.76952275 67.4190333 -28.3046875 67.42578125 C-29.02977509 67.44328934 -29.75486267 67.46079742 -30.50192261 67.47883606 C-32.55419922 67.4699707 -32.55419922 67.4699707 -36 67 C-37.98095703 64.97338867 -37.98095703 64.97338867 -39 63 C-38.01 63.33 -37.02 63.66 -36 64 C-33.51023004 64.12018198 -31.0491709 64.18800573 -28.55859375 64.203125 C-27.83511246 64.20882507 -27.11163116 64.21452515 -26.3662262 64.22039795 C-24.83897356 64.22983198 -23.31170072 64.23637559 -21.78442383 64.24023438 C-19.44251508 64.24997913 -17.10146993 64.28103143 -14.75976562 64.3125 C-13.27604688 64.31902655 -11.79232186 64.32427839 -10.30859375 64.328125 C-9.60649277 64.3404718 -8.90439178 64.3528186 -8.18101501 64.36553955 C-5.99737272 64.39025665 -5.99737272 64.39025665 -3 64 C-0.69124786 60.53687179 -0.73173971 59.14896026 -0.68115234 55.05981445 C-0.66128265 53.83877518 -0.64141296 52.6177359 -0.62094116 51.35969543 C-0.60938995 50.04087875 -0.59783875 48.72206207 -0.5859375 47.36328125 C-0.56722653 45.99992194 -0.54765317 44.63657421 -0.5272522 43.27323914 C-0.47591716 39.68780345 -0.43629901 36.10233022 -0.39910889 32.51672363 C-0.35907769 28.85675762 -0.30798135 25.19694799 -0.2578125 21.53710938 C-0.16103705 14.3581802 -0.07663768 7.17917539 0 0 Z " fill="#FCFCFC" transform="translate(322,254)"/>
<path d="M0 0 C1.32 0 2.64 0 4 0 C6.12508244 3.18762365 6.5020163 5.26512223 7 9 C5.68 8.67 4.36 8.34 3 8 C3 7.34 3 6.68 3 6 C0.0487355 7.47563225 -0.06923915 9.50079352 -1.125 12.5625 C-1.47820312 13.57441406 -1.83140625 14.58632813 -2.1953125 15.62890625 C-2.46085937 16.41136719 -2.72640625 17.19382812 -3 18 C0.63 18 4.26 18 8 18 C8.66 16.68 9.32 15.36 10 14 C11.125 18.75 11.125 18.75 10 21 C8.27799214 21.07140033 6.55452939 21.13187948 4.83105469 21.12524414 C-1.57691691 20.9440247 -1.57691691 20.9440247 -7 23.83984375 C-8.28753984 26.01582805 -8.28753984 26.01582805 -9.140625 28.28515625 C-9.56601562 29.13400391 -9.56601562 29.13400391 -10 30 C-10.99 30 -11.98 30 -13 30 C-12.37204819 26.24967338 -11.29649739 23.03594545 -9.78515625 19.55078125 C-9.34623047 18.53822266 -8.90730469 17.52566406 -8.45507812 16.48242188 C-7.99552734 15.43634766 -7.53597656 14.39027344 -7.0625 13.3125 C-6.60681641 12.25482422 -6.15113281 11.19714844 -5.68164062 10.10742188 C-2.25442 2.25442 -2.25442 2.25442 0 0 Z " fill="#0F0F10" transform="translate(343,358)"/>
<path d="M0 0 C0.66 0 1.32 0 2 0 C2.25390625 2.24609375 2.25390625 2.24609375 2 5 C0.21484375 7.09765625 0.21484375 7.09765625 -2.0625 9.0625 C-4.34771647 10.92967948 -4.34771647 10.92967948 -6 13 C-5.92926023 17.45660531 -2.25748505 20.48882515 0.50390625 23.68359375 C2.23945785 26.37075327 2.30428715 27.86307606 2 31 C1.01 31.33 0.02 31.66 -1 32 C-5.11149188 29.36442828 -7.54427198 26.18383292 -10 22 C-10 21.34 -10 20.68 -10 20 C-11.65 20 -13.3 20 -15 20 C-15.66 23.63 -16.32 27.26 -17 31 C-18.32 31.33 -19.64 31.66 -21 32 C-21.33 31.34 -21.66 30.68 -22 30 C-21.01 29.67 -20.02 29.34 -19 29 C-19.103125 27.948125 -19.20625 26.89625 -19.3125 25.8125 C-19 22 -19 22 -16.8125 19 C-14 17 -14 17 -11.1875 17.1875 C-10.465625 17.455625 -9.74375 17.72375 -9 18 C-9.103125 17.13375 -9.20625 16.2675 -9.3125 15.375 C-8.8812617 10.71762638 -7.27270488 9.27270488 -4 6 C-3.34 6 -2.68 6 -2 6 C-1.34 4.02 -0.68 2.04 0 0 Z " fill="#313131" transform="translate(245,358)"/>
<path d="M0 0 C1.32 0.33 2.64 0.66 4 1 C4 10.9 4 20.8 4 31 C3.01 31.33 2.02 31.66 1 32 C-2.39417765 28.87378374 -4.6062718 26.43458973 -6 22 C-4.35 21.67 -2.7 21.34 -1 21 C-1.33 20.01 -1.66 19.02 -2 18 C-1.93749184 15.10757699 -1.81534108 12.25866742 -1.625 9.375 C-1.55925781 8.19164062 -1.55925781 8.19164062 -1.4921875 6.984375 C-1.13006525 1.13006525 -1.13006525 1.13006525 0 0 Z " fill="#111111" transform="translate(208,358)"/>
<path d="M0 0 C0.99 0.33 1.98 0.66 3 1 C3 11.23 3 21.46 3 32 C2.01 32.495 2.01 32.495 1 33 C0.01 32.67 -0.98 32.34 -2 32 C-2.95405299 25.52167241 -3.21532791 19.16935735 -3.25 12.625 C-3.270625 11.62855469 -3.29125 10.63210938 -3.3125 9.60546875 C-3.31765625 8.65542969 -3.3228125 7.70539063 -3.328125 6.7265625 C-3.3374707 5.86627441 -3.34681641 5.00598633 -3.35644531 4.11962891 C-3.23881836 3.42015137 -3.12119141 2.72067383 -3 2 C-2.01 1.34 -1.02 0.68 0 0 Z " fill="#2E2E2E" transform="translate(171,357)"/>
<path d="M0 0 C0.66 0 1.32 0 2 0 C2.16873478 1.43725871 2.33490737 2.87481838 2.5 4.3125 C2.5928125 5.11300781 2.685625 5.91351563 2.78125 6.73828125 C3 9 3 9 3 12 C-1.66666667 12 -6.33333333 12 -11 12 C-11 10.68 -11 9.36 -11 8 C-12.670625 8.2784375 -12.670625 8.2784375 -14.375 8.5625 C-18 9 -18 9 -20 8 C-20 7.01 -20 6.02 -20 5 C-21.65 5.66 -23.3 6.32 -25 7 C-25 5.35 -25 3.7 -25 2 C-22.72975032 1.91902676 -20.45867925 1.86082296 -18.1875 1.8125 C-16.92292969 1.77769531 -15.65835938 1.74289063 -14.35546875 1.70703125 C-11 2 -11 2 -9.2421875 3.515625 C-8.83226562 4.00546875 -8.42234375 4.4953125 -8 5 C-4.91004903 5.08223366 -4.91004903 5.08223366 -2 4 C-0.56362302 2.04836882 -0.56362302 2.04836882 0 0 Z " fill="#3A7B78" transform="translate(203,252)"/>
<path d="M0 0 C2.0625 1.625 2.0625 1.625 4 4 C3.92517651 7.44188056 3.30734455 9.51348137 1.46850586 12.42431641 C-0.69644812 17.69579038 -0.44804514 22.68958238 -0.43359375 28.3359375 C-0.4388356 29.5292569 -0.44407745 30.72257629 -0.44947815 31.95205688 C-0.45589092 34.47193627 -0.45457105 36.99184563 -0.44604492 39.51171875 C-0.43754487 43.35471291 -0.46629391 47.19621541 -0.49804688 51.0390625 C-0.49965934 53.49218706 -0.4990805 55.94531423 -0.49609375 58.3984375 C-0.51294472 60.11285538 -0.51294472 60.11285538 -0.53013611 61.86190796 C-0.47010491 68.78060853 0.57562648 73.00548265 4 79 C3.505 79.99 3.505 79.99 3 81 C-1.4031482 75.86299376 -3.24360289 71.96045741 -3.2746582 65.17163086 C-3.28419022 64.02371567 -3.29372223 62.87580048 -3.30354309 61.69309998 C-3.30263168 60.46277542 -3.30172028 59.23245087 -3.30078125 57.96484375 C-3.30506638 56.69403458 -3.3093515 55.4232254 -3.31376648 54.11390686 C-3.31950499 51.42988205 -3.32095051 48.74624248 -3.31567383 46.06225586 C-3.30986899 42.62671101 -3.32684297 39.1917035 -3.3500185 35.75624752 C-3.36830322 32.47161687 -3.36457071 29.18701615 -3.36328125 25.90234375 C-3.372491 24.66999496 -3.38170074 23.43764618 -3.39118958 22.16795349 C-3.38496078 21.02319046 -3.37873199 19.87842743 -3.37231445 18.69897461 C-3.37294388 17.69257431 -3.3735733 16.68617401 -3.3742218 15.64927673 C-2.94307878 12.59703024 -1.94528887 11.33073716 0 9 C0.35957889 6.64070358 0.35957889 6.64070358 0.1875 4.25 C0.16042969 3.45078125 0.13335937 2.6515625 0.10546875 1.828125 C0.05326172 0.92320312 0.05326172 0.92320312 0 0 Z " fill="#FCFBF9" transform="translate(162,163)"/>
<path d="M0 0 C0.72822464 0.0028299 1.45644928 0.00565979 2.20674133 0.00857544 C4.52992262 0.01975993 6.85271672 0.04486084 9.17578125 0.0703125 C10.75194755 0.08034456 12.3281199 0.08947002 13.90429688 0.09765625 C17.76577392 0.11969354 21.62696196 0.15421109 25.48828125 0.1953125 C25.48828125 0.8553125 25.48828125 1.5153125 25.48828125 2.1953125 C22.17578125 3.3203125 22.17578125 3.3203125 18.48828125 4.1953125 C17.49828125 3.5353125 16.50828125 2.8753125 15.48828125 2.1953125 C12.19183431 1.71731817 8.87826336 1.77900665 5.55078125 1.7578125 C4.64392578 1.72494141 3.73707031 1.69207031 2.80273438 1.65820312 C1.48885742 1.64756836 1.48885742 1.64756836 0.1484375 1.63671875 C-0.64941162 1.62326416 -1.44726074 1.60980957 -2.26928711 1.59594727 C-5.73680814 2.52275882 -6.63194076 4.16935501 -8.51171875 7.1953125 C-9.10193834 10.32158425 -9.07576978 13.40097122 -9.05761719 16.57543945 C-9.06795486 17.51251236 -9.07829254 18.44958527 -9.08894348 19.41505432 C-9.11838278 22.50474264 -9.11987092 25.59377617 -9.12109375 28.68359375 C-9.1360746 30.82880402 -9.15280154 32.97400275 -9.17120361 35.1191864 C-9.21489978 40.7596591 -9.23488138 46.39997621 -9.24993896 52.04058838 C-9.26950175 57.79863697 -9.31147275 63.55651733 -9.3515625 69.31445312 C-9.42688929 80.60802106 -9.47716593 91.90155137 -9.51171875 103.1953125 C-9.84171875 103.1953125 -10.17171875 103.1953125 -10.51171875 103.1953125 C-10.58111218 90.06112332 -10.63447572 76.92697749 -10.66715527 63.79264259 C-10.68283677 57.69437834 -10.70412035 51.59623914 -10.73803711 45.49804688 C-10.77054194 39.61716857 -10.78855303 33.73641085 -10.79635048 27.85544968 C-10.80190997 25.6074674 -10.8127657 23.35949201 -10.82890892 21.11156082 C-10.85056511 17.97217599 -10.85369062 14.83329469 -10.85229492 11.69384766 C-10.86308075 10.75661362 -10.87386658 9.81937958 -10.88497925 8.85374451 C-10.88085526 8.00116562 -10.87673126 7.14858673 -10.8724823 6.27017212 C-10.87524768 5.52720697 -10.87801306 4.78424183 -10.88086224 4.01876259 C-9.84749046 -1.08576163 -4.04103711 -0.05905548 0 0 Z " fill="#2D3E60" transform="translate(294.51171875,136.8046875)"/>
<path d="M0 0 C2.45811625 3.68717438 2.31118164 5.64345704 2 10 C0 13 0 13 -2.625 13.6875 C-3.40875 13.790625 -4.1925 13.89375 -5 14 C-5.33 16.64 -5.66 19.28 -6 22 C-6.33 22 -6.66 22 -7 22 C-7.0825 20.96875 -7.165 19.9375 -7.25 18.875 C-7.74978569 14.92560134 -7.74978569 14.92560134 -10.125 11.875 C-12 9 -12 9 -12 6.375 C-9.48871324 0.41069395 -6.34621788 -0.82265787 0 0 Z " fill="#EAC05A" transform="translate(161,162)"/>
<path d="M0 0 C1.32 0 2.64 0 4 0 C4.33 0.99 4.66 1.98 5 3 C5.66 3.33 6.32 3.66 7 4 C6.67 5.32 6.34 6.64 6 8 C5.34 7.67 4.68 7.34 4 7 C4 14.26 4 21.52 4 29 C2.35 29.33 0.7 29.66 -1 30 C-1.02465746 25.8882744 -1.04283959 21.77657722 -1.05493164 17.66479492 C-1.0599708 16.26504772 -1.06680216 14.8653058 -1.07543945 13.46557617 C-1.0875232 11.45754223 -1.09269807 9.44947043 -1.09765625 7.44140625 C-1.10289307 6.23170166 -1.10812988 5.02199707 -1.11352539 3.77563477 C-1 1 -1 1 0 0 Z " fill="#1A1A1A" transform="translate(293,358)"/>
<path d="M0 0 C0.66 0.33 1.32 0.66 2 1 C1.67 4.3 1.34 7.6 1 11 C0.01 11 -0.98 11 -2 11 C-2 11.99 -2 12.98 -2 14 C-4.94619748 13.67264472 -7.35360372 13.37532687 -9.9375 11.875 C-11.71780396 8.73328713 -10.90328691 6.37227112 -10 3 C-7.05113889 -0.38572942 -4.32911381 -0.37644468 0 0 Z " fill="#F2B72F" transform="translate(347,162)"/>
<path d="M0 0 C3.4375 0.8125 3.4375 0.8125 5.4375 3.8125 C5.25 7.375 5.25 7.375 4.4375 10.8125 C0.96707297 13.12611802 -0.48084173 13.32270728 -4.5625 12.8125 C-6.5 11.25 -6.5 11.25 -7.5625 8.8125 C-7.4375 5.1875 -7.4375 5.1875 -6.5625 1.8125 C-3.5625 -0.1875 -3.5625 -0.1875 0 0 Z " fill="#D5A44C" transform="translate(250.5625,245.1875)"/>
<path d="M0 0 C0.8125 2.125 0.8125 2.125 1 4 C0.34 4 -0.32 4 -1 4 C-1.33 4.66 -1.66 5.32 -2 6 C-2.474375 5.505 -2.94875 5.01 -3.4375 4.5 C-7.24554385 2.27090116 -10.6950765 2.20820157 -15 3 C-19.06814553 5.68324493 -20.21763645 8.14314814 -21.1875 12.75 C-21.30480469 13.52859375 -21.42210937 14.3071875 -21.54296875 15.109375 C-21.69378906 15.73328125 -21.84460938 16.3571875 -22 17 C-22.66 17.33 -23.32 17.66 -24 18 C-25.84649365 8.71717283 -25.84649365 8.71717283 -23.90625 4.78125 C-18.16055748 -2.13703283 -8.12093398 -5.07558374 0 0 Z " fill="#1B1B1B" transform="translate(278,360)"/>
<path d="M0 0 C1.32 0 2.64 0 4 0 C5.0625 2.375 5.0625 2.375 6 5 C5.67 5.66 5.34 6.32 5 7 C4.34 7 3.68 7 3 7 C3 14.59 3 22.18 3 30 C1.68 30 0.36 30 -1 30 C-1.02465746 25.8882744 -1.04283959 21.77657722 -1.05493164 17.66479492 C-1.0599708 16.26504772 -1.06680216 14.8653058 -1.07543945 13.46557617 C-1.0875232 11.45754223 -1.09269807 9.44947043 -1.09765625 7.44140625 C-1.10289307 6.23170166 -1.10812988 5.02199707 -1.11352539 3.77563477 C-1 1 -1 1 0 0 Z " fill="#0B0B0B" transform="translate(186,358)"/>
<path d="M0 0 C2.875 -0.1875 2.875 -0.1875 6 0 C8.602701 3.9040515 8.26578882 7.16800799 8.22705078 11.6940918 C8.22734283 12.5821048 8.22763489 13.4701178 8.22793579 14.38504028 C8.22654132 17.32319882 8.21097457 20.26110446 8.1953125 23.19921875 C8.19158279 25.23517213 8.18873562 27.27112731 8.18673706 29.30708313 C8.17909733 34.66815132 8.15944587 40.02911131 8.1373291 45.39013672 C8.11687803 50.85968563 8.10773692 56.32925201 8.09765625 61.79882812 C8.07620034 72.53259965 8.04206025 83.26629083 8 94 C7.67 94 7.34 94 7 94 C6.67 64.63 6.34 35.26 6 5 C4.0745356 3.8509288 4.0745356 3.8509288 2 4 C1.01 4.495 1.01 4.495 0 5 C0 3.35 0 1.7 0 0 Z " fill="#81A9AA" transform="translate(208,138)"/>
<path d="M0 0 C4.41353931 4.30037163 6.14912876 6.09685453 6.25 12.25 C6.18885521 16.92757656 5.83583468 20.12435927 3 24 C-2.23845738 28.12389198 -6.24474334 29.3921398 -12.89453125 29.3671875 C-16.70557167 28.70255336 -19.07365668 26.43861943 -22 24 C-21.67 23.34 -21.34 22.68 -21 22 C-19.7315625 22.99 -19.7315625 22.99 -18.4375 24 C-14.43285179 26.32997714 -12.56005718 26.56000702 -8 26 C-3.98435403 24.77488767 -1.56963357 23.55502758 1.4375 20.625 C3.79191619 15.16275443 3.31320681 9.86392759 3 4 C0.48916886 5.25541557 0.12874554 6.50063488 -1 9 C-2.32 7.02 -3.64 5.04 -5 3 C-3.68 3 -2.36 3 -1 3 C-0.67 2.01 -0.34 1.02 0 0 Z " fill="#EDEDED" transform="translate(278,361)"/>
<path d="M0 0 C3.875 2.625 3.875 2.625 5 6 C5.62020084 11.27170712 4.79638716 14.46829905 1.89453125 18.75 C-1.43330793 22.70223788 -5.28455688 26.07989776 -9.16015625 29.484375 C-11.53194639 31.58538304 -13.79002104 33.73172423 -16 36 C-16.99 35.67 -17.98 35.34 -19 35 C-18.43490723 34.45061768 -17.86981445 33.90123535 -17.28759766 33.33520508 C-14.7255109 30.83557611 -12.17521276 28.32423972 -9.625 25.8125 C-8.73554688 24.94818359 -7.84609375 24.08386719 -6.9296875 23.19335938 C-6.07890625 22.35224609 -5.228125 21.51113281 -4.3515625 20.64453125 C-3.56604004 19.87471924 -2.78051758 19.10490723 -1.97119141 18.31176758 C0.82604714 15.03123107 1.89393779 12.27274658 2.25 8 C1.995744 4.94892796 1.29705701 2.75624615 0 0 Z " fill="#FDFAF3" transform="translate(269,310)"/>
<path d="M0 0 C0.70744354 0.00141495 1.41488708 0.0028299 2.14376831 0.00428772 C4.40578419 0.00989025 6.66770148 0.02244307 8.9296875 0.03515625 C10.46223815 0.04017093 11.99479036 0.04473389 13.52734375 0.04882812 C17.28649638 0.05986048 21.04557522 0.07712673 24.8046875 0.09765625 C24.8046875 0.42765625 24.8046875 0.75765625 24.8046875 1.09765625 C21.99234995 1.26754935 19.17986901 1.43363857 16.3671875 1.59765625 C15.1925293 1.66919922 15.1925293 1.66919922 13.99414062 1.7421875 C9.18518535 2.01924665 4.44766909 2.10378187 -0.36743164 1.91992188 C-2.44807043 1.92684442 -2.44807043 1.92684442 -4.1953125 4.09765625 C-6.1953125 6.09765625 -6.1953125 6.09765625 -9.1953125 7.09765625 C-9.5253125 15.01765625 -9.8553125 22.93765625 -10.1953125 31.09765625 C-10.5253125 31.09765625 -10.8553125 31.09765625 -11.1953125 31.09765625 C-11.25337183 26.84771362 -11.28892904 22.59787301 -11.3203125 18.34765625 C-11.33707031 17.14109375 -11.35382813 15.93453125 -11.37109375 14.69140625 C-11.37753906 13.53125 -11.38398438 12.37109375 -11.390625 11.17578125 C-11.40109863 10.1074707 -11.41157227 9.03916016 -11.42236328 7.93847656 C-11.1945325 5.08789699 -10.76218998 3.4668795 -9.1953125 1.09765625 C-6.23720774 -0.38139613 -3.240597 -0.02425278 0 0 Z " fill="#8CBBBB" transform="translate(188.1953125,136.90234375)"/>
<path d="M0 0 C0.99 0.33 1.98 0.66 3 1 C2.42655063 3.86724686 2.1385485 4.8614515 0 7 C-0.46162427 9.43252661 -0.46162427 9.43252661 -0.625 12.125 C-0.69976562 13.03507812 -0.77453125 13.94515625 -0.8515625 14.8828125 C-0.90054687 15.58148438 -0.94953125 16.28015625 -1 17 C-1.99 17.33 -2.98 17.66 -4 18 C-4.33 16.02 -4.66 14.04 -5 12 C-6.32 11.67 -7.64 11.34 -9 11 C-9 10.34 -9 9.68 -9 9 C-9.66 9 -10.32 9 -11 9 C-11.33 8.01 -11.66 7.02 -12 6 C-11.07767578 5.85304688 -11.07767578 5.85304688 -10.13671875 5.703125 C-5.00590695 4.86708954 -5.00590695 4.86708954 -0.9375 1.875 C-0.628125 1.25625 -0.31875 0.6375 0 0 Z " fill="#101E35" transform="translate(257,252)"/>
<path d="M0 0 C1.27617187 0.02320313 2.55234375 0.04640625 3.8671875 0.0703125 C5.78917969 0.09738281 5.78917969 0.09738281 7.75 0.125 C9.23113281 0.15980469 9.23113281 0.15980469 10.7421875 0.1953125 C10.4121875 1.5153125 10.0821875 2.8353125 9.7421875 4.1953125 C9.13890625 4.14890625 8.535625 4.1025 7.9140625 4.0546875 C5.46671666 3.9441622 3.17591279 3.89747899 0.7421875 4.1953125 C0.0821875 4.8965625 -0.5778125 5.5978125 -1.2578125 6.3203125 C-1.9178125 6.9390625 -2.5778125 7.5578125 -3.2578125 8.1953125 C-6.41134816 8.03847591 -9.32855576 7.37176855 -12.2578125 6.1953125 C-12.5878125 5.5353125 -12.9178125 4.8753125 -13.2578125 4.1953125 C-11.23958333 3.73958333 -9.22135417 3.28385417 -7.203125 2.828125 C-3.90196221 1.75425277 -3.82077405 0.22906319 0 0 Z " fill="#271909" transform="translate(311.2578125,253.8046875)"/>
<path d="M0 0 C3.00589462 3.78520063 3.49354508 7.27308739 4 12 C4.31966139 13.66934283 4.64731066 15.3373217 5 17 C3.68 17.33 2.36 17.66 1 18 C1 15.36 1 12.72 1 10 C0.34 10 -0.32 10 -1 10 C-1.4125 9.21625 -1.825 8.4325 -2.25 7.625 C-4.44888887 4.3266667 -6.23110958 3.92128432 -10 3 C-10 2.01 -10 1.02 -10 0 C-2.97605473 -1.43671608 -2.97605473 -1.43671608 0 0 Z " fill="#4D9191" transform="translate(204,242)"/>
<path d="M0 0 C4.29797267 3.40873695 5.91459205 7.74540826 7 13 C5.93453047 15.13093906 4.70840281 16.36587557 3 18 C0 12.375 0 12.375 0 9 C-2.42084116 9.94127798 -2.42084116 9.94127798 -3.5 13.5 C-5 17 -5 17 -7 18 C-6.45660208 13.43545749 -5.20536179 10.0271824 -3 6 C-2.34 6 -1.68 6 -1 6 C-1 6.66 -1 7.32 -1 8 C-0.01 8 0.98 8 2 8 C1.34 5.36 0.68 2.72 0 0 Z " fill="#4F4F4F" transform="translate(347,358)"/>
<path d="M0 0 C0.78375 0.04125 1.5675 0.0825 2.375 0.125 C2.045 1.775 1.715 3.425 1.375 5.125 C7.975 5.125 14.575 5.125 21.375 5.125 C21.375 5.455 21.375 5.785 21.375 6.125 C16.425 6.125 11.475 6.125 6.375 6.125 C6.375 6.785 6.375 7.445 6.375 8.125 C-1.25 9.375 -1.25 9.375 -4.625 7.125 C-4.9375 4.625 -4.9375 4.625 -4.625 2.125 C-2.625 0.125 -2.625 0.125 0 0 Z " fill="#E6AC30" transform="translate(301.625,246.875)"/>
<path d="M0 0 C0.66 0 1.32 0 2 0 C3.97352462 3.94704924 3.4423055 8.69812463 3 13 C1.99164133 15.70637196 1.04295085 16.84355188 -1 19 C-3.25 19.875 -3.25 19.875 -5 20 C-5.33 19.01 -5.66 18.02 -6 17 C-5.360625 16.46375 -4.72125 15.9275 -4.0625 15.375 C-0.89455475 11.72706305 -1 8.38905849 -1 3.6875 C-1 1 -1 1 0 0 Z " fill="#0C0C0E" transform="translate(279,365)"/>
<path d="M0 0 C2.19649956 3.5298964 2.18561226 6.26995114 2.0546875 10.375 C2.03019531 11.60734375 2.00570312 12.8396875 1.98046875 14.109375 C1.91015019 16.70334838 1.83202307 19.29712182 1.74609375 21.890625 C1.71322266 23.73914063 1.71322266 23.73914063 1.6796875 25.625 C1.64601074 26.75164062 1.61233398 27.87828125 1.57763672 29.0390625 C1.76803455 32.09018294 1.76803455 32.09018294 3.78564453 34.3515625 C6.75918416 36.56516113 9.35781135 36.71983164 13 37 C13 37.33 13 37.66 13 38 C11.02090602 38.02686553 9.04171029 38.04633375 7.0625 38.0625 C5.96035156 38.07410156 4.85820312 38.08570313 3.72265625 38.09765625 C1 38 1 38 0 37 C-0.08858646 34.26105915 -0.11523479 31.5474673 -0.09765625 28.80859375 C-0.0962413 27.98875504 -0.09482635 27.16891632 -0.09336853 26.32423401 C-0.08775289 23.69528618 -0.07519779 21.06642227 -0.0625 18.4375 C-0.05748701 16.65950643 -0.05292376 14.88151154 -0.04882812 13.10351562 C-0.03777839 8.73564455 -0.02050331 4.36783652 0 0 Z " fill="#3D878A" transform="translate(178,280)"/>
<path d="M0 0 C4.875 0.875 4.875 0.875 6 2 C6.04080783 3.99958364 6.04254356 6.00045254 6 8 C-0.625 9.25 -0.625 9.25 -4 7 C-5.92744369 6.6373883 -5.92744369 6.6373883 -8.01171875 6.5859375 C-8.76904297 6.54726562 -9.52636719 6.50859375 -10.30664062 6.46875 C-11.09232422 6.4378125 -11.87800781 6.406875 -12.6875 6.375 C-13.48478516 6.33632812 -14.28207031 6.29765625 -15.10351562 6.2578125 C-17.06863475 6.16367506 -19.0342854 6.08075368 -21 6 C-21 5.67 -21 5.34 -21 5 C-13.74 5 -6.48 5 1 5 C0.67 3.35 0.34 1.7 0 0 Z " fill="#E8B73E" transform="translate(195,247)"/>
<path d="M0 0 C2.0625 1.625 2.0625 1.625 4 4 C4 7 4 7 3 10 C2.33194336 10.53786133 1.66388672 11.07572266 0.97558594 11.62988281 C-1.98037309 15.17615694 -1.60275205 18.43466014 -1.609375 22.921875 C-1.62591125 23.78186096 -1.64244751 24.64184692 -1.65948486 25.52789307 C-1.70798368 28.26866788 -1.72933956 31.0088878 -1.75 33.75 C-1.77815817 35.61070503 -1.80808539 37.47138419 -1.83984375 39.33203125 C-1.91374297 43.88797515 -1.96330595 48.44361067 -2 53 C-2.33 53 -2.66 53 -3 53 C-3.0741916 47.37665694 -3.12862179 41.7535992 -3.16479492 36.12988281 C-3.17987558 34.21707191 -3.2003431 32.30429554 -3.22631836 30.39160156 C-3.26273347 27.6411893 -3.27973349 24.89123446 -3.29296875 22.140625 C-3.30845261 21.28631897 -3.32393646 20.43201294 -3.33988953 19.55181885 C-3.34117079 15.02526805 -3.26017557 12.42573136 0 9 C0.35957889 6.64070358 0.35957889 6.64070358 0.1875 4.25 C0.16042969 3.45078125 0.13335937 2.6515625 0.10546875 1.828125 C0.05326172 0.92320312 0.05326172 0.92320312 0 0 Z " fill="#F7F3EB" transform="translate(162,163)"/>
<path d="M0 0 C0 0.99 0 1.98 0 3 C1.32 3 2.64 3 4 3 C4 4.65 4 6.3 4 8 C2.68 8 1.36 8 0 8 C0 8.99 0 9.98 0 11 C-1.65 11 -3.3 11 -5 11 C-5 10.01 -5 9.02 -5 8 C-4.01 8 -3.02 8 -2 8 C-2.33 6.68 -2.66 5.36 -3 4 C-4.32 4.99 -5.64 5.98 -7 7 C-7 5.02 -7 3.04 -7 1 C-4.50935112 0.31292445 -2.62113708 0 0 0 Z " fill="#F5BF33" transform="translate(158,163)"/>
<path d="M0 0 C0.66 0.33 1.32 0.66 2 1 C2 11.23 2 21.46 2 32 C0.35 31.67 -1.3 31.34 -3 31 C-2.01 30.67 -1.02 30.34 0 30 C0 20.1 0 10.2 0 0 Z " fill="#DDDDDD" transform="translate(322,358)"/>
<path d="M0 0 C1.09445938 0.00212242 1.09445938 0.00212242 2.21102905 0.00428772 C4.54437335 0.00989094 6.87762214 0.0224439 9.2109375 0.03515625 C10.79166528 0.04017084 12.37239457 0.04473382 13.953125 0.04882812 C17.83076604 0.05986141 21.70833557 0.07712814 25.5859375 0.09765625 C25.5859375 0.75765625 25.5859375 1.41765625 25.5859375 2.09765625 C22.2734375 3.22265625 22.2734375 3.22265625 18.5859375 4.09765625 C17.5959375 3.43765625 16.6059375 2.77765625 15.5859375 2.09765625 C12.31051953 1.6191173 9.01765608 1.68132301 5.7109375 1.66015625 C4.81246094 1.62728516 3.91398437 1.59441406 2.98828125 1.56054688 C-1.83104727 1.43525527 -1.83104727 1.43525527 -6.16113281 3.24169922 C-7.71569746 4.72940946 -7.71569746 4.72940946 -9.4140625 7.09765625 C-9.4140625 5.11765625 -9.4140625 3.13765625 -9.4140625 1.09765625 C-6.40193221 -0.4084089 -3.30123628 -0.02394706 0 0 Z " fill="#253852" transform="translate(294.4140625,136.90234375)"/>
<path d="M0 0 C0.66 0.33 1.32 0.66 2 1 C2 1.99 2 2.98 2 4 C1.21625 4.70125 0.4325 5.4025 -0.375 6.125 C-3.45263751 9.49574584 -3.88097054 11.71545281 -4.54296875 16.109375 C-4.69378906 16.73328125 -4.84460938 17.3571875 -5 18 C-5.66 18.33 -6.32 18.66 -7 19 C-8.86476649 9.6253103 -8.86476649 9.6253103 -6.80078125 5.74609375 C-4.71563631 3.32772952 -2.86788342 1.43394171 0 0 Z " fill="#101011" transform="translate(261,359)"/>
<path d="M0 0 C1.32 0.33 2.64 0.66 4 1 C3.67 19.81 3.34 38.62 3 58 C2.67 58 2.34 58 2 58 C1.98969254 57.31761765 1.97938507 56.63523529 1.96876526 55.93217468 C1.86076179 48.84343768 1.74615869 41.75482937 1.62768555 34.66625977 C1.58431696 32.01915168 1.54264332 29.37201528 1.50268555 26.72485352 C1.44502977 22.924555 1.38132156 19.12439932 1.31640625 15.32421875 C1.29969376 14.13664474 1.28298126 12.94907074 1.26576233 11.72550964 C1.24581711 10.62459488 1.22587189 9.52368011 1.20532227 8.3894043 C1.18977798 7.41899704 1.1742337 6.44858978 1.15821838 5.44877625 C1.09534871 2.86204325 1.09534871 2.86204325 0 0 Z " fill="#E9D2A4" transform="translate(338,174)"/>
<path d="M0 0 C5.59902499 4.19926874 9.99647161 9.25889965 14 15 C14 15.66 14 16.32 14 17 C12.68 17.33 11.36 17.66 10 18 C10 18.99 10 19.98 10 21 C5.125 16.375 5.125 16.375 4 13 C4.66 13 5.32 13 6 13 C6 13.66 6 14.32 6 15 C6.66 14.67 7.32 14.34 8 14 C6.66557394 9.596394 4.30702993 6.85758493 1.2421875 3.55078125 C0 2 0 2 0 0 Z " fill="#898989" transform="translate(193,362)"/>
<path d="M0 0 C0.99 0.33 1.98 0.66 3 1 C2.67 2.32 2.34 3.64 2 5 C-5.59 5 -13.18 5 -21 5 C-21.33 4.34 -21.66 3.68 -22 3 C-14.74 3 -7.48 3 0 3 C0 2.01 0 1.02 0 0 Z " fill="#CBCBCB" transform="translate(162,384)"/>
<path d="M0 0 C0.66 0 1.32 0 2 0 C2.66 1.32 3.32 2.64 4 4 C3.34 4 2.68 4 2 4 C2 10.27 2 16.54 2 23 C0.68 23.33 -0.64 23.66 -2 24 C-2.33 23.34 -2.66 22.68 -3 22 C-2.01 22 -1.02 22 0 22 C0 14.74 0 7.48 0 0 Z " fill="#E0E0E0" transform="translate(189,366)"/>
<path d="M0 0 C4.47815193 4.36332752 6.15495367 6.19369002 6.3125 12.4375 C6.34988281 13.40558594 6.38726562 14.37367188 6.42578125 15.37109375 C6 18 6 18 3.98046875 19.84765625 C3.32691406 20.22792969 2.67335938 20.60820312 2 21 C2.16371094 20.47921875 2.32742188 19.9584375 2.49609375 19.421875 C3.14058659 16.3243125 3.09411589 13.41158906 3.0625 10.25 C3.05347656 9.07953125 3.04445313 7.9090625 3.03515625 6.703125 C3.01775391 5.36507813 3.01775391 5.36507813 3 4 C0.48916886 5.25541557 0.12874554 6.50063488 -1 9 C-2.32 7.02 -3.64 5.04 -5 3 C-3.68 3 -2.36 3 -1 3 C-0.67 2.01 -0.34 1.02 0 0 Z " fill="#C1C1C1" transform="translate(278,361)"/>
<path d="M0 0 C0.99 0 1.98 0 3 0 C3.02693575 2.12493141 3.04636628 4.24995912 3.0625 6.375 C3.07410156 7.55835938 3.08570313 8.74171875 3.09765625 9.9609375 C3 13 3 13 2 15 C1.34 15 0.68 15 0 15 C-1.37252731 12.25494537 -1.13229255 9.99672588 -1.125 6.9375 C-1.12757813 5.85339844 -1.13015625 4.76929688 -1.1328125 3.65234375 C-1 1 -1 1 0 0 Z " fill="#070708" transform="translate(223,358)"/>
<path d="M0 0 C1.22589844 0.01353516 1.22589844 0.01353516 2.4765625 0.02734375 C3.41628906 0.04474609 3.41628906 0.04474609 4.375 0.0625 C4.705 0.7225 5.035 1.3825 5.375 2.0625 C4.77171875 2.08828125 4.1684375 2.1140625 3.546875 2.140625 C-0.22432702 2.40825869 -2.91290286 2.59963686 -6.125 4.6875 C-8.50188784 8.45090575 -8.97049499 12.13759933 -8.1875 16.5 C-8.001875 17.015625 -7.81625 17.53125 -7.625 18.0625 C-9.58526975 16.42980848 -10.5315055 15.51228435 -11.05859375 12.9765625 C-11.06561893 8.85980511 -10.98472018 6.63805229 -8.75 3.0625 C-5.68929905 0.18184028 -4.09501886 -0.05850027 0 0 Z " fill="#EEEEEE" transform="translate(267.625,361.9375)"/>
<path d="M0 0 C1.37579827 2.66211372 2.37063561 5.06296616 3 8 C3.33 5.69 3.66 3.38 4 1 C4.33 1 4.66 1 5 1 C5.09796875 1.60328125 5.1959375 2.2065625 5.296875 2.828125 C6.20946904 7.70578282 6.87595723 10.83823388 11 14 C8.625 14.125 8.625 14.125 6 14 C5.34 13.34 4.68 12.68 4 12 C3.67 12.66 3.34 13.32 3 14 C-0.53286034 9.43672206 -0.32374517 5.50366792 0 0 Z " fill="#4D4D4E" transform="translate(252,369)"/>
<path d="M0 0 C2.33944736 0.28730055 4.6739143 0.61936779 7 1 C7 2.65 7 4.3 7 6 C5.68 6 4.36 6 3 6 C3 6.66 3 7.32 3 8 C1.35 8 -0.3 8 -2 8 C-1.125 1.125 -1.125 1.125 0 0 Z " fill="#ECAE24" transform="translate(247,248)"/>
<path d="M0 0 C0.66 0 1.32 0 2 0 C2.34620713 3.20520791 2.35305698 4.55169974 0.3203125 7.1328125 C-0.40414062 7.79023438 -1.12859375 8.44765625 -1.875 9.125 C-4.33274807 11.38894715 -6.13099942 13.19649913 -8 16 C-8.8125 14.375 -8.8125 14.375 -9 12 C-6.6875 8.75 -6.6875 8.75 -4 6 C-3.34 6 -2.68 6 -2 6 C-1.34 4.02 -0.68 2.04 0 0 Z " fill="#ECECEC" transform="translate(245,358)"/>
<path d="M0 0 C12.59282511 -0.92017937 12.59282511 -0.92017937 16.04296875 1.3359375 C17.375 3 17.375 3 19 6 C18.43023437 5.855625 17.86046875 5.71125 17.2734375 5.5625 C11.55592049 4.14785662 5.82347645 2.89591945 0 2 C0 1.34 0 0.68 0 0 Z " fill="#647C61" transform="translate(178,254)"/>
<path d="M0 0 C0.66 0 1.32 0 2 0 C1.41827275 3.9520518 -0.55157741 6.22095053 -3.0625 9.25 C-3.79597656 10.14203125 -4.52945312 11.0340625 -5.28515625 11.953125 C-5.85105469 12.62859375 -6.41695313 13.3040625 -7 14 C-8.32 13.67 -9.64 13.34 -11 13 C-11 12.01 -11 11.02 -11 10 C-9.68 10 -8.36 10 -7 10 C-5.0451834 7.79355725 -5.0451834 7.79355725 -3.375 5 C-2.29574423 3.30335338 -1.18028696 1.62798202 0 0 Z " fill="#EEEEEF" transform="translate(316,366)"/>
<path d="M0 0 C0.99 0 1.98 0 3 0 C2.5256902 4.2687882 0.19283436 6.31511656 -3 9 C-5.8125 9.8125 -5.8125 9.8125 -8 10 C-7.04367001 8.70684939 -6.08486149 7.41553147 -5.125 6.125 C-4.59132812 5.40570313 -4.05765625 4.68640625 -3.5078125 3.9453125 C-2 2 -2 2 0 0 Z M-9 10 C-8.67 10.66 -8.34 11.32 -8 12 C-8.66 11.67 -9.32 11.34 -10 11 C-9.67 10.67 -9.34 10.34 -9 10 Z " fill="#0F0F0F" transform="translate(242,358)"/>
<path d="M0 0 C0.66 0.33 1.32 0.66 2 1 C2 1.99 2 2.98 2 4 C-0.40059817 5.20029908 -1.89360649 5.11459743 -4.5703125 5.09765625 C-5.46621094 5.09443359 -6.36210937 5.09121094 -7.28515625 5.08789062 C-8.22230469 5.07951172 -9.15945312 5.07113281 -10.125 5.0625 C-11.06988281 5.05798828 -12.01476562 5.05347656 -12.98828125 5.04882812 C-15.32558387 5.03702357 -17.66276061 5.02055759 -20 5 C-20 4.34 -20 3.68 -20 3 C-18.72382813 3.03480469 -17.44765625 3.06960938 -16.1328125 3.10546875 C-14.46355479 3.13360231 -12.7942829 3.16090293 -11.125 3.1875 C-10.28324219 3.21263672 -9.44148437 3.23777344 -8.57421875 3.26367188 C-7.76855469 3.27333984 -6.96289062 3.28300781 -6.1328125 3.29296875 C-5.38918457 3.3086792 -4.64555664 3.32438965 -3.87939453 3.34057617 C-3.25919434 3.22818604 -2.63899414 3.1157959 -2 3 C-1.34 2.01 -0.68 1.02 0 0 Z " fill="#448084" transform="translate(212,314)"/>
<path d="M0 0 C0.66 0.99 1.32 1.98 2 3 C3.32 2.01 4.64 1.02 6 0 C6 1.65 6 3.3 6 5 C5.01 5 4.02 5 3 5 C3.33 5.66 3.66 6.32 4 7 C5.28687011 10.86061033 5.13757618 13.94150283 5 18 C4.67 18 4.34 18 4 18 C3.9175 16.96875 3.835 15.9375 3.75 14.875 C3.25021431 10.92560134 3.25021431 10.92560134 0.875 7.875 C-1 5 -1 5 -0.75 2.125 C-0.5025 1.42375 -0.255 0.7225 0 0 Z " fill="#F1CE72" transform="translate(150,166)"/>
<path d="M0 0 C1.49080078 0.02707031 1.49080078 0.02707031 3.01171875 0.0546875 C3.77097656 0.07789063 4.53023438 0.10109375 5.3125 0.125 C5.3125 0.455 5.3125 0.785 5.3125 1.125 C4.70921875 1.15078125 4.1059375 1.1765625 3.484375 1.203125 C-1.70049912 1.37648329 -1.70049912 1.37648329 -5.6875 4.3125 C-6.3475 4.910625 -7.0075 5.50875 -7.6875 6.125 C-10.84116329 5.96255553 -13.75760134 5.30171386 -16.6875 4.125 C-17.0175 3.465 -17.3475 2.805 -17.6875 2.125 C-16.76517578 2.15980469 -16.76517578 2.15980469 -15.82421875 2.1953125 C-14.61185547 2.22238281 -14.61185547 2.22238281 -13.375 2.25 C-12.17423828 2.28480469 -12.17423828 2.28480469 -10.94921875 2.3203125 C-6.81425302 1.96323429 -4.53788197 -0.10677369 0 0 Z " fill="#0D101B" transform="translate(315.6875,255.875)"/>
<path d="M0 0 C1.65 1.65 3.3 3.3 5 5 C4.67 5.66 4.34 6.32 4 7 C3.34 6.34 2.68 5.68 2 5 C1.67 10.94 1.34 16.88 1 23 C-0.32 23.33 -1.64 23.66 -3 24 C-3.33 23.34 -3.66 22.68 -4 22 C-3.01 21.67 -2.02 21.34 -1 21 C-0.67 14.07 -0.34 7.14 0 0 Z " fill="#F2F2F2" transform="translate(297,366)"/>
<path d="M0 0 C5.28 0 10.56 0 16 0 C15.67 0.66 15.34 1.32 15 2 C10.38 2 5.76 2 1 2 C0.34 3.98 -0.32 5.96 -1 8 C-3.125 9.375 -3.125 9.375 -5 10 C-5.33 9.34 -5.66 8.68 -6 8 C-5.38125 7.4225 -4.7625 6.845 -4.125 6.25 C-1.71889788 3.91947007 -1.71889788 3.91947007 0 0 Z " fill="#E7E7E8" transform="translate(337,380)"/>
<path d="M0 0 C0.66 0.33 1.32 0.66 2 1 C1.67 2.98 1.34 4.96 1 7 C-3.29 7 -7.58 7 -12 7 C-12 6.34 -12 5.68 -12 5 C-6.555 4.505 -6.555 4.505 -1 4 C-0.67 2.68 -0.34 1.36 0 0 Z " fill="#050506" transform="translate(352,372)"/>
<path d="M0 0 C5.80205656 5.64524422 5.80205656 5.64524422 8 9 C8 9.66 8 10.32 8 11 C6.35 11.33 4.7 11.66 3 12 C2.01 10.35 1.02 8.7 0 7 C0.66 7 1.32 7 2 7 C2.33 6.01 2.66 5.02 3 4 C2.01 3.67 1.02 3.34 0 3 C0 2.01 0 1.02 0 0 Z " fill="#5B5B5C" transform="translate(297,358)"/>
<path d="M0 0 C0.99 0.33 1.98 0.66 3 1 C3 1.66 3 2.32 3 3 C4.32 3 5.64 3 7 3 C7 3.99 7 4.98 7 6 C3.78043217 7.07318928 3.09578311 6.870689 0 6 C-0.99 6 -1.98 6 -3 6 C-2.625 3.5625 -2.625 3.5625 -2 1 C-1.34 0.67 -0.68 0.34 0 0 Z " fill="#192744" transform="translate(243,258)"/>
<path d="M0 0 C0.66 0 1.32 0 2 0 C2 2.64 2 5.28 2 8 C-0.91482778 8.80967438 -2.46113217 9.21845993 -5.3125 8.0625 C-5.869375 7.711875 -6.42625 7.36125 -7 7 C-6.01 6.34 -5.02 5.68 -4 5 C-2.22165019 3.35844633 -1.08682115 2.17364229 0 0 Z " fill="#325B4F" transform="translate(203,252)"/>
<path d="M0 0 C0.33 0 0.66 0 1 0 C1 9.9 1 19.8 1 30 C0.01 30.33 -0.98 30.66 -2 31 C-2.99 30.01 -3.98 29.02 -5 28 C-3.68 28 -2.36 28 -1 28 C-0.67 18.76 -0.34 9.52 0 0 Z " fill="#EFEFEF" transform="translate(211,359)"/>
<path d="M0 0 C0.99 0 1.98 0 3 0 C3.33 2.64 3.66 5.28 4 8 C2.35 8.33 0.7 8.66 -1 9 C-1.09765625 2.84765625 -1.09765625 2.84765625 -1 1 C-0.67 0.67 -0.34 0.34 0 0 Z " fill="#151516" transform="translate(223,379)"/>
<path d="M0 0 C0.33 0 0.66 0 1 0 C1 10.23 1 20.46 1 31 C0.34 31.33 -0.32 31.66 -1 32 C-1.99 31.67 -2.98 31.34 -4 31 C-3.67 30.34 -3.34 29.68 -3 29 C-2.34 29 -1.68 29 -1 29 C-0.67 19.43 -0.34 9.86 0 0 Z " fill="#EFEFEF" transform="translate(173,358)"/>
<path d="M0 0 C1.32 0.66 2.64 1.32 4 2 C1 3 1 3 -1 3 C-1.66 6.63 -2.32 10.26 -3 14 C-4.32 14.33 -5.64 14.66 -7 15 C-7.33 14.34 -7.66 13.68 -8 13 C-7.01 12.67 -6.02 12.34 -5 12 C-5.103125 10.948125 -5.20625 9.89625 -5.3125 8.8125 C-5 5 -5 5 -2.5 2.0625 C-1.675 1.381875 -0.85 0.70125 0 0 Z " fill="#E2E2E3" transform="translate(231,375)"/>
<path d="M0 0 C0.66 0.33 1.32 0.66 2 1 C2 1.66 2 2.32 2 3 C1.36191406 2.98839844 0.72382813 2.97679687 0.06640625 2.96484375 C-0.75988281 2.95582031 -1.58617187 2.94679687 -2.4375 2.9375 C-3.26121094 2.92589844 -4.08492188 2.91429687 -4.93359375 2.90234375 C-6.99163938 2.76732652 -6.99163938 2.76732652 -8 4 C-8.23075082 5.34747084 -8.41153063 6.70377565 -8.5625 8.0625 C-8.7790625 10.0115625 -8.7790625 10.0115625 -9 12 C-9.66 11.34 -10.32 10.68 -11 10 C-10.86628937 6.32295772 -10.77513533 3.88997019 -8.3125 1.0625 C-5.37084049 -0.28907329 -3.20371381 -0.27858381 0 0 Z " fill="#EBC171" transform="translate(347,162)"/>
<path d="M0 0 C1.98 0 3.96 0 6 0 C7.38226016 2.76452033 7.09525387 5.0461363 7.0625 8.125 C7.05347656 9.22070312 7.04445312 10.31640625 7.03515625 11.4453125 C7.02355469 12.28835937 7.01195312 13.13140625 7 14 C6.67 14 6.34 14 6 14 C6 11.03 6 8.06 6 5 C4.0745356 3.8509288 4.0745356 3.8509288 2 4 C1.01 4.495 1.01 4.495 0 5 C0 3.35 0 1.7 0 0 Z " fill="#72AEAE" transform="translate(208,138)"/>
<path d="M0 0 C2.375 0.5625 2.375 0.5625 5 2 C6.3125 5.625 6.3125 5.625 7 9 C6.01 8.67 5.02 8.34 4 8 C4 7.34 4 6.68 4 6 C2.68 5.67 1.36 5.34 0 5 C0 3.35 0 1.7 0 0 Z " fill="#1C1C1E" transform="translate(195,369)"/>
<path d="M0 0 C4.875 0.875 4.875 0.875 6 2 C6.04080783 3.99958364 6.04254356 6.00045254 6 8 C4.35 8.33 2.7 8.66 1 9 C1 7 1 7 3 5 C2.01 3.35 1.02 1.7 0 0 Z " fill="#ECB136" transform="translate(195,247)"/>
<path d="M0 0 C0 0.99 0 1.98 0 3 C-1.65 2.67 -3.3 2.34 -5 2 C-5.12375 2.78375 -5.2475 3.5675 -5.375 4.375 C-6 7 -6 7 -8 9 C-8.33 6.69 -8.66 4.38 -9 2 C-5.5647952 -0.29013653 -4.014669 -0.17842973 0 0 Z " fill="#E1AE48" transform="translate(252,247)"/>
<path d="M0 0 C8.87837838 8.63175676 8.87837838 8.63175676 9.25 12.8125 C9.1675 13.534375 9.085 14.25625 9 15 C8.01 15.33 7.02 15.66 6 16 C5.34 15.34 4.68 14.68 4 14 C4.99 13.67 5.98 13.34 7 13 C5.46073417 9.50166857 3.31392894 6.6178597 1.0234375 3.5859375 C0 2 0 2 0 0 Z " fill="#EBEBEB" transform="translate(238,374)"/>
<path d="M0 0 C0.75 1.6875 0.75 1.6875 1 4 C-0.9375 6.75 -0.9375 6.75 -3 9 C-4.98 8.01 -6.96 7.02 -9 6 C-9 5.67 -9 5.34 -9 5 C-7.88625 4.731875 -6.7725 4.46375 -5.625 4.1875 C-1.78159049 3.34190981 -1.78159049 3.34190981 0 0 Z " fill="#1A1410" transform="translate(256,253)"/>
<path d="M0 0 C3.3 0 6.6 0 10 0 C10 0.99 10 1.98 10 3 C14.29 3 18.58 3 23 3 C23 3.33 23 3.66 23 4 C20.72942623 4.05398987 18.45848712 4.09278742 16.1875 4.125 C14.29064453 4.15980469 14.29064453 4.15980469 12.35546875 4.1953125 C9 4 9 4 6 2 C3.37468476 1.83286431 3.37468476 1.83286431 1 2 C0.67 1.34 0.34 0.68 0 0 Z " fill="#1F2526" transform="translate(298,244)"/>
<path d="M0 0 C2.98619537 2.55959603 4.48551562 5.3940848 6 9 C6.1875 11.875 6.1875 11.875 6 14 C4.125 14.625 4.125 14.625 2 15 C1.34 14.34 0.68 13.68 0 13 C1.32 13 2.64 13 4 13 C3.79503906 12.39671875 3.59007812 11.7934375 3.37890625 11.171875 C3.10949219 10.37265625 2.84007812 9.5734375 2.5625 8.75 C2.29566406 7.96109375 2.02882813 7.1721875 1.75390625 6.359375 C1.08045292 4.25178012 0.50849405 2.15246027 0 0 Z " fill="#F0EFF0" transform="translate(356,375)"/>
<path d="M0 0 C0.99 0.33 1.98 0.66 3 1 C2.8864371 2.64666203 2.75882619 4.29236082 2.625 5.9375 C2.52058594 7.31228516 2.52058594 7.31228516 2.4140625 8.71484375 C2.27742188 9.46894531 2.14078125 10.22304688 2 11 C1.01 11.495 1.01 11.495 0 12 C-0.19401633 10.18818595 -0.38004375 8.37551468 -0.5625 6.5625 C-0.66691406 5.55316406 -0.77132812 4.54382813 -0.87890625 3.50390625 C-0.91886719 2.67761719 -0.95882812 1.85132813 -1 1 C-0.67 0.67 -0.34 0.34 0 0 Z " fill="#070707" transform="translate(254,366)"/>
<path d="M0 0 C3.8665284 3.222107 4.88059018 6.14922412 6 11 C4.68 11.33 3.36 11.66 2 12 C2 9.36 2 6.72 2 4 C1.34 4 0.68 4 0 4 C0 2.68 0 1.36 0 0 Z " fill="#387877" transform="translate(203,248)"/>
<path d="M0 0 C0.33 0.66 0.66 1.32 1 2 C1.99 2.33 2.98 2.66 4 3 C4.33 2.34 4.66 1.68 5 1 C5.66 1 6.32 1 7 1 C6.67 2.65 6.34 4.3 6 6 C4.02 6 2.04 6 0 6 C-0.38218767 4.34385343 -0.71395102 2.67542976 -1 1 C-0.67 0.67 -0.34 0.34 0 0 Z " fill="#0D1A2F" transform="translate(314,312)"/>
<path d="M0 0 C1.875 0.25 1.875 0.25 4 1 C5.25 3.0625 5.25 3.0625 6 5 C4.34385343 5.38218767 2.67542976 5.71395102 1 6 C0 5 0 5 -0.0625 2.4375 C-0.041875 1.633125 -0.02125 0.82875 0 0 Z " fill="#282829" transform="translate(240,382)"/>
<path d="M0 0 C0.66 0 1.32 0 2 0 C2.33 0.99 2.66 1.98 3 3 C2.01 3.495 2.01 3.495 1 4 C0.505 5.155 0.01 6.31 -0.5 7.5 C-2 11 -2 11 -4 12 C-3.45660208 7.43545749 -2.20536179 4.0271824 0 0 Z " fill="#E3E3E4" transform="translate(344,364)"/>
<path d="M0 0 C0.99 0.33 1.98 0.66 3 1 C2.79375 2.0725 2.5875 3.145 2.375 4.25 C2.0123809 7.87619096 2.01637931 9.08291076 4 12 C2.68 11.67 1.36 11.34 0 11 C0 10.01 0 9.02 0 8 C-0.66 8 -1.32 8 -2 8 C-1.34 5.36 -0.68 2.72 0 0 Z " fill="#2F2D2B" transform="translate(242,246)"/>
<path d="M0 0 C1.32 0.33 2.64 0.66 4 1 C3.67 1.33 3.34 1.66 3 2 C2.49389093 6.7954154 2.49389093 6.7954154 4.5 10.9375 C4.995 11.288125 5.49 11.63875 6 12 C4.35 11.67 2.7 11.34 1 11 C-0.28317892 7.15046324 -0.06643637 4.05261865 0 0 Z " fill="#2C2B2A" transform="translate(294,246)"/>
<path d="M0 0 C0.33 0 0.66 0 1 0 C1.12375 1.134375 1.2475 2.26875 1.375 3.4375 C1.58125 4.613125 1.7875 5.78875 2 7 C2.66 7.33 3.32 7.66 4 8 C4 7.01 4 6.02 4 5 C5.32 5.33 6.64 5.66 8 6 C7.67 7.32 7.34 8.64 7 10 C1.125 9.125 1.125 9.125 0 8 C-0.14115161 5.32941149 -0.04247107 2.67567762 0 0 Z " fill="#F1B23C" transform="translate(338,166)"/>
<path d="M0 0 C0.33 0.66 0.66 1.32 1 2 C1.66 2.33 2.32 2.66 3 3 C1.71937515 4.7074998 0.38232443 6.37373596 -1 8 C-1.66 8 -2.32 8 -3 8 C-3.33 7.01 -3.66 6.02 -4 5 C-2.0625 2.3125 -2.0625 2.3125 0 0 Z " fill="#131313" transform="translate(312,366)"/>
<path d="M0 0 C1.27875 -0.061875 2.5575 -0.12375 3.875 -0.1875 C4.95394531 -0.23970703 4.95394531 -0.23970703 6.0546875 -0.29296875 C6.69664062 -0.19628906 7.33859375 -0.09960938 8 0 C8.66 0.99 9.32 1.98 10 3 C9 4 9 4 5.9375 4.0625 C4.968125 4.041875 3.99875 4.02125 3 4 C2.67 3.01 2.34 2.02 2 1 C1.34 0.67 0.68 0.34 0 0 Z " fill="#326E75" transform="translate(197,260)"/>
<path d="M0 0 C2.31 0.33 4.62 0.66 7 1 C7.33 2.32 7.66 3.64 8 5 C4.7 4.34 1.4 3.68 -2 3 C-1.34 2.01 -0.68 1.02 0 0 Z " fill="#182A4B" transform="translate(248,240)"/>
<path d="M0 0 C5.75 0.75 5.75 0.75 8 3 C3.25 5 3.25 5 1 5 C0.67 3.35 0.34 1.7 0 0 Z " fill="#337C81" transform="translate(191,259)"/>
<path d="M0 0 C0.33 0.99 0.66 1.98 1 3 C-0.45880109 2.85892253 -1.91703551 2.71197585 -3.375 2.5625 C-4.59316406 2.44068359 -4.59316406 2.44068359 -5.8359375 2.31640625 C-8 2 -8 2 -10 1 C-6.1496895 -1.56687367 -4.41430237 -0.83288724 0 0 Z " fill="#BEA05D" transform="translate(254,246)"/>
<path d="M0 0 C0.66 0 1.32 0 2 0 C3.4783226 2.95664519 3.06032783 5.74229737 3 9 C2.01 9.33 1.02 9.66 0 10 C0 6.7 0 3.4 0 0 Z " fill="#F9F7F2" transform="translate(349,164)"/>
<path d="M0 0 C0 0.66 0 1.32 0 2 C-0.66 2 -1.32 2 -2 2 C-2.66 4.31 -3.32 6.62 -4 9 C-4.33 9 -4.66 9 -5 9 C-5.1875 5.625 -5.1875 5.625 -5 2 C-2 0 -2 0 0 0 Z " fill="#37455B" transform="translate(236,120)"/>
<path d="M0 0 C0 0.99 0 1.98 0 3 C-3 4 -3 4 -6 3 C-6.33 2.01 -6.66 1.02 -7 0 C-4.3333581 -1.33332095 -2.83319697 -0.67102033 0 0 Z " fill="#142839" transform="translate(250,261)"/>
<path d="M0 0 C0.99 0.33 1.98 0.66 3 1 C2.6875 2.875 2.6875 2.875 2 5 C1.01 5.66 0.02 6.32 -1 7 C-0.67 4.69 -0.34 2.38 0 0 Z " fill="#0D1727" transform="translate(257,252)"/>
<path d="M0 0 C0.66 0.99 1.32 1.98 2 3 C1.67 3.99 1.34 4.98 1 6 C0.13375 5.319375 0.13375 5.319375 -0.75 4.625 C-2.7800333 3.15886484 -4.73539843 2.05142216 -7 1 C-3.535 0.505 -3.535 0.505 0 0 Z " fill="#6B9378" transform="translate(201,243)"/>
<path d="M0 0 C2.5 0.3125 2.5 0.3125 5 1 C5.33 1.66 5.66 2.32 6 3 C4.02 3.33 2.04 3.66 0 4 C-0.33 3.01 -0.66 2.02 -1 1 C-0.67 0.67 -0.34 0.34 0 0 Z " fill="#333335" transform="translate(302,369)"/>
<path d="M0 0 C0.66 0.33 1.32 0.66 2 1 C1.34 2.65 0.68 4.3 0 6 C-1.32 5.67 -2.64 5.34 -4 5 C-3.6875 3.0625 -3.6875 3.0625 -3 1 C-2.01 0.67 -1.02 0.34 0 0 Z " fill="#1D1D1D" transform="translate(342,364)"/>
<path d="M0 0 C0.66 0.33 1.32 0.66 2 1 C0.23043542 3.14210449 -0.87575652 3.96060573 -3.5625 4.8125 C-4.7690625 4.9053125 -4.7690625 4.9053125 -6 5 C-6.66 4.34 -7.32 3.68 -8 3 C-7.05125 2.690625 -6.1025 2.38125 -5.125 2.0625 C-2.13919592 1.12605258 -2.13919592 1.12605258 0 0 Z " fill="#F7F2E9" transform="translate(332,250)"/>
<path d="M0 0 C0.33 0 0.66 0 1 0 C1 3.3 1 6.6 1 10 C0.01 9.67 -0.98 9.34 -2 9 C-1.34 6.03 -0.68 3.06 0 0 Z " fill="#152137" transform="translate(320,237)"/>
</svg>
